<?xml version="1.0" standalone="no"?><!DOCTYPE svg PUBLIC "-//W3C//DTD SVG 1.1//EN" "http://www.w3.org/Graphics/SVG/1.1/DTD/svg11.dtd"><svg t="1655221628674" class="icon" viewBox="0 0 1024 1024" version="1.1" xmlns="http://www.w3.org/2000/svg" p-id="4122" xmlns:xlink="http://www.w3.org/1999/xlink" width="200" height="200"><defs><style type="text/css">@font-face { font-family: feedback-iconfont; src: url("//at.alicdn.com/t/font_1031158_u69w8yhxdu.woff2?t=1630033759944") format("woff2"), url("//at.alicdn.com/t/font_1031158_u69w8yhxdu.woff?t=1630033759944") format("woff"), url("//at.alicdn.com/t/font_1031158_u69w8yhxdu.ttf?t=1630033759944") format("truetype"); }
</style></defs><path d="M837.07904 772.89472c14.5408 8.3968 14.60224 22.15936 0.16384 30.55616l-338.69824 196.83328c-14.4384 8.3968-38.21568 8.3968-52.75648 0L104.89856 803.45088c-14.5408-8.3968-14.60224-22.15936-0.16384-30.55616l338.69824-196.83328c14.4384-8.3968 38.21568-8.3968 52.75648 0l340.8896 196.83328z" fill="#EFF6FE" p-id="4123"></path><path d="M698.69568 575.95904c7.9872 4.608 8.02816 12.1856 0.1024 16.81408l-186.2656 108.2368c-7.94624 4.608-21.01248 4.608-29.02016 0l-187.4944-108.2368c-7.9872-4.608-8.02816-12.1856-0.1024-16.81408l186.2656-108.2368c7.94624-4.608 21.01248-4.608 29.02016 0l187.4944 108.2368z" fill="#DFEEFE" p-id="4124"></path><path d="M530.30912 431.88224l-0.14336 50.74944a27.50464 27.50464 0 0 0-3.82976-1.82272l0.14336-50.74944c1.35168 0.53248 2.64192 1.1264 3.82976 1.82272" fill="#DFEEFE" p-id="4125"></path><path d="M526.47936 430.05952l-0.14336 50.74944a33.32096 33.32096 0 0 0-3.23584-1.08544l0.14336-50.74944c1.1264 0.3072 2.19136 0.67584 3.23584 1.08544M523.24352 428.9536l-0.14336 50.74944a32.44032 32.44032 0 0 0-2.78528-0.67584l0.14336-50.74944c0.94208 0.18432 1.88416 0.43008 2.78528 0.67584M520.45824 428.27776l-0.14336 50.74944a55.5008 55.5008 0 0 0-2.6624-0.47104l0.14336-50.74944c0.90112 0.12288 1.78176 0.28672 2.6624 0.47104" fill="#DFEEFE" p-id="4126"></path><path d="M517.79584 427.80672l-0.14336 50.74944a36.63872 36.63872 0 0 0-2.62144-0.28672l0.14336-50.74944c0.88064 0.06144 1.7408 0.16384 2.62144 0.28672" fill="#DFEEFE" p-id="4127"></path><path d="M515.1744 427.52l-0.14336 50.74944a37.94944 37.94944 0 0 0-2.6624-0.14336l0.14336-50.74944c0.90112 0.02048 1.78176 0.06144 2.6624 0.14336M512.512 427.37664l-0.14336 50.74944a41.49248 41.49248 0 0 0-2.7648 0.02048l0.14336-50.74944c0.9216-0.04096 1.8432-0.04096 2.7648-0.02048" fill="#DFEEFE" p-id="4128"></path><path d="M509.7472 427.39712l-0.14336 50.74944a47.75936 47.75936 0 0 0-2.99008 0.2048l0.14336-50.74944a37.2736 37.2736 0 0 1 2.99008-0.2048M506.75712 427.58144l-0.14336 50.74944a47.34976 47.34976 0 0 0-3.42016 0.47104l0.14336-50.74944c1.1264-0.18432 2.27328-0.34816 3.42016-0.47104" fill="#DFEEFE" p-id="4129"></path><path d="M503.33696 428.07296l-0.14336 50.74944a36.53632 36.53632 0 0 0-5.05856 1.26976l0.14336-50.74944c1.61792-0.53248 3.31776-0.96256 5.05856-1.26976M498.2784 429.32224l-0.14336 50.74944a29.94176 29.94176 0 0 0-5.81632 2.56l0.14336-50.74944c1.76128-1.024 3.72736-1.88416 5.81632-2.56" fill="#DFEEFE" p-id="4130"></path><path d="M723.3536 543.3344l-0.14336 50.74944-193.04448-111.45216 0.14336-50.74944zM492.46208 431.88224l-0.14336 50.74944-191.77472 111.45216 0.14336-50.74944z" fill="#DFEEFE" p-id="4131"></path><path d="M731.21792 554.37312l-0.14336 50.74944c0.02048-3.9936-2.62144-8.00768-7.86432-11.03872l0.14336-50.74944c5.26336 3.03104 7.8848 7.04512 7.86432 11.03872" fill="#DFEEFE" p-id="4132"></path><path d="M300.68736 543.3344l-0.14336 50.74944-0.32768 0.18432 0.14336-50.74944 0.32768-0.18432" fill="#DFEEFE" p-id="4133"></path><path d="M300.35968 543.51872l-0.14336 50.74944a21.2992 21.2992 0 0 0-3.35872 2.47808l0.14336-50.74944c0.96256-0.88064 2.08896-1.69984 3.35872-2.47808" fill="#DFEEFE" p-id="4134"></path><path d="M297.00096 545.9968l-0.14336 50.74944a16.7936 16.7936 0 0 0-1.65888 1.78176l0.14336-50.74944a16.7936 16.7936 0 0 1 1.65888-1.78176" fill="#DFEEFE" p-id="4135"></path><path d="M295.36256 547.77856l-0.14336 50.74944a14.68416 14.68416 0 0 0-1.08544 1.59744l0.14336-50.74944a12.24704 12.24704 0 0 1 1.08544-1.59744" fill="#DFEEFE" p-id="4136"></path><path d="M294.27712 549.376l-0.14336 50.74944a9.46176 9.46176 0 0 0-0.7168 1.536l0.14336-50.74944a10.3424 10.3424 0 0 1 0.7168-1.536" fill="#DFEEFE" p-id="4137"></path><path d="M293.56032 550.912l-0.14336 50.74944a9.8304 9.8304 0 0 0-0.43008 1.51552l0.14336-50.74944a9.8304 9.8304 0 0 1 0.43008-1.51552" fill="#DFEEFE" p-id="4138"></path><path d="M293.13024 552.42752l-0.14336 50.74944a9.78944 9.78944 0 0 0-0.18432 1.55648l0.14336-50.74944a9.78944 9.78944 0 0 1 0.18432-1.55648" fill="#DFEEFE" p-id="4139"></path><path d="M292.94592 553.96352l-0.14336 50.74944v0.24576l0.14336-50.74944v-0.24576" fill="#DFEEFE" p-id="4140"></path><path d="M996.92544 554.37312l-0.16384 50.74944v0.2048l0.14336-50.74944 0.02048-0.2048" fill="#EAF4FE" p-id="4141"></path><path d="M996.90496 554.57792l-0.14336 50.74944a9.17504 9.17504 0 0 1-0.14336 1.31072l0.14336-50.74944a7.12704 7.12704 0 0 0 0.14336-1.31072" fill="#EAF4FE" p-id="4142"></path><path d="M996.7616 555.88864l-0.14336 50.74944a7.63904 7.63904 0 0 1-0.36864 1.29024l0.14336-50.74944a7.63904 7.63904 0 0 0 0.36864-1.29024" fill="#EAF4FE" p-id="4143"></path><path d="M996.39296 557.17888l-0.14336 50.74944a8.43776 8.43776 0 0 1-0.6144 1.31072l0.14336-50.74944a8.43776 8.43776 0 0 0 0.6144-1.31072" fill="#EAF4FE" p-id="4144"></path><path d="M995.77856 558.4896l-0.14336 50.74944a11.4688 11.4688 0 0 1-0.9216 1.37216l0.14336-50.74944a11.4688 11.4688 0 0 0 0.9216-1.37216" fill="#EAF4FE" p-id="4145"></path><path d="M994.85696 559.86176l-0.14336 50.74944a11.10016 11.10016 0 0 1-1.4336 1.536l0.14336-50.74944a14.336 14.336 0 0 0 1.4336-1.536" fill="#EAF4FE" p-id="4146"></path><path d="M993.42336 561.39776L993.28 612.1472a17.26464 17.26464 0 0 1-2.90816 2.1504l0.14336-50.74944a16.22016 16.22016 0 0 0 2.90816-2.1504" fill="#EAF4FE" p-id="4147"></path><path d="M990.5152 563.56864l-0.14336 50.74944-0.28672 0.16384 0.14336-50.74944a1.31072 1.31072 0 0 1 0.28672-0.16384" fill="#EAF4FE" p-id="4148"></path><path d="M34.01728 563.73248l-0.14336 50.74944c-4.52608-2.62144-6.79936-6.06208-6.79936-9.48224l0.14336-50.74944c0 3.42016 2.27328 6.8608 6.79936 9.48224" fill="#CBE4FE" p-id="4149"></path><path d="M990.22848 563.73248l-0.14336 50.74944-460.288 267.48928 0.14336-50.74944z" fill="#EAF4FE" p-id="4150"></path><path d="M497.3568 831.24224l-0.14336 50.74944L33.87392 614.48192l0.14336-50.74944z" fill="#CBE4FE" p-id="4151"></path><path d="M990.12608 544.8704c9.0112 5.20192 9.07264 13.63968 0.1024 18.86208L529.94048 831.22176c-8.99072 5.2224-23.552 5.2224-32.58368 0.02048L34.01728 563.73248c-9.0112-5.20192-9.07264-13.63968-0.08192-18.86208l460.288-267.48928c8.97024-5.20192 23.53152-5.20192 32.54272 0l463.36 267.48928z m-458.40384 131.82976l191.77472-111.43168c10.38336-6.0416 10.30144-15.91296-0.12288-21.93408l-193.04448-111.45216c-10.42432-6.02112-27.46368-6.0416-37.84704 0l-191.77472 111.43168c-10.38336 6.0416-10.30144 15.91296 0.12288 21.93408l193.04448 111.45216c10.42432 6.02112 27.4432 6.0416 37.84704 0" fill="#DFEEFE" p-id="4152"></path><path d="M529.94048 831.22176l-0.14336 50.74944c-1.536 0.90112-3.25632 1.6384-5.07904 2.23232l0.14336-50.74944c1.82272-0.59392 3.52256-1.3312 5.07904-2.23232M524.86144 833.45408l-0.14336 50.74944c-1.39264 0.45056-2.8672 0.8192-4.36224 1.08544l0.14336-50.74944c1.49504-0.26624 2.9696-0.63488 4.36224-1.08544" fill="#EAF4FE" p-id="4153"></path><path d="M520.4992 834.53952l-0.14336 50.74944a34.05824 34.05824 0 0 1-2.94912 0.4096l0.14336-50.74944c1.00352-0.1024 1.98656-0.22528 2.94912-0.4096M517.55008 834.94912l-0.14336 50.74944a35.0208 35.0208 0 0 1-2.56 0.16384l0.14336-50.74944a35.0208 35.0208 0 0 0 2.56-0.16384" fill="#EAF4FE" p-id="4154"></path><path d="M515.01056 835.11296l-0.14336 50.74944-2.3552 0.02048 0.14336-50.74944c0.77824 0.02048 1.55648 0.02048 2.3552-0.02048" fill="#CBE4FE" p-id="4155"></path><path d="M512.65536 835.13344l-0.14336 50.74944a42.25024 42.25024 0 0 1-2.27328-0.12288l0.14336-50.74944 2.27328 0.12288" fill="#CBE4FE" p-id="4156"></path><path d="M510.38208 835.01056l-0.14336 50.74944a39.13728 39.13728 0 0 1-2.23232-0.24576l0.14336-50.74944c0.73728 0.1024 1.47456 0.18432 2.23232 0.24576" fill="#CBE4FE" p-id="4157"></path><path d="M508.14976 834.7648l-0.14336 50.74944a37.49888 37.49888 0 0 1-2.27328-0.38912l0.14336-50.74944 2.27328 0.38912M505.87648 834.3552l-0.14336 50.74944a29.24544 29.24544 0 0 1-2.39616-0.59392l0.14336-50.74944c0.77824 0.24576 1.57696 0.43008 2.39616 0.59392" fill="#CBE4FE" p-id="4158"></path><path d="M503.48032 833.78176l-0.14336 50.74944a29.63456 29.63456 0 0 1-2.78528-0.94208l0.14336-50.74944c0.88064 0.34816 1.82272 0.65536 2.78528 0.94208M500.67456 832.83968l-0.14336 50.74944a24.80128 24.80128 0 0 1-3.31776-1.59744l0.14336-50.74944c1.04448 0.59392 2.1504 1.1264 3.31776 1.59744" fill="#CBE4FE" p-id="4159"></path><path d="M732.73344 484.63872c8.3968 4.85376 8.43776 12.8 0.1024 17.65376l-208.15872 125.3376c-8.33536 4.85376-22.07744 4.85376-30.47424 0l-196.9152-113.68448c-8.3968-4.85376-8.43776-12.8-0.1024-17.65376l204.32896-126.11584c8.33536-4.85376 22.07744-4.85376 30.47424 0l200.74496 114.46272z" fill="#7DBEFE" p-id="4160"></path><path d="M764.5184 69.46816L689.21344 18.8416c0.83968-0.43008 1.65888-0.8192 2.4576-1.16736l75.30496 50.62656a24.1664 24.1664 0 0 0-2.4576 1.16736M766.976 68.28032L691.67104 17.65376c1.47456-0.63488 2.90816-1.10592 4.3008-1.45408l75.30496 50.62656a30.43328 30.43328 0 0 0-4.3008 1.45408" fill="#80BFFF" p-id="4161"></path><path d="M771.2768 66.82624L695.97184 16.19968c0.9216-0.22528 1.8432-0.4096 2.72384-0.512l75.30496 50.62656a19.23072 19.23072 0 0 0-2.72384 0.512M774.00064 66.29376L698.69568 15.6672a20.09088 20.09088 0 0 1 2.19136-0.16384L776.192 66.12992a27.648 27.648 0 0 0-2.19136 0.16384M776.21248 66.12992L700.90752 15.50336a14.99136 14.99136 0 0 1 1.92512 0.06144l75.30496 50.62656a30.208 30.208 0 0 0-1.92512-0.06144" fill="#80BFFF" p-id="4162"></path><path d="M778.11712 66.19136L702.81216 15.5648a16.1792 16.1792 0 0 1 1.7408 0.22528l75.30496 50.62656a23.7568 23.7568 0 0 0-1.7408-0.22528" fill="#80BFFF" p-id="4163"></path><path d="M779.85792 66.43712L704.55296 15.81056a13.0048 13.0048 0 0 1 1.59744 0.38912l75.30496 50.62656a13.96736 13.96736 0 0 0-1.59744-0.38912" fill="#80BFFF" p-id="4164"></path><path d="M781.45536 66.82624L706.1504 16.19968a13.312 13.312 0 0 1 1.51552 0.53248l75.30496 50.62656a13.312 13.312 0 0 0-1.51552-0.53248M782.97088 67.35872L707.66592 16.73216c0.49152 0.2048 0.96256 0.43008 1.4336 0.69632l75.30496 50.62656a13.18912 13.18912 0 0 0-1.4336-0.69632M784.40448 68.03456L709.09952 17.408c0.38912 0.2048 0.75776 0.43008 1.1264 0.67584l75.30496 50.62656-1.1264-0.67584" fill="#80BFFF" p-id="4165"></path><path d="M380.23168 625.33632l-75.30496-50.62656c-4.97664-3.35872-8.02816-9.8304-8.02816-18.71872l75.30496 50.62656c-0.02048 8.88832 3.03104 15.36 8.02816 18.71872" fill="#A2D0FF" p-id="4166"></path><path d="M583.18848 164.352l-75.30496-50.62656L689.21344 18.8416l75.30496 50.62656z" fill="#80BFFF" p-id="4167"></path><path d="M554.16832 110.8992l-75.30496-50.62656a38.7072 38.7072 0 0 1 2.47808-1.18784l75.30496 50.62656c-0.8192 0.34816-1.6384 0.73728-2.47808 1.18784" fill="#80BFFF" p-id="4168"></path><path d="M556.6464 109.71136l-75.30496-50.62656c1.47456-0.63488 2.92864-1.1264 4.32128-1.47456l75.30496 50.62656a30.84288 30.84288 0 0 0-4.32128 1.47456" fill="#80BFFF" p-id="4169"></path><path d="M560.96768 108.2368l-75.30496-50.62656c0.9216-0.22528 1.8432-0.4096 2.72384-0.512l75.30496 50.62656a28.672 28.672 0 0 0-2.72384 0.512M563.712 107.7248l-75.30496-50.62656a20.48 20.48 0 0 1 2.21184-0.16384l75.30496 50.62656a20.0704 20.0704 0 0 0-2.21184 0.16384" fill="#80BFFF" p-id="4170"></path><path d="M565.90336 107.56096L490.5984 56.9344a14.99136 14.99136 0 0 1 1.92512 0.06144l75.30496 50.62656a14.99136 14.99136 0 0 0-1.92512-0.06144" fill="#80BFFF" p-id="4171"></path><path d="M567.82848 107.6224l-75.30496-50.62656a16.1792 16.1792 0 0 1 1.7408 0.22528l75.30496 50.62656a16.1792 16.1792 0 0 0-1.7408-0.22528" fill="#80BFFF" p-id="4172"></path><path d="M569.56928 107.84768l-75.30496-50.62656a13.0048 13.0048 0 0 1 1.59744 0.38912l75.30496 50.62656a15.11424 15.11424 0 0 0-1.59744-0.38912" fill="#80BFFF" p-id="4173"></path><path d="M571.16672 108.2368l-75.30496-50.62656c0.512 0.16384 1.024 0.32768 1.51552 0.53248l75.30496 50.62656a18.944 18.944 0 0 0-1.51552-0.53248" fill="#80BFFF" p-id="4174"></path><path d="M572.68224 108.76928l-75.30496-50.62656c0.49152 0.2048 0.96256 0.43008 1.4336 0.69632l75.30496 50.62656a13.18912 13.18912 0 0 0-1.4336-0.69632" fill="#80BFFF" p-id="4175"></path><path d="M574.11584 109.4656l-75.30496-50.62656c0.38912 0.2048 0.75776 0.43008 1.1264 0.67584l75.30496 50.62656a16.384 16.384 0 0 0-1.1264-0.67584" fill="#80BFFF" p-id="4176"></path><path d="M372.20352 606.59712l-75.30496-50.62656 0.53248-332.10368 75.30496 50.62656z" fill="#A2D0FF" p-id="4177"></path><path d="M372.736 274.49344l-75.30496-50.62656 0.06144-35.47136 75.30496 50.62656z" fill="#A2D0FF" p-id="4178"></path><path d="M401.98144 190.54592l-75.30496-50.62656 152.18688-79.64672 75.30496 50.62656z" fill="#80BFFF" p-id="4179"></path><path d="M554.16832 110.8992c16.09728-8.43776 29.12256-0.36864 29.0816 17.98144l-0.06144 35.47136 181.30944-94.88384c16.05632-8.3968 29.06112-0.34816 29.04064 18.00192l-0.49152 298.88512c-0.02048 18.35008-13.08672 40.05888-29.14304 48.45568l-362.63936 189.78816c-16.09728 8.41728-29.12256 0.36864-29.0816-17.98144l0.55296-332.12416 0.06144-35.47136c0.02048-18.35008 13.08672-40.05888 29.184-48.47616l152.18688-79.64672z" fill="#4CA7FF" p-id="4180"></path><path d="M372.79744 239.02208l-75.30496-50.62656c0-2.58048 0.26624-5.24288 0.75776-7.90528l75.30496 50.62656c-0.49152 2.6624-0.75776 5.3248-0.75776 7.90528" fill="#A2D0FF" p-id="4181"></path><path d="M373.5552 231.1168l-75.30496-50.62656c0.26624-1.41312 0.57344-2.80576 0.96256-4.21888l75.30496 50.62656a50.21696 50.21696 0 0 0-0.96256 4.21888M374.51776 226.89792L299.2128 176.27136c0.3072-1.1264 0.65536-2.2528 1.024-3.3792l75.30496 50.62656c-0.36864 1.1264-0.7168 2.2528-1.024 3.3792" fill="#A2D0FF" p-id="4182"></path><path d="M375.54176 223.51872L300.2368 172.89216c0.32768-0.98304 0.69632-1.96608 1.08544-2.94912l75.30496 50.62656a98.65216 98.65216 0 0 0-1.08544 2.94912M376.64768 220.54912l-75.30496-50.62656c0.36864-0.90112 0.73728-1.80224 1.14688-2.68288l75.30496 50.62656c-0.4096 0.90112-0.79872 1.78176-1.14688 2.68288M377.79456 217.86624L302.4896 167.23968c0.38912-0.83968 0.77824-1.67936 1.20832-2.51904l75.30496 50.62656a46.98112 46.98112 0 0 0-1.20832 2.51904" fill="#80BFFF" p-id="4183"></path><path d="M378.9824 215.3472l-75.30496-50.62656c0.4096-0.79872 0.8192-1.59744 1.26976-2.37568l75.30496 50.62656a87.26528 87.26528 0 0 0-1.26976 2.37568M380.25216 212.97152L304.9472 162.34496l1.3312-2.29376 75.30496 50.62656a83.7632 83.7632 0 0 0-1.3312 2.29376M381.60384 210.67776l-75.30496-50.62656c0.45056-0.75776 0.94208-1.49504 1.41312-2.23232l75.30496 50.62656a51.07712 51.07712 0 0 0-1.41312 2.23232M383.01696 208.44544l-75.30496-50.62656 1.51552-2.19136 75.30496 50.62656-1.51552 2.19136" fill="#80BFFF" p-id="4184"></path><path d="M384.53248 206.25408l-75.30496-50.62656 1.65888-2.19136 75.30496 50.62656-1.65888 2.19136" fill="#80BFFF" p-id="4185"></path><path d="M386.21184 204.0832l-75.30496-50.62656c0.59392-0.75776 1.2288-1.49504 1.8432-2.21184l75.30496 50.62656a39.03488 39.03488 0 0 0-1.8432 2.21184M388.05504 201.85088l-75.30496-50.62656c0.69632-0.79872 1.41312-1.57696 2.12992-2.31424l75.30496 50.62656c-0.7168 0.73728-1.4336 1.51552-2.12992 2.31424M390.20544 199.53664l-75.30496-50.62656c0.86016-0.88064 1.7408-1.72032 2.64192-2.53952l75.30496 50.62656a51.2 51.2 0 0 0-2.64192 2.53952" fill="#80BFFF" p-id="4186"></path><path d="M392.82688 196.99712l-75.30496-50.62656c1.37216-1.24928 2.80576-2.39616 4.25984-3.44064l75.30496 50.62656c-1.4336 1.04448-2.8672 2.19136-4.25984 3.44064M397.1072 193.55648l-75.30496-50.62656c1.57696-1.1264 3.21536-2.1504 4.87424-3.01056l75.30496 50.62656a40.63232 40.63232 0 0 0-4.87424 3.01056" fill="#80BFFF" p-id="4187"></path><path d="M749.42464 247.15264L455.4752 400.67072a12.94336 12.94336 0 0 1-17.408-5.46816 12.94336 12.94336 0 0 1 5.46816-17.408l293.92896-153.51808a12.92288 12.92288 0 0 1 11.96032 22.87616z" fill="#FFFFFF" p-id="4188"></path><path d="M460.5952 368.82432s27.83232-97.11616 47.47264-112.37376 144.91648 18.5344 144.91648 18.5344l-192.38912 93.83936z" fill="#FFFFFF" p-id="4189"></path></svg>