<?xml version="1.0" standalone="no"?><!DOCTYPE svg PUBLIC "-//W3C//DTD SVG 1.1//EN" "http://www.w3.org/Graphics/SVG/1.1/DTD/svg11.dtd"><svg t="1655221602028" class="icon" viewBox="0 0 1024 1024" version="1.1" xmlns="http://www.w3.org/2000/svg" p-id="3065" xmlns:xlink="http://www.w3.org/1999/xlink" width="200" height="200"><defs><style type="text/css">@font-face { font-family: feedback-iconfont; src: url("//at.alicdn.com/t/font_1031158_u69w8yhxdu.woff2?t=1630033759944") format("woff2"), url("//at.alicdn.com/t/font_1031158_u69w8yhxdu.woff?t=1630033759944") format("woff"), url("//at.alicdn.com/t/font_1031158_u69w8yhxdu.ttf?t=1630033759944") format("truetype"); }
</style></defs><path d="M893.52192 909.55776L324.8128 965.40672l-192.04096-167.58784 568.70912-55.84896z" fill="#F9EFF6" p-id="3066"></path><path d="M2.29376 626.81088l0.04096-47.34976c0 1.31072 0.7168 2.62144 2.21184 3.93216L4.5056 630.74304c-1.49504-1.31072-2.21184-2.62144-2.21184-3.93216" fill="#F7CDEF" p-id="3067"></path><path d="M995.57376 776.31488l0.04096-47.34976c2.6624-0.26624 5.18144-0.59392 7.51616-0.98304l-0.04096 47.34976a118.39488 118.39488 0 0 1-7.51616 0.98304" fill="#F9EAF6" p-id="3068"></path><path d="M1003.08992 775.33184l0.04096-47.34976a78.2336 78.2336 0 0 0 5.30432-1.06496l-0.04096 47.34976a96.99328 96.99328 0 0 1-5.30432 1.06496" fill="#F9EAF6" p-id="3069"></path><path d="M1008.37376 774.26688l0.04096-47.34976a82.7392 82.7392 0 0 0 3.44064-0.90112l-0.04096 47.34976c-1.06496 0.3072-2.23232 0.6144-3.44064 0.90112" fill="#F9EAF6" p-id="3070"></path><path d="M1011.8144 773.34528l0.04096-47.34976 2.47808-0.79872-0.04096 47.34976a32.09216 32.09216 0 0 1-2.47808 0.79872M1014.31296 772.54656l0.04096-47.34976 1.92512-0.73728-0.04096 47.34976c-0.6144 0.26624-1.26976 0.512-1.92512 0.73728" fill="#F9EAF6" p-id="3071"></path><path d="M1016.2176 771.80928l0.04096-47.34976a22.1184 22.1184 0 0 0 1.55648-0.69632l-0.04096 47.34976a18.57536 18.57536 0 0 1-1.55648 0.69632M1017.79456 771.11296l0.04096-47.34976 1.31072-0.67584-0.04096 47.34976a15.83104 15.83104 0 0 1-1.31072 0.67584M1019.10528 770.4576l0.04096-47.34976a26.2144 26.2144 0 0 0 1.10592-0.67584l-0.04096 47.34976a26.2144 26.2144 0 0 1-1.10592 0.67584" fill="#F9EAF6" p-id="3072"></path><path d="M1020.2112 769.78176l0.04096-47.34976a12.4928 12.4928 0 0 0 0.94208-0.65536l-0.04096 47.34976c-0.28672 0.22528-0.6144 0.43008-0.94208 0.65536" fill="#F9EAF6" p-id="3073"></path><path d="M1021.15328 769.1264l0.04096-47.34976a13.78304 13.78304 0 0 0 0.79872-0.67584l-0.04096 47.34976a13.78304 13.78304 0 0 1-0.79872 0.67584" fill="#F9EAF6" p-id="3074"></path><path d="M1021.952 768.45056l0.04096-47.34976a6.69696 6.69696 0 0 0 0.65536-0.67584l-0.04096 47.34976a6.69696 6.69696 0 0 1-0.65536 0.67584M1022.62784 767.77472l0.04096-47.34976a4.1984 4.1984 0 0 0 0.53248-0.69632l-0.04096 47.34976a5.69344 5.69344 0 0 1-0.53248 0.69632" fill="#F9EAF6" p-id="3075"></path><path d="M1023.16032 767.0784l0.04096-47.34976a6.38976 6.38976 0 0 0 0.4096-0.7168l-0.04096 47.34976c-0.12288 0.24576-0.24576 0.49152-0.4096 0.7168" fill="#F9EAF6" p-id="3076"></path><path d="M1023.56992 766.3616l0.04096-47.34976a3.56352 3.56352 0 0 0 0.26624-0.73728l-0.04096 47.34976a5.3248 5.3248 0 0 1-0.26624 0.73728" fill="#F9EAF6" p-id="3077"></path><path d="M1023.83616 765.62432l0.04096-47.34976a5.38624 5.38624 0 0 0 0.12288-0.79872l-0.04096 47.34976a5.38624 5.38624 0 0 1-0.12288 0.79872" fill="#F9EAF6" p-id="3078"></path><path d="M1023.95904 764.8256L1024 717.47584v-0.12288l-0.04096 47.37024v0.1024" fill="#F9EAF6" p-id="3079"></path><path d="M4.5056 630.74304l0.04096-47.34976 236.83072 206.68416-0.04096 47.34976z" fill="#F7CDEF" p-id="3080"></path><path d="M294.21568 845.2096l0.06144-47.37024 701.3376-68.87424-0.04096 47.34976z" fill="#F9EAF6" p-id="3081"></path><path d="M241.33632 837.4272l0.04096-47.34976c1.86368 1.61792 4.75136 3.05152 8.37632 4.25984l-0.04096 47.34976a25.21088 25.21088 0 0 1-8.37632-4.25984M249.73312 841.68704l0.04096-47.34976c0.94208 0.3072 1.9456 0.6144 2.99008 0.90112l-0.04096 47.34976a43.52 43.52 0 0 1-2.99008-0.90112" fill="#F9EAF6" p-id="3082"></path><path d="M252.70272 842.58816l0.04096-47.34976 2.62144 0.65536-0.04096 47.34976-2.62144-0.65536M255.34464 843.24352l0.04096-47.34976 2.43712 0.512-0.04096 47.34976-2.43712-0.512M257.78176 843.75552l0.04096-47.34976 2.33472 0.43008-0.04096 47.34976a253.1328 253.1328 0 0 1-2.33472-0.43008M260.11648 844.1856l0.04096-47.34976 2.29376 0.36864-0.04096 47.34976a553.5744 553.5744 0 0 1-2.29376-0.36864M262.41024 844.55424l0.04096-47.34976 2.2528 0.3072-0.04096 47.34976-2.2528-0.3072" fill="#F9EAF6" p-id="3083"></path><path d="M264.66304 844.84096l0.04096-47.34976 2.2528 0.26624-0.04096 47.34976a68.1984 68.1984 0 0 1-2.2528-0.26624" fill="#F9EAF6" p-id="3084"></path><path d="M266.89536 845.1072l0.04096-47.34976 2.2528 0.22528-0.04096 47.34976-2.2528-0.22528M269.14816 845.33248l0.04096-47.34976 2.27328 0.18432-0.04096 47.34976-2.27328-0.18432" fill="#F9EAF6" p-id="3085"></path><path d="M271.42144 845.49632l0.04096-47.34976 2.2528 0.14336-0.04096 47.34976a83.10784 83.10784 0 0 1-2.2528-0.14336M273.69472 845.63968l0.04096-47.34976 2.2528 0.1024-0.04096 47.34976a79.2576 79.2576 0 0 1-2.2528-0.1024M275.94752 845.74208l0.04096-47.34976 2.2528 0.06144-0.04096 47.34976-2.2528-0.06144M278.20032 845.80352l0.04096-47.34976 2.23232 0.02048-0.04096 47.34976-2.23232-0.02048" fill="#F9EAF6" p-id="3086"></path><path d="M280.43264 845.824l0.04096-47.34976h2.29376l-0.04096 47.34976h-2.29376" fill="#F9EAF6" p-id="3087"></path><path d="M282.7264 845.824l0.04096-47.34976 2.39616-0.04096-0.04096 47.34976a91.91424 91.91424 0 0 1-2.39616 0.04096M285.14304 845.78304l0.04096-47.34976 2.6624-0.1024-0.04096 47.34976-2.6624 0.1024" fill="#F9EAF6" p-id="3088"></path><path d="M287.80544 845.66016l0.04096-47.34976a129.2288 129.2288 0 0 0 3.97312-0.24576l-0.04096 47.34976a129.2288 129.2288 0 0 1-3.97312 0.24576" fill="#F9EAF6" p-id="3089"></path><path d="M291.77856 845.4144l0.04096-47.34976 2.4576-0.22528-0.04096 47.34976a99.5328 99.5328 0 0 1-2.4576 0.22528" fill="#F9EAF6" p-id="3090"></path><path d="M995.61472 728.96512l-701.3376 68.89472c-21.85216 2.1504-45.50656-1.3312-52.87936-7.76192L4.54656 583.39328c-7.3728-6.43072 4.34176-13.39392 26.17344-15.52384l701.3376-68.89472c21.8112-2.1504 45.50656 1.3312 52.87936 7.76192l236.83072 206.68416c7.41376 6.4512-4.34176 13.39392-26.15296 15.54432z" fill="#F7DFF1" p-id="3091"></path><path d="M789.56544 674.57024l-424.73472 41.71776-143.42144-125.17376 424.73472-41.71776z" fill="#F980E0" p-id="3092"></path><path d="M627.24096 611.96288l-47.5136-25.84576c-10.0352-5.44768-16.71168-16.97792-16.6912-31.21152l47.5136 25.84576c-0.02048 14.25408 6.67648 25.76384 16.6912 31.21152" fill="#FFC0E9" p-id="3093"></path><path d="M610.54976 580.75136l-47.5136-25.84576 0.16384-86.30272 47.5136 25.84576z" fill="#FFC0E9" p-id="3094"></path><path d="M687.616 316.47744l-47.5136-25.84576a17.6128 17.6128 0 0 1 1.08544 0.512l47.5136 25.84576a25.92768 25.92768 0 0 0-1.08544-0.512" fill="#FFC0E9" p-id="3095"></path><path d="M688.70144 316.98944l-47.5136-25.84576 1.04448 0.53248 47.5136 25.84576a25.10848 25.10848 0 0 0-1.04448-0.53248" fill="#FFC0E9" p-id="3096"></path><path d="M610.7136 494.44864l-47.5136-25.84576c0.02048-9.09312-4.23936-16.44544-10.6496-19.92704l47.5136 25.84576c6.38976 3.4816 10.67008 10.83392 10.6496 19.92704" fill="#FFC0E9" p-id="3097"></path><path d="M453.07904 463.01184l-47.5136-25.84576a18.04288 18.04288 0 0 0 5.05856-1.51552l47.5136 25.84576a17.408 17.408 0 0 1-5.05856 1.51552" fill="#FFC0E9" p-id="3098"></path><path d="M458.1376 461.49632l-47.5136-25.84576c0.98304-0.47104 1.9456-1.024 2.84672-1.6384l47.5136 25.84576a17.1008 17.1008 0 0 1-2.84672 1.6384M461.0048 459.85792l-47.5136-25.84576a19.0464 19.0464 0 0 0 2.17088-1.72032l47.5136 25.84576c-0.69632 0.6144-1.4336 1.18784-2.17088 1.72032" fill="#FFC0E9" p-id="3099"></path><path d="M463.17568 458.1376l-47.5136-25.84576a23.1424 23.1424 0 0 0 1.86368-1.88416l47.5136 25.84576c-0.59392 0.67584-1.2288 1.29024-1.86368 1.88416" fill="#FFC0E9" p-id="3100"></path><path d="M465.01888 456.25344l-47.5136-25.84576c0.59392-0.67584 1.14688-1.37216 1.65888-2.10944l47.5136 25.84576a20.8896 20.8896 0 0 1-1.65888 2.10944M466.69824 454.144l-47.5136-25.84576c0.55296-0.79872 1.08544-1.6384 1.55648-2.51904l47.5136 25.84576a30.67904 30.67904 0 0 1-1.55648 2.51904" fill="#FFC0E9" p-id="3101"></path><path d="M468.23424 451.62496l-47.5136-25.84576c0.55296-1.04448 1.04448-2.12992 1.45408-3.23584l47.5136 25.84576c-0.4096 1.1264-0.90112 2.21184-1.45408 3.23584" fill="#FFC0E9" p-id="3102"></path><path d="M469.68832 448.38912l-47.5136-25.84576a24.576 24.576 0 0 0 1.51552-8.3968l47.5136 25.84576c0 2.90816-0.53248 5.75488-1.51552 8.3968" fill="#FFC0E9" p-id="3103"></path><path d="M471.20384 439.99232l-47.5136-25.84576 0.06144-33.32096 47.5136 25.84576z" fill="#FFC0E9" p-id="3104"></path><path d="M544.13312 253.27616l-47.5136-25.84576 143.48288 63.20128 47.5136 25.84576z" fill="#FFC0E9" p-id="3105"></path><path d="M423.60832 467.16928l-47.5136-25.84576 29.47072-4.15744 47.5136 25.84576z" fill="#FFC0E9" p-id="3106"></path><path d="M471.26528 406.67136l-47.5136-25.84576c0.02048-7.43424-3.4816-13.47584-8.72448-16.32256l47.5136 25.84576c5.24288 2.8672 8.74496 8.88832 8.72448 16.32256" fill="#FFC0E9" p-id="3107"></path><path d="M414.26944 465.53088l-47.5136-25.84576 0.55296 0.28672 47.5136 25.84576a7.10656 7.10656 0 0 1-0.55296-0.28672" fill="#FFC0E9" p-id="3108"></path><path d="M414.8224 465.8176l-47.5136-25.84576a14.62272 14.62272 0 0 0 2.78528 1.024l47.5136 25.84576a14.1312 14.1312 0 0 1-2.78528-1.024" fill="#FFC0E9" p-id="3109"></path><path d="M417.60768 466.86208l-47.5136-25.84576c1.88416 0.49152 3.8912 0.6144 6.00064 0.3072l47.5136 25.84576a15.7696 15.7696 0 0 1-6.00064-0.3072" fill="#FFC0E9" p-id="3110"></path><path d="M338.944 652.4928l-47.5136-25.84576c-10.0352-5.44768-16.71168-16.97792-16.6912-31.21152l47.5136 25.84576c-0.02048 14.2336 6.656 25.74336 16.6912 31.21152" fill="#FFC0E9" p-id="3111"></path><path d="M485.376 261.5296l-47.5136-25.84576 1.14688-0.8192 47.5136 25.84576-1.14688 0.8192" fill="#FFC0E9" p-id="3112"></path><path d="M486.52288 260.7104l-47.5136-25.84576c3.2768-2.27328 6.67648-4.21888 10.1376-5.85728l47.5136 25.84576c-3.46112 1.6384-6.84032 3.584-10.1376 5.85728" fill="#FFC0E9" p-id="3113"></path><path d="M496.66048 254.85312l-47.5136-25.84576c5.89824-2.78528 12.00128-4.62848 18.10432-5.46816 7.2704-1.024 14.52032-0.65536 21.46304 1.14688l47.5136 25.84576a54.76352 54.76352 0 0 0-21.46304-1.14688 63.01696 63.01696 0 0 0-18.10432 5.46816" fill="#FFC0E9" p-id="3114"></path><path d="M536.20736 250.53184l-47.5136-25.84576c2.68288 0.69632 5.34528 1.61792 7.90528 2.74432l47.5136 25.84576a51.56864 51.56864 0 0 0-7.90528-2.74432" fill="#FFC0E9" p-id="3115"></path><path d="M322.27328 621.2608l-47.53408-25.84576 0.4096-218.624 47.5136 25.84576z" fill="#FFC0E9" p-id="3116"></path><path d="M341.54496 365.11744l-47.5136-25.84576 143.83104-103.58784 47.5136 25.84576z" fill="#FFC0E9" p-id="3117"></path><path d="M687.616 316.47744c11.53024 5.07904 18.80064 17.5104 18.78016 32.23552l-0.4096 218.624c-0.04096 21.66784-15.60576 41.39008-34.73408 44.07296l-26.13248 3.66592c-19.12832 2.68288-34.6112-12.67712-34.57024-34.32448l0.16384-86.30272c0.02048-13.824-9.87136-23.63392-22.09792-21.9136l-17.46944 2.4576c-12.22656 1.72032-22.17984 14.31552-22.20032 28.13952l-0.16384 86.30272c-0.04096 21.66784-15.58528 41.39008-34.7136 44.07296l-157.20448 22.09792c-19.1488 2.68288-34.6112-12.67712-34.57024-34.32448l0.4096-218.624c0.02048-14.72512 7.31136-29.20448 18.88256-37.51936L485.376 261.5296c9.216-6.63552 19.31264-10.73152 29.3888-12.14464a53.90336 53.90336 0 0 1 29.36832 3.8912l143.48288 63.20128z m-216.41216 123.51488l0.06144-33.32096c0.02048-11.30496-8.06912-19.3536-18.04288-17.94048l-29.47072 4.13696c-9.99424 1.41312-18.10432 11.73504-18.1248 23.01952l-0.06144 33.32096c-0.02048 11.32544 8.06912 19.3536 18.04288 17.94048l29.47072-4.13696c9.99424-1.39264 18.10432-11.69408 18.1248-23.01952" fill="#FF64CB" p-id="3118"></path><path d="M322.6624 402.6368l-47.5136-25.84576c0-5.48864 1.024-10.9568 2.90816-16.0768l47.5136 25.84576c-1.86368 5.12-2.88768 10.58816-2.90816 16.0768M325.59104 386.56l-47.5136-25.84576c0.77824-2.1504 1.72032-4.23936 2.80576-6.22592l47.5136 25.84576a44.81024 44.81024 0 0 0-2.80576 6.22592M328.37632 380.3136l-47.5136-25.84576c0.88064-1.65888 1.86368-3.25632 2.94912-4.77184l47.5136 25.84576c-1.06496 1.536-2.048 3.13344-2.94912 4.77184M331.32544 375.54176l-47.5136-25.84576c0.98304-1.39264 2.048-2.74432 3.1744-4.01408l47.5136 25.84576a46.30528 46.30528 0 0 0-3.1744 4.01408" fill="#FFC0E9" p-id="3119"></path><path d="M334.49984 371.52768l-47.5136-25.84576c1.10592-1.24928 2.29376-2.43712 3.52256-3.56352l47.5136 25.84576a41.30816 41.30816 0 0 0-3.52256 3.56352" fill="#FFC0E9" p-id="3120"></path><path d="M338.0224 367.96416l-47.5136-25.84576a41.984 41.984 0 0 1 3.52256-2.84672l47.5136 25.84576c-1.2288 0.88064-2.39616 1.8432-3.52256 2.84672" fill="#FFC0E9" p-id="3121"></path><path d="M802.32448 243.24096l-47.5136-25.84576a2.90816 2.90816 0 0 0 0.36864 0.16384l47.5136 25.84576a2.90816 2.90816 0 0 1-0.36864-0.16384" fill="#FFC0E9" p-id="3122"></path><path d="M802.69312 243.42528l-47.5136-25.84576 0.75776 0.38912 47.5136 25.84576-0.75776-0.38912" fill="#FFC0E9" p-id="3123"></path><path d="M723.61984 206.4384l-47.5136-25.84576 78.70464 36.80256 47.5136 25.84576z" fill="#FFC0E9" p-id="3124"></path><path d="M699.12576 78.336l-47.5136-25.84576c3.01056-0.43008 5.89824-0.24576 8.56064 0.43008l47.5136 25.84576a22.44608 22.44608 0 0 0-8.56064-0.43008" fill="#FFC0E9" p-id="3125"></path><path d="M707.66592 78.76608l-47.5136-25.84576c1.37216 0.34816 2.6624 0.83968 3.91168 1.45408l47.5136 25.84576a20.76672 20.76672 0 0 0-3.91168-1.45408" fill="#FFC0E9" p-id="3126"></path><path d="M711.5776 80.22016l-47.5136-25.84576 0.75776 0.38912 47.5136 25.84576a8.78592 8.78592 0 0 0-0.75776-0.38912" fill="#FFC0E9" p-id="3127"></path><path d="M674.2016 183.31648l-47.53408-25.84576 0.14336-74.79296 47.5136 25.84576z" fill="#FFC0E9" p-id="3128"></path><path d="M674.32448 108.52352l-47.5136-25.84576c0-3.62496 0.67584-7.18848 1.90464-10.50624l47.5136 25.84576a31.29344 31.29344 0 0 0-1.90464 10.50624M676.22912 98.01728l-47.5136-25.84576c0.53248-1.4336 1.14688-2.82624 1.88416-4.15744l47.5136 25.84576a31.80544 31.80544 0 0 0-1.88416 4.15744M678.11328 93.83936l-47.5136-25.84576c0.6144-1.1264 1.29024-2.23232 2.00704-3.2768l47.5136 25.84576a41.24672 41.24672 0 0 0-2.00704 3.2768" fill="#FFC0E9" p-id="3129"></path><path d="M680.12032 90.58304l-47.5136-25.84576c0.69632-0.98304 1.4336-1.92512 2.23232-2.82624l47.5136 25.84576a27.648 27.648 0 0 0-2.23232 2.82624" fill="#FFC0E9" p-id="3130"></path><path d="M682.35264 87.7568l-47.5136-25.84576c0.79872-0.90112 1.6384-1.76128 2.51904-2.56l47.5136 25.84576a33.05472 33.05472 0 0 0-2.51904 2.56M684.87168 85.1968l-47.5136-25.84576c0.94208-0.86016 1.9456-1.6384 2.99008-2.37568l47.5136 25.84576c-1.024 0.73728-2.02752 1.51552-2.99008 2.37568" fill="#FFC0E9" p-id="3131"></path><path d="M687.86176 82.8416l-47.5136-25.84576c1.26976-0.88064 2.62144-1.65888 4.01408-2.31424l47.5136 25.84576a26.39872 26.39872 0 0 0-4.01408 2.31424M691.89632 80.50688l-47.5136-25.84576c2.29376-1.06496 4.7104-1.82272 7.22944-2.17088l47.5136 25.84576a25.23136 25.23136 0 0 0-7.22944 2.17088" fill="#FFC0E9" p-id="3132"></path><path d="M519.3728 110.8992l-47.5136-25.84576 154.80832 72.41728 47.53408 25.84576z" fill="#FFC0E9" p-id="3133"></path><path d="M494.10048 114.44224l-47.5136-25.84576a13.74208 13.74208 0 0 1 0.88064-0.63488l47.5136 25.84576a84.70528 84.70528 0 0 1-0.88064 0.63488" fill="#FFC0E9" p-id="3134"></path><path d="M494.98112 113.82784l-47.5136-25.84576c1.29024-0.88064 2.62144-1.65888 3.97312-2.29376l47.5136 25.84576a24.94464 24.94464 0 0 0-3.97312 2.29376M498.95424 111.5136l-47.5136-25.84576c2.3552-1.10592 4.79232-1.8432 7.29088-2.19136 3.72736-0.53248 6.90176-0.38912 9.74848 0.34816l47.5136 25.84576a24.53504 24.53504 0 0 0-9.74848-0.34816 25.51808 25.51808 0 0 0-7.29088 2.19136" fill="#FFC0E9" p-id="3135"></path><path d="M515.9936 109.6704l-47.5136-25.84576a18.98496 18.98496 0 0 1 3.3792 1.2288l47.5136 25.84576a19.59936 19.59936 0 0 0-3.3792-1.2288" fill="#FFC0E9" p-id="3136"></path><path d="M210.49344 326.43072l-47.5136-25.86624 283.60704-211.968 47.5136 25.84576z" fill="#FFC0E9" p-id="3137"></path><path d="M209.32608 372.38784l-47.5136-25.84576a21.0944 21.0944 0 0 1-8.2944-8.2944c-3.87072-6.88128-4.07552-15.44192-1.24928-23.1424l47.5136 25.84576c-2.82624 7.72096-2.62144 16.26112 1.24928 23.1424 2.06848 3.6864 4.95616 6.49216 8.2944 8.2944M199.7824 340.95104l-47.5136-25.84576c0.53248-1.4336 1.14688-2.82624 1.88416-4.1984l47.5136 25.84576a29.57312 29.57312 0 0 0-1.88416 4.1984" fill="#FFC0E9" p-id="3138"></path><path d="M201.64608 336.75264l-47.5136-25.84576c0.59392-1.1264 1.26976-2.21184 2.00704-3.25632l47.5136 25.84576a33.0752 33.0752 0 0 0-2.00704 3.25632M203.65312 333.49632l-47.5136-25.84576a31.9488 31.9488 0 0 1 2.19136-2.78528l47.5136 25.84576a35.36896 35.36896 0 0 0-2.19136 2.78528M205.86496 330.71104l-47.5136-25.84576c0.77824-0.88064 1.61792-1.7408 2.49856-2.53952l47.5136 25.84576a32.4608 32.4608 0 0 0-2.49856 2.53952" fill="#FFC0E9" p-id="3139"></path><path d="M208.36352 328.17152l-47.5136-25.84576c0.67584-0.6144 1.39264-1.20832 2.1504-1.76128l47.5136 25.84576a30.8224 30.8224 0 0 0-2.1504 1.76128" fill="#FFC0E9" p-id="3140"></path><path d="M699.12576 78.336c13.66016-1.92512 24.71936 8.47872 24.69888 23.22432l-0.2048 104.87808 78.70464 36.80256c11.89888 5.57056 16.09728 21.25824 9.35936 35.0208-4.56704 9.35936-12.96384 15.44192-21.6064 16.65024a21.2992 21.2992 0 0 1-12.10368-1.72032L506.63424 166.2976l-271.95392 203.24352c-3.85024 2.8672-8.00768 4.56704-12.10368 5.14048a20.84864 20.84864 0 0 1-21.54496-10.58816c-6.67648-11.8784-2.4576-28.75392 9.48224-37.66272l283.58656-211.968c3.70688-2.7648 7.8848-4.52608 12.14464-5.12 5.26336-0.73728 9.44128-0.16384 13.12768 1.57696l154.8288 72.41728 0.14336-74.79296c0.02048-14.76608 11.12064-28.28288 24.7808-30.208z" fill="#FF64CB" p-id="3141"></path></svg>