<?xml version="1.0" standalone="no"?><!DOCTYPE svg PUBLIC "-//W3C//DTD SVG 1.1//EN" "http://www.w3.org/Graphics/SVG/1.1/DTD/svg11.dtd"><svg t="1655221620930" class="icon" viewBox="0 0 1024 1024" version="1.1" xmlns="http://www.w3.org/2000/svg" p-id="3894" xmlns:xlink="http://www.w3.org/1999/xlink" width="200" height="200"><defs><style type="text/css">@font-face { font-family: feedback-iconfont; src: url("//at.alicdn.com/t/font_1031158_u69w8yhxdu.woff2?t=1630033759944") format("woff2"), url("//at.alicdn.com/t/font_1031158_u69w8yhxdu.woff?t=1630033759944") format("woff"), url("//at.alicdn.com/t/font_1031158_u69w8yhxdu.ttf?t=1630033759944") format("truetype"); }
</style></defs><path d="M874.0864 942.83776l-541.36832 56.85248-182.80448-170.55744 541.36832-56.85248z" fill="#F0FCFA" p-id="3895"></path><path d="M25.7024 655.09376l0.04096-48.18944c0 1.3312 0.67584 2.68288 2.08896 4.01408l-0.04096 48.18944c-1.41312-1.35168-2.08896-2.70336-2.08896-4.01408" fill="#CAFCF2" p-id="3896"></path><path d="M971.22304 807.23968l0.04096-48.18944c2.53952-0.26624 4.9152-0.6144 7.14752-1.00352l-0.04096 48.18944c-2.23232 0.4096-4.608 0.73728-7.14752 1.00352" fill="#F5FFFD" p-id="3897"></path><path d="M978.37056 806.23616l0.04096-48.18944c1.78176-0.32768 3.46112-0.67584 5.03808-1.08544l-0.04096 48.18944c-1.55648 0.4096-3.23584 0.75776-5.03808 1.08544M983.42912 805.15072l0.04096-48.18944c1.14688-0.28672 2.2528-0.59392 3.2768-0.9216l-0.04096 48.18944a57.50784 57.50784 0 0 1-3.2768 0.9216M986.70592 804.22912l0.04096-48.18944c0.8192-0.26624 1.61792-0.53248 2.3552-0.8192l-0.04096 48.18944a44.78976 44.78976 0 0 1-2.3552 0.8192" fill="#F5FFFD" p-id="3898"></path><path d="M989.06112 803.40992l0.04096-48.18944a55.9104 55.9104 0 0 0 1.82272-0.73728l-0.04096 48.18944a55.9104 55.9104 0 0 1-1.82272 0.73728M990.88384 802.67264l0.04096-48.18944 1.49504-0.69632-0.04096 48.18944-1.49504 0.69632" fill="#F5FFFD" p-id="3899"></path><path d="M992.37888 801.95584l0.04096-48.18944c0.43008-0.22528 0.86016-0.45056 1.24928-0.69632l-0.04096 48.18944c-0.38912 0.24576-0.8192 0.47104-1.24928 0.69632M993.62816 801.28l0.04096-48.18944a24.1664 24.1664 0 0 0 1.06496-0.67584l-0.04096 48.18944a48.3328 48.3328 0 0 1-1.06496 0.67584" fill="#F5FFFD" p-id="3900"></path><path d="M994.69312 800.60416l0.04096-48.18944 0.90112-0.67584-0.04096 48.18944a34.4064 34.4064 0 0 1-0.90112 0.67584" fill="#F5FFFD" p-id="3901"></path><path d="M995.59424 799.92832l0.04096-48.18944 0.75776-0.67584-0.04096 48.18944-0.75776 0.67584" fill="#F5FFFD" p-id="3902"></path><path d="M996.352 799.232l0.04096-48.18944c0.22528-0.22528 0.45056-0.45056 0.63488-0.69632l-0.04096 48.18944a10.24 10.24 0 0 1-0.63488 0.69632M996.98688 798.55616l0.04096-48.18944a7.55712 7.55712 0 0 0 0.512-0.69632l-0.04096 48.18944-0.512 0.69632M997.49888 797.85984l0.04096-48.18944 0.38912-0.7168-0.04096 48.18944-0.38912 0.7168" fill="#F5FFFD" p-id="3903"></path><path d="M997.888 797.12256l0.04096-48.18944a3.62496 3.62496 0 0 0 0.24576-0.75776l-0.04096 48.18944a5.4272 5.4272 0 0 1-0.24576 0.75776" fill="#F5FFFD" p-id="3904"></path><path d="M998.13376 796.3648l0.04096-48.18944a3.584 3.584 0 0 0 0.1024-0.8192l-0.04096 48.18944a3.584 3.584 0 0 1-0.1024 0.8192" fill="#F5FFFD" p-id="3905"></path><path d="M998.23616 795.5456l0.06144-48.18944v-0.1024l-0.04096 48.18944-0.02048 0.1024" fill="#F5FFFD" p-id="3906"></path><path d="M27.81184 659.08736l0.04096-48.18944L253.29664 821.248l-0.04096 48.18944z" fill="#CAFCF2" p-id="3907"></path><path d="M303.59552 877.34272l0.04096-48.18944 667.62752-70.10304-0.04096 48.18944z" fill="#F5FFFD" p-id="3908"></path><path d="M253.25568 869.43744l0.04096-48.18944c1.76128 1.65888 4.52608 3.11296 7.9872 4.34176l-0.04096 48.18944a23.1424 23.1424 0 0 1-7.9872-4.34176" fill="#F5FFFD" p-id="3909"></path><path d="M261.24288 873.7792l0.04096-48.18944c0.90112 0.32768 1.8432 0.6144 2.84672 0.90112l-0.04096 48.18944a42.47552 42.47552 0 0 1-2.84672-0.90112" fill="#F5FFFD" p-id="3910"></path><path d="M264.06912 874.68032l0.04096-48.18944 2.49856 0.65536-0.04096 48.18944a34.42688 34.42688 0 0 1-2.49856-0.65536M266.58816 875.35616l0.04096-48.18944 2.33472 0.53248-0.04096 48.18944-2.33472-0.53248" fill="#F5FFFD" p-id="3911"></path><path d="M268.9024 875.88864l0.04096-48.18944c0.73728 0.14336 1.47456 0.3072 2.23232 0.43008l-0.04096 48.18944a444.6208 444.6208 0 0 1-2.23232-0.43008M271.13472 876.31872l0.04096-48.18944 2.17088 0.36864-0.04096 48.18944a471.36768 471.36768 0 0 1-2.17088-0.36864M273.32608 876.68736l0.04096-48.18944 2.12992 0.3072-0.04096 48.18944a527.9744 527.9744 0 0 1-2.12992-0.3072M275.456 876.99456l0.04096-48.18944 2.12992 0.26624-0.04096 48.18944a67.1744 67.1744 0 0 1-2.12992-0.26624M277.58592 877.2608l0.04096-48.18944 2.1504 0.22528-0.04096 48.18944-2.1504-0.22528" fill="#F5FFFD" p-id="3912"></path><path d="M279.73632 877.48608l0.04096-48.18944 2.1504 0.18432-0.04096 48.18944-2.1504-0.18432" fill="#F5FFFD" p-id="3913"></path><path d="M281.88672 877.6704l0.04096-48.18944a75.776 75.776 0 0 0 2.1504 0.14336l-0.04096 48.18944-2.1504-0.14336" fill="#F5FFFD" p-id="3914"></path><path d="M284.03712 877.79328l0.04096-48.18944 2.1504 0.1024-0.04096 48.18944a75.53024 75.53024 0 0 1-2.1504-0.1024M286.18752 877.89568l0.04096-48.18944 2.1504 0.06144-0.04096 48.18944a37.6832 37.6832 0 0 1-2.1504-0.06144M288.33792 877.9776l0.04096-48.18944 2.12992 0.02048-0.04096 48.18944-2.12992-0.02048M290.46784 877.99808l0.04096-48.18944h2.17088l-0.02048 48.16896-2.19136 0.02048" fill="#F5FFFD" p-id="3915"></path><path d="M292.6592 877.9776l0.04096-48.18944 2.29376-0.04096-0.04096 48.18944-2.29376 0.04096M294.95296 877.93664l0.04096-48.18944 2.53952-0.1024-0.04096 48.18944-2.53952 0.1024" fill="#F5FFFD" p-id="3916"></path><path d="M297.49248 877.83424l0.04096-48.18944c1.26976-0.06144 2.51904-0.14336 3.7888-0.26624l-0.06144 48.18944c-1.24928 0.1024-2.51904 0.2048-3.76832 0.26624" fill="#F5FFFD" p-id="3917"></path><path d="M301.2608 877.568l0.04096-48.18944 2.33472-0.22528-0.04096 48.18944a89.96864 89.96864 0 0 1-2.33472 0.22528" fill="#F5FFFD" p-id="3918"></path><path d="M971.264 759.05024l-667.62752 70.10304c-20.7872 2.19136-43.3152-1.35168-50.33984-7.90528L27.8528 610.89792c-7.00416-6.5536 4.13696-13.6192 24.92416-15.81056l667.62752-70.10304c20.76672-2.17088 43.33568 1.35168 50.33984 7.90528l225.44384 210.35008c7.02464 6.5536-4.15744 13.6192-24.92416 15.81056z" fill="#DEFCF6" p-id="3919"></path><path d="M809.82016 703.6928l-454.36928 42.45504-153.43616-127.3856L656.384 576.3072z" fill="#73EFDA" p-id="3920"></path><path d="M629.51424 665.25184l-52.5312-28.5696a23.3472 23.3472 0 0 1-1.80224-1.08544l52.5312 28.5696c0.59392 0.38912 1.18784 0.75776 1.80224 1.08544" fill="#99FFF0" p-id="3921"></path><path d="M671.19104 386.12992l-52.5312-28.5696c1.51552 0.8192 3.11296 1.65888 4.75136 2.4576l52.5312 28.59008-4.75136-2.47808M675.96288 388.58752l-52.5312-28.59008c7.35232 3.62496 16.05632 7.0656 26.09152 9.66656l52.5312 28.5696a134.9632 134.9632 0 0 1-26.09152-9.64608" fill="#99FFF0" p-id="3922"></path><path d="M702.0544 398.25408l-52.5312-28.5696a148.70528 148.70528 0 0 0 34.59072 4.66944c2.23232 0.04096 4.36224 0.32768 6.41024 0.86016l52.5312 28.5696c-2.048-0.53248-4.17792-0.8192-6.41024-0.86016a148.54144 148.54144 0 0 1-34.59072-4.66944M743.05536 403.7632l-52.5312-28.5696a26.624 26.624 0 0 1 4.9152 1.82272l52.5312 28.5696a26.624 26.624 0 0 0-4.9152-1.82272" fill="#99FFF0" p-id="3923"></path><path d="M747.97056 405.58592l-52.5312-28.5696 0.94208 0.49152 52.5312 28.5696-0.94208-0.49152" fill="#99FFF0" p-id="3924"></path><path d="M627.712 664.1664l-52.5312-28.5696-86.09792-56.70912 52.5312 28.59008z" fill="#99FFF0" p-id="3925"></path><path d="M646.43072 378.4704l-52.5312-28.5696c3.64544-0.512 7.2704-0.32768 10.752 0.57344l52.5312 28.5696a27.50464 27.50464 0 0 0-10.752-0.57344" fill="#99FFF0" p-id="3926"></path><path d="M657.16224 379.04384l-52.5312-28.5696c1.67936 0.43008 3.31776 1.04448 4.89472 1.82272l52.5312 28.5696a23.49056 23.49056 0 0 0-4.89472-1.82272M662.07744 380.84608l-52.5312-28.5696c0.3072 0.16384 0.63488 0.3072 0.94208 0.49152l52.5312 28.5696-0.94208-0.49152" fill="#99FFF0" p-id="3927"></path><path d="M541.61408 607.47776l-52.5312-28.5696c-7.80288-5.14048-12.41088-14.336-12.3904-24.82176l52.5312 28.5696c-0.02048 10.48576 4.58752 19.6608 12.3904 24.82176" fill="#99FFF0" p-id="3928"></path><path d="M529.22368 582.656l-52.5312-28.59008 0.22528-117.88288 52.5312 28.59008z" fill="#99FFF0" p-id="3929"></path><path d="M529.44896 464.77312l-52.5312-28.5696c0-4.44416 0.83968-8.8064 2.33472-12.88192l52.5312 28.5696a37.4784 37.4784 0 0 0-2.33472 12.88192" fill="#99FFF0" p-id="3930"></path><path d="M531.78368 451.8912l-52.5312-28.5696c0.65536-1.76128 1.41312-3.4816 2.31424-5.14048l52.5312 28.5696a37.4784 37.4784 0 0 0-2.31424 5.14048" fill="#99FFF0" p-id="3931"></path><path d="M534.09792 446.75072l-52.5312-28.5696c0.75776-1.39264 1.57696-2.74432 2.49856-4.05504l52.5312 28.5696c-0.9216 1.29024-1.76128 2.6624-2.49856 4.05504" fill="#99FFF0" p-id="3932"></path><path d="M536.576 442.69568l-52.5312-28.5696a38.5024 38.5024 0 0 1 2.7648-3.50208l52.5312 28.5696a41.53344 41.53344 0 0 0-2.7648 3.50208" fill="#99FFF0" p-id="3933"></path><path d="M539.3408 439.1936L486.8096 410.624c0.98304-1.1264 2.048-2.19136 3.15392-3.1744l52.5312 28.5696c-1.10592 0.98304-2.1504 2.048-3.15392 3.1744" fill="#99FFF0" p-id="3934"></path><path d="M542.49472 436.0192l-52.5312-28.5696c1.20832-1.08544 2.4576-2.06848 3.7888-2.99008l52.5312 28.5696a35.2256 35.2256 0 0 0-3.7888 2.99008" fill="#99FFF0" p-id="3935"></path><path d="M546.28352 433.02912l-52.5312-28.5696c1.61792-1.10592 3.31776-2.08896 5.07904-2.92864l52.5312 28.5696c-1.78176 0.8192-3.46112 1.80224-5.07904 2.92864" fill="#99FFF0" p-id="3936"></path><path d="M551.36256 430.10048l-52.5312-28.5696c1.51552-0.7168 3.09248-1.3312 4.7104-1.80224a180.224 180.224 0 0 0 25.51808-9.78944l52.5312 28.5696a184.32 184.32 0 0 1-25.51808 9.78944 31.90784 31.90784 0 0 0-4.7104 1.80224" fill="#99FFF0" p-id="3937"></path><path d="M581.57056 418.5088l-52.5312-28.5696c10.21952-4.8128 19.2512-10.21952 27.09504-15.64672l52.5312 28.5696a189.70624 189.70624 0 0 1-27.09504 15.64672M608.68608 402.86208l-52.5312-28.5696c7.63904-5.28384 14.1312-10.58816 19.47648-15.42144l52.5312 28.5696a193.90464 193.90464 0 0 1-19.47648 15.42144" fill="#99FFF0" p-id="3938"></path><path d="M628.16256 387.44064l-52.5312-28.5696 0.3072-0.28672 0.06144-0.06144 52.5312 28.59008-0.06144 0.06144-0.3072 0.26624" fill="#99FFF0" p-id="3939"></path><path d="M628.5312 387.11296l-52.5312-28.59008c1.2288-1.10592 2.47808-2.08896 3.7888-2.99008l52.5312 28.5696a40.01792 40.01792 0 0 0-3.7888 3.01056" fill="#99FFF0" p-id="3940"></path><path d="M632.32 384.12288l-52.5312-28.5696c1.61792-1.1264 3.31776-2.08896 5.0176-2.90816l52.5312 28.5696a33.54624 33.54624 0 0 0-5.0176 2.90816" fill="#99FFF0" p-id="3941"></path><path d="M637.3376 381.21472l-52.5312-28.5696c2.9696-1.39264 6.02112-2.31424 9.09312-2.74432l52.5312 28.5696c-3.072 0.43008-6.12352 1.35168-9.09312 2.74432" fill="#99FFF0" p-id="3942"></path><path d="M646.43072 378.4704a26.4192 26.4192 0 0 1 17.92 3.66592c14.99136 9.4208 39.28064 20.1728 72.2944 20.7872 15.17568 0.26624 26.5216 12.45184 26.50112 29.02016l-0.22528 117.88288a39.56736 39.56736 0 0 1-12.47232 28.32384l-86.34368 80.93696a33.73056 33.73056 0 0 1-18.20672 9.0112 26.112 26.112 0 0 1-18.16576-3.8912l-86.09792-56.70912c-7.80288-5.14048-12.41088-14.336-12.3904-24.82176l0.22528-117.88288c0.04096-16.56832 11.44832-31.9488 26.624-36.47488a189.60384 189.60384 0 0 0 72.3968-41.12384c5.36576-4.89472 11.65312-7.84384 17.94048-8.72448z" fill="#28EAC4" p-id="3943"></path><path d="M646.94272 433.82784c9.44128-1.3312 17.05984 5.8368 17.03936 16.03584l-0.08192 45.93664 42.55744-5.98016c9.44128-1.3312 17.1008 5.85728 17.08032 16.05632-0.02048 10.15808-7.70048 19.51744-17.14176 20.82816l-42.55744 5.98016-0.08192 45.93664c-0.02048 10.19904-7.65952 19.53792-17.12128 20.86912-9.44128 1.3312-17.1008-5.85728-17.08032-16.05632l0.08192-45.93664-42.55744 5.98016c-9.44128 1.3312-17.05984-5.87776-17.03936-16.03584 0.02048-10.19904 7.65952-19.53792 17.12128-20.86912l42.55744-5.98016 0.08192-45.93664c0.02048-10.17856 7.70048-19.49696 17.14176-20.82816z" fill="#FFFFFF" p-id="3944"></path><path d="M827.41248 200.78592l-52.5312-28.5696 0.94208 0.43008 52.5312 28.5696a42.02496 42.02496 0 0 1-0.94208-0.43008" fill="#99FFF0" p-id="3945"></path><path d="M828.33408 201.216L775.80288 172.6464l0.83968 0.43008 52.5312 28.5696a31.76448 31.76448 0 0 0-0.83968-0.43008" fill="#99FFF0" p-id="3946"></path><path d="M767.73376 174.77632l-52.5312-28.59008 59.65824 26.03008 52.55168 28.5696zM713.09312 150.91712l-52.55168-28.59008 0.12288-64.38912 52.5312 28.5696z" fill="#99FFF0" p-id="3947"></path><path d="M713.19552 86.50752l-52.5312-28.5696c0-4.01408 0.75776-7.96672 2.10944-11.65312l52.5312 28.5696a34.4064 34.4064 0 0 0-2.10944 11.65312M715.30496 74.8544L662.77376 46.2848a34.4064 34.4064 0 0 1 2.06848-4.608l52.5312 28.5696a42.1888 42.1888 0 0 0-2.06848 4.608" fill="#99FFF0" p-id="3948"></path><path d="M717.39392 70.26688l-52.5312-28.5696c0.67584-1.24928 1.41312-2.4576 2.23232-3.60448l52.5312 28.5696c-0.8192 1.14688-1.57696 2.3552-2.23232 3.60448M719.60576 66.64192l-52.5312-28.5696c0.75776-1.08544 1.57696-2.12992 2.4576-3.11296l52.5312 28.5696a41.0624 41.0624 0 0 0-2.4576 3.11296M722.06336 63.52896l-52.5312-28.5696c0.88064-1.00352 1.80224-1.92512 2.78528-2.80576l52.5312 28.5696a36.0448 36.0448 0 0 0-2.78528 2.80576" fill="#99FFF0" p-id="3949"></path><path d="M724.84864 60.7232L672.31744 32.1536c1.04448-0.94208 2.1504-1.82272 3.29728-2.62144l52.5312 28.5696a36.27008 36.27008 0 0 0-3.29728 2.62144M728.1664 58.10176L675.6352 29.53216a29.0816 29.0816 0 0 1 4.44416-2.56l52.5312 28.5696a29.0816 29.0816 0 0 0-4.44416 2.56" fill="#99FFF0" p-id="3950"></path><path d="M732.59008 55.54176l-52.5312-28.5696a27.70944 27.70944 0 0 1 9.8304-2.58048c2.58048-0.18432 5.05856 0.04096 7.3728 0.63488l52.5312 28.5696a22.99904 22.99904 0 0 0-9.216-0.45056 28.09856 28.09856 0 0 0-7.9872 2.39616M749.81376 53.59616l-52.5312-28.5696c1.47456 0.36864 2.8672 0.90112 4.1984 1.55648l52.5312 28.5696a21.504 21.504 0 0 0-4.1984-1.55648" fill="#99FFF0" p-id="3951"></path><path d="M754.01216 55.15264l-52.5312-28.5696c0.26624 0.14336 0.55296 0.26624 0.8192 0.43008l52.5312 28.5696a10.6496 10.6496 0 0 0-0.8192-0.43008" fill="#99FFF0" p-id="3952"></path><path d="M531.78368 71.82336l-52.5312-28.5696 181.28896 79.07328 52.55168 28.59008z" fill="#99FFF0" p-id="3953"></path><path d="M518.90176 70.18496l-52.5312-28.5696c3.23584-0.45056 6.47168-0.28672 9.54368 0.512l52.5312 28.5696a23.71584 23.71584 0 0 0-9.54368-0.512M528.44544 70.67648l-52.5312-28.5696c1.1264 0.28672 2.2528 0.67584 3.33824 1.14688l52.5312 28.5696a24.71936 24.71936 0 0 0-3.33824-1.14688" fill="#99FFF0" p-id="3954"></path><path d="M506.01984 75.44832l-52.5312-28.5696 0.4096-0.28672 52.5312 28.5696-0.4096 0.28672M506.42944 75.1616l-52.5312-28.5696c1.4336-0.98304 2.90816-1.8432 4.42368-2.56l52.5312 28.5696a32.13312 32.13312 0 0 0-4.42368 2.56" fill="#99FFF0" p-id="3955"></path><path d="M510.85312 72.6016L458.32192 44.032c2.62144-1.2288 5.3248-2.048 8.04864-2.43712l52.5312 28.5696a28.44672 28.44672 0 0 0-8.04864 2.43712" fill="#99FFF0" p-id="3956"></path><path d="M209.75616 287.60064l-52.5312-28.59008L453.48864 46.85824l52.5312 28.59008z" fill="#99FFF0" p-id="3957"></path><path d="M207.85152 338.82112l-52.5312-28.5696a23.01952 23.01952 0 0 1-9.4208-9.68704c-3.9936-7.55712-4.13696-16.77312-1.08544-25.088l52.5312 28.5696c-3.05152 8.31488-2.90816 17.53088 1.08544 25.088 2.29376 4.32128 5.57056 7.5776 9.4208 9.68704" fill="#99FFF0" p-id="3958"></path><path d="M197.34528 304.04608l-52.5312-28.5696c0.57344-1.57696 1.26976-3.13344 2.06848-4.62848l52.5312 28.5696a35.88096 35.88096 0 0 0-2.06848 4.62848M199.41376 299.4176l-52.5312-28.5696c0.65536-1.2288 1.41312-2.43712 2.21184-3.60448l52.5312 28.5696a43.58144 43.58144 0 0 0-2.21184 3.60448M201.64608 295.81312L149.0944 267.24352a34.6112 34.6112 0 0 1 2.41664-3.072l52.5312 28.5696a38.6048 38.6048 0 0 0-2.39616 3.072M204.06272 292.74112l-52.5312-28.5696c0.86016-0.98304 1.78176-1.90464 2.7648-2.78528l52.5312 28.5696a32.256 32.256 0 0 0-2.7648 2.78528M206.82752 289.95584l-52.5312-28.5696c0.9216-0.83968 1.90464-1.61792 2.92864-2.3552l52.5312 28.5696c-1.024 0.7168-1.98656 1.51552-2.92864 2.3552" fill="#99FFF0" p-id="3959"></path><path d="M518.90176 70.18496c4.42368-0.6144 8.84736-0.08192 12.88192 1.65888l181.30944 79.07328 0.12288-64.4096c0.02048-16.32256 12.26752-31.25248 27.38176-33.36192l1.8432-0.18432c14.56128-1.04448 25.51808 11.1616 25.47712 26.86976l-0.18432 94.96576 59.65824 26.0096c13.312 5.79584 18.3296 22.99904 11.1616 38.37952-4.93568 10.62912-14.39744 17.63328-24.14592 19.00544-4.36224 0.6144-8.76544 0.1024-12.86144-1.67936l-74.19904-32.37888-196.17792-85.56544a22.99904 22.99904 0 0 0-12.3904-1.59744 28.09856 28.09856 0 0 0-12.3904 5.07904l-270.97088 194.00704a29.10208 29.10208 0 0 1-12.88192 5.30432 23.06048 23.06048 0 0 1-24.12544-12.20608c-7.08608-13.37344-2.02752-31.98976 11.34592-41.53344l296.26368-212.1728c4.01408-2.8672 8.45824-4.64896 12.88192-5.26336z" fill="#28EAC4" p-id="3960"></path><path d="M719.58528 289.73056l-52.5312-28.5696c0.9216 0.38912 1.82272 0.79872 2.70336 1.2288l52.5312 28.5696a32.13312 32.13312 0 0 0-2.70336-1.2288" fill="#99FFF0" p-id="3961"></path><path d="M722.28864 290.95936l-52.5312-28.5696 1.69984 0.88064 52.5312 28.5696a26.68544 26.68544 0 0 0-1.69984-0.88064" fill="#99FFF0" p-id="3962"></path><path d="M664.14592 334.72512l-52.5312-28.5696a145.2032 145.2032 0 0 1-8.45824-4.95616 35.71712 35.71712 0 0 0-1.67936-0.98304l52.5312 28.5696c0.57344 0.3072 1.1264 0.63488 1.67936 0.98304 2.58048 1.6384 5.40672 3.31776 8.45824 4.95616" fill="#99FFF0" p-id="3963"></path><path d="M554.53696 221.20448l-52.5312-28.5696 165.04832 68.5056 52.5312 28.59008z" fill="#99FFF0" p-id="3964"></path><path d="M332.47232 677.00736l-52.5312-28.5696c-15.79008-8.58112-26.25536-26.17344-26.2144-47.88224l52.5312 28.5696c-0.06144 21.7088 10.42432 39.30112 26.2144 47.88224" fill="#99FFF0" p-id="3965"></path><path d="M528.6912 218.09152L476.16 189.50144a50.176 50.176 0 0 1 19.64032 1.04448l52.5312 28.5696a50.176 50.176 0 0 0-19.64032-1.024" fill="#99FFF0" p-id="3966"></path><path d="M548.33152 219.136l-52.5312-28.5696c2.10944 0.55296 4.17792 1.24928 6.20544 2.08896l52.5312 28.5696a42.51648 42.51648 0 0 0-6.20544-2.08896" fill="#99FFF0" p-id="3967"></path><path d="M502.84544 228.47488L450.29376 199.8848l0.12288-0.06144 52.5312 28.5696-0.1024 0.08192" fill="#99FFF0" p-id="3968"></path><path d="M502.94784 228.39296l-52.5312-28.5696c2.9696-2.048 6.0416-3.80928 9.15456-5.30432l52.5312 28.5696a66.6624 66.6624 0 0 0-9.15456 5.30432" fill="#99FFF0" p-id="3969"></path><path d="M512.1024 223.10912L459.5712 194.51904c5.40672-2.53952 10.99776-4.21888 16.5888-5.0176l52.5312 28.5696a57.93792 57.93792 0 0 0-16.5888 5.03808" fill="#99FFF0" p-id="3970"></path><path d="M306.23744 629.12512l-52.5312-28.5696 0.43008-227.16416 52.5312 28.59008z" fill="#99FFF0" p-id="3971"></path><path d="M337.44896 343.42912l-52.5312-28.5696 165.376-114.97472 52.55168 28.59008z" fill="#99FFF0" p-id="3972"></path><path d="M528.6912 218.09152a49.29536 49.29536 0 0 1 25.84576 3.11296l165.04832 68.52608c18.82112 7.82336 30.6176 27.07456 30.57664 49.93024l-0.02048 16.384a32.91136 32.91136 0 0 0-4.52608-0.38912c-41.0624-0.73728-71.29088-14.15168-89.94816-25.84576a33.01376 33.01376 0 0 0-22.30272-4.56704 42.1888 42.1888 0 0 0-22.30272 10.83392 236.05248 236.05248 0 0 1-90.112 51.15904c-18.86208 5.632-33.03424 24.76032-33.05472 45.3632l-0.26624 146.67776c-0.02048 13.02528 5.67296 24.4736 15.36 30.88384l65.57696 43.15136-205.90592 28.8768c-31.21152 4.38272-56.48384-19.3536-56.4224-53.06368l0.43008-227.14368a72.78592 72.78592 0 0 1 30.78144-58.55232l165.39648-114.95424a60.23168 60.23168 0 0 1 25.84576-10.38336z" fill="#28EAC4" p-id="3973"></path><path d="M306.66752 401.98144l-52.5312-28.5696a70.656 70.656 0 0 1 4.36224-24.00256l52.5312 28.5696a70.18496 70.18496 0 0 0-4.36224 24.00256" fill="#99FFF0" p-id="3974"></path><path d="M311.02976 377.97888l-52.5312-28.5696c1.20832-3.2768 2.64192-6.47168 4.3008-9.54368l52.5312 28.5696c-1.65888 3.072-3.09248 6.26688-4.3008 9.54368" fill="#99FFF0" p-id="3975"></path><path d="M315.33056 368.4352l-52.5312-28.5696c1.39264-2.58048 2.92864-5.07904 4.608-7.45472l52.5312 28.5696a77.6192 77.6192 0 0 0-4.608 7.45472" fill="#99FFF0" p-id="3976"></path><path d="M319.93856 360.98048l-52.5312-28.5696c1.55648-2.23232 3.25632-4.38272 5.05856-6.41024l52.5312 28.5696a66.23232 66.23232 0 0 0-5.05856 6.41024M324.99712 354.54976l-52.5312-28.5696c1.80224-2.048 3.70688-3.97312 5.7344-5.79584l52.5312 28.5696a69.57056 69.57056 0 0 0-5.7344 5.79584" fill="#99FFF0" p-id="3977"></path><path d="M330.73152 348.7744l-52.5312-28.5696c2.12992-1.90464 4.36224-3.70688 6.71744-5.34528l52.5312 28.5696c-2.3552 1.6384-4.608 3.42016-6.71744 5.34528" fill="#99FFF0" p-id="3978"></path></svg>