<?xml version="1.0" standalone="no"?><!DOCTYPE svg PUBLIC "-//W3C//DTD SVG 1.1//EN" "http://www.w3.org/Graphics/SVG/1.1/DTD/svg11.dtd"><svg t="1655221636712" class="icon" viewBox="0 0 1024 1024" version="1.1" xmlns="http://www.w3.org/2000/svg" p-id="4539" xmlns:xlink="http://www.w3.org/1999/xlink" width="200" height="200"><defs><style type="text/css">@font-face { font-family: feedback-iconfont; src: url("//at.alicdn.com/t/font_1031158_u69w8yhxdu.woff2?t=1630033759944") format("woff2"), url("//at.alicdn.com/t/font_1031158_u69w8yhxdu.woff?t=1630033759944") format("woff"), url("//at.alicdn.com/t/font_1031158_u69w8yhxdu.ttf?t=1630033759944") format("truetype"); }
</style></defs><path d="M844.92288 756.71552c14.88896 8.6016 14.97088 22.71232 0.18432 31.29344L498.23744 989.5936c-14.78656 8.6016-39.13728 8.6016-54.02624 0L95.08864 788.00896c-14.88896-8.6016-14.97088-22.71232-0.18432-31.29344l346.86976-201.56416c14.78656-8.6016 39.13728-8.6016 54.02624 0l349.12256 201.56416z" fill="#F9F6EF" p-id="4540"></path><path d="M530.7392 407.49056l-0.14336 51.97824a32.8704 32.8704 0 0 0-3.91168-1.88416l0.14336-51.97824c1.39264 0.55296 2.70336 1.16736 3.91168 1.88416M526.82752 405.6064l-0.14336 51.97824a33.19808 33.19808 0 0 0-3.31776-1.1264l0.14336-51.97824c1.14688 0.32768 2.2528 0.7168 3.31776 1.1264" fill="#EBFCF9" p-id="4541"></path><path d="M523.50976 404.50048l-0.14336 51.97824a41.84064 41.84064 0 0 0-2.8672-0.69632l0.14336-51.97824c0.98304 0.18432 1.9456 0.43008 2.8672 0.69632" fill="#EBFCF9" p-id="4542"></path><path d="M520.66304 403.78368l-0.14336 51.97824a39.79264 39.79264 0 0 0-2.72384-0.47104l0.14336-51.97824c0.90112 0.14336 1.82272 0.28672 2.72384 0.47104" fill="#EBFCF9" p-id="4543"></path><path d="M517.9392 403.31264l-0.14336 51.97824a56.50432 56.50432 0 0 0-2.68288-0.3072l0.14336-51.97824c0.90112 0.08192 1.78176 0.18432 2.68288 0.3072" fill="#EBFCF9" p-id="4544"></path><path d="M515.25632 403.02592l-0.14336 51.97824a39.7312 39.7312 0 0 0-2.72384-0.14336l0.14336-51.97824c0.90112 0.02048 1.82272 0.06144 2.72384 0.14336M512.53248 402.86208l-0.14336 51.97824a43.35616 43.35616 0 0 0-2.82624 0.02048l0.14336-51.97824c0.94208-0.04096 1.88416-0.04096 2.82624-0.02048" fill="#EBFCF9" p-id="4545"></path><path d="M509.70624 402.88256l-0.14336 51.97824c-1.024 0.04096-2.048 0.1024-3.05152 0.2048l0.14336-51.97824a49.7664 49.7664 0 0 1 3.05152-0.2048M506.63424 403.08736l-0.14336 51.97824a48.0256 48.0256 0 0 0-3.50208 0.49152l0.14336-51.97824c1.14688-0.2048 2.33472-0.36864 3.50208-0.49152" fill="#EBFCF9" p-id="4546"></path><path d="M503.13216 403.57888l-0.14336 51.97824a41.63584 41.63584 0 0 0-5.18144 1.29024l0.14336-51.97824c1.65888-0.53248 3.39968-0.96256 5.18144-1.29024" fill="#EBFCF9" p-id="4547"></path><path d="M497.95072 404.86912l-0.14336 51.97824a30.18752 30.18752 0 0 0-5.95968 2.62144l0.14336-51.97824c1.80224-1.06496 3.80928-1.92512 5.95968-2.62144" fill="#EBFCF9" p-id="4548"></path><path d="M728.45312 521.6256l-0.14336 51.97824-197.71392-114.15552 0.14336-51.95776zM491.99104 407.49056l-0.16384 51.95776-196.38272 114.13504 0.14336-51.97824z" fill="#EBFCF9" p-id="4549"></path><path d="M736.50176 532.93056l-0.14336 51.97824c0.02048-4.096-2.68288-8.21248-8.04864-11.30496l0.14336-51.97824c5.38624 3.11296 8.06912 7.20896 8.04864 11.30496" fill="#EBFCF9" p-id="4550"></path><path d="M295.58784 521.60512l-0.14336 51.97824-0.32768 0.2048 0.14336-51.97824a1.76128 1.76128 0 0 0 0.32768-0.2048M295.26016 521.80992l-0.14336 51.97824c-1.31072 0.79872-2.4576 1.6384-3.44064 2.53952l0.14336-51.97824c0.98304-0.90112 2.12992-1.7408 3.44064-2.53952" fill="#EBFCF9" p-id="4551"></path><path d="M291.81952 524.34944l-0.14336 51.97824a17.44896 17.44896 0 0 0-1.69984 1.82272l0.14336-51.97824a17.44896 17.44896 0 0 1 1.69984-1.82272" fill="#EBFCF9" p-id="4552"></path><path d="M290.11968 526.17216l-0.14336 51.97824a11.50976 11.50976 0 0 0-1.10592 1.6384l0.14336-51.97824a19.18976 19.18976 0 0 1 1.10592-1.6384" fill="#EBFCF9" p-id="4553"></path><path d="M289.03424 527.81056l-0.14336 51.97824a13.37344 13.37344 0 0 0-0.73728 1.55648l0.14336-51.97824a9.66656 9.66656 0 0 1 0.73728-1.55648" fill="#EBFCF9" p-id="4554"></path><path d="M288.29696 529.38752l-0.14336 51.97824a10.38336 10.38336 0 0 0-0.45056 1.55648l0.14336-51.97824a8.43776 8.43776 0 0 1 0.45056-1.55648" fill="#EBFCF9" p-id="4555"></path><path d="M287.8464 530.944l-0.14336 51.97824a10.3424 10.3424 0 0 0-0.18432 1.57696l0.14336-51.97824a10.0352 10.0352 0 0 1 0.18432-1.57696" fill="#EBFCF9" p-id="4556"></path><path d="M287.66208 532.52096l-0.14336 51.97824v0.24576l0.14336-51.97824v-0.24576" fill="#EBFCF9" p-id="4557"></path><path d="M1008.59904 532.93056l-0.14336 51.95776v0.2048l0.14336-51.95776v-0.2048" fill="#F9EACA" p-id="4558"></path><path d="M1008.59904 533.13536l-0.14336 51.97824a7.61856 7.61856 0 0 1-0.16384 1.35168l0.14336-51.97824a6.10304 6.10304 0 0 0 0.16384-1.35168" fill="#F9EACA" p-id="4559"></path><path d="M1008.45568 534.48704l-0.14336 51.97824a8.17152 8.17152 0 0 1-0.38912 1.3312l0.14336-51.97824a10.87488 10.87488 0 0 0 0.38912-1.3312M1008.06656 535.81824l-0.14336 51.95776a7.168 7.168 0 0 1-0.63488 1.3312l0.14336-51.97824a7.00416 7.00416 0 0 0 0.63488-1.31072" fill="#F9EACA" p-id="4560"></path><path d="M1007.45216 537.14944l-0.14336 51.97824a14.1312 14.1312 0 0 1-0.94208 1.41312l0.14336-51.97824a18.82112 18.82112 0 0 0 0.94208-1.41312M1006.4896 538.56256l-0.14336 51.97824a14.7456 14.7456 0 0 1-1.45408 1.57696l0.14336-51.97824a12.86144 12.86144 0 0 0 1.45408-1.57696M1005.03552 540.13952l-0.14336 51.97824a18.57536 18.57536 0 0 1-2.99008 2.21184l0.14336-51.97824a18.57536 18.57536 0 0 0 2.99008-2.21184M1002.04544 542.33088l-0.14336 51.97824-0.28672 0.16384 0.14336-51.97824 0.28672-0.16384" fill="#F9EACA" p-id="4561"></path><path d="M22.48704 542.5152l-0.14336 51.97824c-4.64896-2.68288-6.9632-6.20544-6.9632-9.70752l0.14336-51.97824c0 3.50208 2.33472 7.02464 6.9632 9.70752" fill="#F9ECCA" p-id="4562"></path><path d="M1001.75872 542.5152l-0.14336 51.95776L530.2272 868.43392l0.14336-51.97824z" fill="#F9EACA" p-id="4563"></path><path d="M497.00864 816.47616l-0.16384 51.95776L22.34368 594.49344l0.14336-51.97824z" fill="#F9ECCA" p-id="4564"></path><path d="M1001.65632 523.20256c9.23648 5.3248 9.27744 13.96736 0.1024 19.31264L530.37056 816.45568c-9.216 5.34528-24.12544 5.34528-33.36192 0.02048L22.48704 542.5152c-9.23648-5.3248-9.27744-13.96736-0.08192-19.33312L493.81376 249.2416c9.17504-5.3248 24.10496-5.3248 33.34144 0l474.50112 273.96096z m-469.46304 135.00416l196.38272-114.13504c10.6496-6.18496 10.5472-16.2816-0.12288-22.44608l-197.71392-114.15552c-10.67008-6.16448-28.11904-6.18496-38.76864 0l-196.38272 114.13504c-10.6496 6.18496-10.5472 16.2816 0.12288 22.44608l197.71392 114.15552c10.67008 6.16448 28.11904 6.18496 38.76864 0" fill="#F9F4DE" p-id="4565"></path><path d="M530.37056 816.45568l-0.14336 51.97824a27.2384 27.2384 0 0 1-5.20192 2.29376l0.14336-51.97824a27.2384 27.2384 0 0 0 5.20192-2.29376M525.16864 818.72896l-0.14336 51.97824c-1.4336 0.47104-2.92864 0.83968-4.46464 1.10592l0.14336-51.97824c1.536-0.26624 3.03104-0.63488 4.46464-1.10592" fill="#F9EACA" p-id="4566"></path><path d="M520.704 819.85536l-0.14336 51.97824a28.7744 28.7744 0 0 1-3.01056 0.4096l0.14336-51.97824c1.00352-0.1024 2.00704-0.22528 3.01056-0.4096M517.69344 820.26496l-0.14336 51.97824a54.43584 54.43584 0 0 1-2.62144 0.18432l0.14336-51.97824c0.88064-0.04096 1.7408-0.08192 2.62144-0.18432" fill="#F9EACA" p-id="4567"></path><path d="M515.072 820.44928l-0.14336 51.97824c-0.79872 0.02048-1.61792 0.04096-2.41664 0.02048l0.14336-51.97824 2.41664-0.02048M512.65536 820.44928l-0.14336 51.97824a42.63936 42.63936 0 0 1-2.31424-0.12288l0.14336-51.97824 2.31424 0.12288" fill="#F9EACA" p-id="4568"></path><path d="M510.34112 820.3264l-0.14336 51.97824a41.34912 41.34912 0 0 1-2.29376-0.24576l0.14336-51.97824c0.75776 0.1024 1.536 0.18432 2.29376 0.24576M508.04736 820.08064L507.904 872.0384a30.96576 30.96576 0 0 1-2.33472-0.4096l0.14336-51.97824c0.77824 0.18432 1.55648 0.3072 2.33472 0.43008" fill="#F9EACA" p-id="4569"></path><path d="M505.71264 819.67104l-0.14336 51.97824a30.74048 30.74048 0 0 1-2.4576-0.59392l0.14336-51.97824c0.8192 0.22528 1.6384 0.43008 2.4576 0.59392M503.25504 819.07712l-0.14336 51.97824a31.37536 31.37536 0 0 1-2.8672-0.96256l0.14336-51.97824c0.94208 0.34816 1.88416 0.67584 2.8672 0.96256" fill="#F9EACA" p-id="4570"></path><path d="M500.40832 818.09408l-0.14336 51.97824a26.05056 26.05056 0 0 1-3.39968-1.6384l0.14336-51.97824c1.06496 0.63488 2.19136 1.16736 3.39968 1.6384" fill="#F9EACA" p-id="4571"></path><path d="M686.57152 553.34912c8.6016 4.95616 8.64256 13.1072 0.1024 18.08384l-200.35584 116.4288c-8.54016 4.95616-22.60992 4.95616-31.21152 0l-201.66656-116.4288c-8.6016-4.95616-8.64256-13.1072-0.1024-18.08384l200.35584-116.4288c8.54016-4.95616 22.60992-4.95616 31.21152 0l201.66656 116.4288z" fill="#F4BD42" p-id="4572"></path><path d="M399.83104 391.12704l91.05408-52.92032a6.10304 6.10304 0 0 0-2.06848 2.02752l-91.05408 52.92032a5.75488 5.75488 0 0 1 2.06848-2.02752" fill="#FFE299" p-id="4573"></path><path d="M397.74208 393.15456l91.05408-52.92032a10.48576 10.48576 0 0 0-0.45056 0.8192l-91.05408 52.92032a10.48576 10.48576 0 0 1 0.45056-0.8192" fill="#FFE299" p-id="4574"></path><path d="M397.29152 393.97376l91.05408-52.92032-0.28672 0.67584-91.05408 52.92032a5.16096 5.16096 0 0 1 0.28672-0.67584M397.0048 394.6496l91.05408-52.92032-0.2048 0.6144-91.05408 52.92032 0.2048-0.6144" fill="#FFE299" p-id="4575"></path><path d="M396.8 395.264l91.05408-52.92032-0.16384 0.6144-91.05408 52.92032 0.16384-0.6144" fill="#FFE299" p-id="4576"></path><path d="M396.63616 395.8784l91.05408-52.92032-0.12288 0.57344-91.05408 52.92032 0.12288-0.57344M396.53376 396.45184l91.05408-52.92032a4.83328 4.83328 0 0 0-0.08192 0.57344l-91.05408 52.92032a4.83328 4.83328 0 0 1 0.08192-0.57344M396.45184 397.02528l91.05408-52.92032-0.06144 0.57344-91.05408 52.92032c0-0.2048 0.02048-0.38912 0.06144-0.57344M396.3904 397.59872l91.05408-52.92032-0.04096 0.55296-91.05408 52.92032 0.04096-0.55296" fill="#FFE299" p-id="4577"></path><path d="M396.34944 398.15168l91.05408-52.92032-0.02048 0.57344-91.05408 52.92032 0.02048-0.57344" fill="#FFE299" p-id="4578"></path><path d="M396.32896 398.70464l91.05408-52.92032V346.35776l-91.05408 52.92032v-0.53248-0.04096M396.34944 399.27808l91.05408-52.92032 0.02048 0.57344-91.05408 52.92032-0.02048-0.57344M396.36992 399.85152L487.424 346.9312l0.04096 0.57344-91.05408 52.92032-0.04096-0.57344M396.41088 400.42496l91.05408-52.92032 0.06144 0.57344-91.05408 52.92032-0.06144-0.57344" fill="#FFE299" p-id="4579"></path><path d="M396.47232 400.9984l91.05408-52.92032 0.08192 0.59392-91.05408 52.92032-0.08192-0.59392M396.57472 401.6128l91.05408-52.92032 0.1024 0.59392-91.05408 52.92032-0.1024-0.59392" fill="#FFE299" p-id="4580"></path><path d="M396.67712 402.20672l91.05408-52.92032 0.12288 0.6144-91.05408 52.92032-0.12288-0.6144M396.8 402.82112l91.05408-52.92032 0.14336 0.6144-91.05408 52.9408a9.13408 9.13408 0 0 1-0.14336-0.63488" fill="#FFE299" p-id="4581"></path><path d="M396.94336 403.456l91.05408-52.92032 0.16384 0.63488-91.05408 52.92032-0.16384-0.63488M397.1072 404.09088l91.05408-52.92032 0.18432 0.63488-91.05408 52.92032a25.4976 25.4976 0 0 0-0.18432-0.63488" fill="#FFE299" p-id="4582"></path><path d="M397.29152 404.70528l91.05408-52.92032 0.2048 0.6144-91.05408 52.92032a7.20896 7.20896 0 0 1-0.2048-0.6144" fill="#FFE299" p-id="4583"></path><path d="M397.49632 405.31968l91.05408-52.92032 0.2048 0.6144-91.05408 52.92032-0.2048-0.6144M397.70112 405.93408l91.05408-52.92032 0.22528 0.59392-91.05408 52.92032-0.22528-0.59392" fill="#FFE299" p-id="4584"></path><path d="M397.9264 406.528l91.05408-52.92032a6.63552 6.63552 0 0 1 0.22528 0.57344l-91.05408 52.92032-0.22528-0.57344M398.15168 407.10144l91.05408-52.92032 0.24576 0.57344-91.05408 52.92032-0.24576-0.57344" fill="#FFE299" p-id="4585"></path><path d="M398.39744 407.67488l91.05408-52.92032 0.26624 0.57344-91.05408 52.92032-0.26624-0.57344M398.66368 408.24832l91.05408-52.92032 0.3072 0.63488-91.05408 52.92032a18.57536 18.57536 0 0 1-0.3072-0.63488" fill="#FFE299" p-id="4586"></path><path d="M398.97088 408.8832l91.05408-52.92032 0.36864 0.7168L399.33952 409.6a23.12192 23.12192 0 0 1-0.36864-0.7168M399.33952 409.6l91.05408-52.92032 0.59392 1.06496-91.05408 52.92032-0.59392-1.06496" fill="#FFE299" p-id="4587"></path><path d="M399.93344 410.66496l91.05408-52.92032c0.28672 0.49152 0.57344 0.96256 0.88064 1.41312l-91.05408 52.92032c-0.3072-0.45056-0.59392-0.94208-0.88064-1.41312M400.81408 412.07808l91.05408-52.92032a20.48 20.48 0 0 0 0.75776 1.08544l-91.05408 52.92032-0.75776-1.08544M401.59232 413.16352l91.05408-52.92032a8.92928 8.92928 0 0 0 0.53248 0.69632l-91.05408 52.92032a15.74912 15.74912 0 0 1-0.53248-0.69632" fill="#FFE299" p-id="4588"></path><path d="M402.10432 413.85984l91.05408-52.92032a11.59168 11.59168 0 0 0 0.47104 0.57344l-91.05408 52.92032-0.47104-0.57344M402.57536 414.43328l91.05408-52.92032 0.45056 0.53248-91.05408 52.92032-0.45056-0.53248" fill="#FFE299" p-id="4589"></path><path d="M403.02592 414.96576l91.05408-52.92032a10.71104 10.71104 0 0 0 0.47104 0.512l-91.05408 52.92032-0.47104-0.512M403.49696 415.47776l91.05408-52.92032 0.49152 0.512-91.05408 52.92032a11.83744 11.83744 0 0 1-0.49152-0.512" fill="#FFE299" p-id="4590"></path><path d="M403.98848 415.98976l91.05408-52.92032 0.49152 0.49152-91.05408 52.92032-0.49152-0.49152" fill="#FFE299" p-id="4591"></path><path d="M404.48 416.48128l91.05408-52.92032 0.512 0.49152-91.05408 52.92032a11.83744 11.83744 0 0 0-0.512-0.49152M405.01248 416.9728l91.05408-52.92032a10.38336 10.38336 0 0 0 0.53248 0.45056l-91.05408 52.92032a5.632 5.632 0 0 1-0.53248-0.45056M405.54496 417.44384l91.05408-52.92032 0.53248 0.43008-91.05408 52.92032-0.53248-0.43008" fill="#FFE299" p-id="4592"></path><path d="M406.05696 417.87392l91.05408-52.92032 0.512 0.38912-91.05408 52.92032-0.512-0.38912M406.58944 418.26304l91.05408-52.92032 0.512 0.36864-91.05408 52.92032-0.512-0.36864" fill="#FFE299" p-id="4593"></path><path d="M407.10144 418.63168l91.05408-52.92032 0.49152 0.32768-91.05408 52.92032-0.49152-0.32768M407.59296 418.95936l91.05408-52.92032 0.49152 0.3072-91.05408 52.92032-0.49152-0.3072" fill="#FFE299" p-id="4594"></path><path d="M408.08448 419.26656l91.05408-52.92032 0.12288 0.06144-91.05408 52.92032-0.12288-0.06144" fill="#FFE299" p-id="4595"></path><path d="M462.6432 510.91456l91.05408-52.92032v0.53248l-91.05408 52.92032v-0.53248" fill="#FFE299" p-id="4596"></path><path d="M462.6432 511.42656l91.05408-52.92032 0.02048 0.57344L462.68416 512l-0.04096-0.57344" fill="#FFE299" p-id="4597"></path><path d="M462.68416 512l91.05408-52.92032 0.04096 0.57344-91.05408 52.92032-0.04096-0.57344M462.72512 512.57344l91.05408-52.92032 0.06144 0.57344-91.05408 52.92032a50.7904 50.7904 0 0 1-0.06144-0.57344M462.78656 513.14688l91.05408-52.92032 0.08192 0.59392-91.05408 52.92032-0.08192-0.59392" fill="#FFE299" p-id="4598"></path><path d="M462.86848 513.7408l91.05408-52.92032 0.1024 0.59392-91.05408 52.92032-0.1024-0.59392M462.97088 514.3552l91.05408-52.92032 0.12288 0.6144-91.05408 52.92032-0.12288-0.6144" fill="#FFE299" p-id="4599"></path><path d="M463.09376 514.9696l91.05408-52.92032 0.14336 0.6144-91.05408 52.92032a6.656 6.656 0 0 0-0.14336-0.6144" fill="#FFE299" p-id="4600"></path><path d="M463.23712 515.584l91.05408-52.92032 0.16384 0.63488-91.05408 52.92032-0.16384-0.63488M463.40096 516.21888l91.05408-52.92032 0.18432 0.63488-91.05408 52.92032-0.18432-0.63488" fill="#FFE299" p-id="4601"></path><path d="M463.58528 516.85376l91.05408-52.92032 0.2048 0.6144-91.05408 52.92032-0.2048-0.6144" fill="#FFE299" p-id="4602"></path><path d="M463.79008 517.46816l91.05408-52.92032 0.2048 0.6144-91.05408 52.92032-0.2048-0.6144" fill="#FFE299" p-id="4603"></path><path d="M463.99488 518.08256l91.05408-52.92032 0.22528 0.59392-91.05408 52.92032-0.22528-0.59392" fill="#FFE299" p-id="4604"></path><path d="M464.22016 518.656l91.05408-52.92032 0.22528 0.57344-91.05408 52.92032-0.22528-0.57344M464.46592 519.24992l91.05408-52.92032 0.24576 0.57344-91.05408 52.92032a4.38272 4.38272 0 0 1-0.24576-0.57344M464.71168 519.82336l91.05408-52.92032 0.26624 0.57344-91.05408 52.92032-0.26624-0.57344" fill="#FFE299" p-id="4605"></path><path d="M464.95744 520.3968l91.05408-52.92032 0.3072 0.63488-91.05408 52.92032-0.3072-0.63488" fill="#FFE299" p-id="4606"></path><path d="M465.26464 521.03168l91.05408-52.92032 0.36864 0.7168-91.05408 52.92032-0.36864-0.7168" fill="#FFE299" p-id="4607"></path><path d="M465.63328 521.74848l91.05408-52.92032 0.59392 1.06496-91.05408 52.92032-0.59392-1.06496" fill="#FFE299" p-id="4608"></path><path d="M466.2272 522.79296l91.05408-52.92032a16.56832 16.56832 0 0 0 0.90112 1.41312l-91.05408 52.92032a23.83872 23.83872 0 0 1-0.90112-1.41312M467.12832 524.22656l91.05408-52.92032a20.48 20.48 0 0 0 0.75776 1.08544l-91.05408 52.92032a34.79552 34.79552 0 0 1-0.75776-1.08544" fill="#FFE299" p-id="4609"></path><path d="M467.88608 525.312l91.05408-52.92032a15.74912 15.74912 0 0 0 0.53248 0.69632l-91.05408 52.92032-0.53248-0.69632M468.41856 526.00832l91.05408-52.92032a11.59168 11.59168 0 0 0 0.47104 0.57344l-91.05408 52.92032-0.47104-0.57344" fill="#FFE299" p-id="4610"></path><path d="M468.8896 526.56128l91.05408-52.92032 0.45056 0.53248-91.05408 52.92032-0.45056-0.53248M469.34016 527.11424l91.05408-52.92032a10.71104 10.71104 0 0 0 0.47104 0.512l-91.05408 52.92032a10.71104 10.71104 0 0 1-0.47104-0.512M469.8112 527.62624l91.05408-52.92032 0.49152 0.512-91.05408 52.92032-0.49152-0.512" fill="#FFE299" p-id="4611"></path><path d="M470.28224 528.13824l91.05408-52.92032 0.49152 0.49152-91.05408 52.92032a5.57056 5.57056 0 0 0-0.49152-0.49152M470.79424 528.62976l91.05408-52.92032 0.512 0.49152-91.05408 52.92032-0.512-0.49152" fill="#FFE299" p-id="4612"></path><path d="M471.30624 529.12128l91.05408-52.92032a10.38336 10.38336 0 0 0 0.53248 0.45056l-91.05408 52.92032-0.53248-0.45056M471.83872 529.57184l91.05408-52.92032 0.53248 0.43008-91.05408 52.92032-0.53248-0.43008M472.3712 530.00192l91.05408-52.92032 0.512 0.38912-91.05408 52.92032-0.512-0.38912" fill="#FFE299" p-id="4613"></path><path d="M472.8832 530.39104l91.05408-52.92032 0.512 0.36864-91.05408 52.92032a6.22592 6.22592 0 0 1-0.512-0.36864" fill="#FFE299" p-id="4614"></path><path d="M473.3952 530.75968l91.05408-52.92032 0.49152 0.32768-91.05408 52.92032-0.49152-0.32768M473.9072 531.08736l91.05408-52.92032 0.49152 0.3072-91.05408 52.92032a3.23584 3.23584 0 0 1-0.49152-0.3072" fill="#FFE299" p-id="4615"></path><path d="M474.39872 531.39456l91.05408-52.92032 0.12288 0.06144 0.36864 0.2048-91.05408 52.92032-0.36864-0.2048-0.12288-0.06144M474.89024 531.68128l91.05408-52.92032 0.49152 0.24576-91.05408 52.92032-0.49152-0.24576" fill="#FFE299" p-id="4616"></path><path d="M475.36128 531.92704l91.05408-52.92032 0.47104 0.22528-91.05408 52.92032-0.47104-0.22528M475.8528 532.15232l91.05408-52.92032 0.47104 0.2048-91.05408 52.92032-0.47104-0.2048" fill="#FFE299" p-id="4617"></path><path d="M476.32384 532.35712l91.05408-52.92032a11.42784 11.42784 0 0 1 0.47104 0.18432l-91.05408 52.92032-0.47104-0.18432" fill="#FFE299" p-id="4618"></path><path d="M476.79488 532.54144l91.05408-52.92032 0.47104 0.16384-91.05408 52.92032a3.1744 3.1744 0 0 0-0.47104-0.16384" fill="#FFE299" p-id="4619"></path><path d="M477.26592 532.6848l91.05408-52.92032 0.49152 0.14336-91.05408 52.92032-0.49152-0.14336" fill="#FFE299" p-id="4620"></path><path d="M477.75744 532.82816l91.05408-52.92032a4.1984 4.1984 0 0 0 0.49152 0.1024l-91.05408 52.92032-0.49152-0.1024" fill="#FFE299" p-id="4621"></path><path d="M478.24896 532.93056l91.05408-52.92032 0.512 0.08192-91.05408 52.92032-0.512-0.08192" fill="#FFE299" p-id="4622"></path><path d="M478.76096 533.01248l91.05408-52.92032 0.53248 0.06144-91.05408 52.92032-0.53248-0.06144" fill="#FFE299" p-id="4623"></path><path d="M479.29344 533.07392l91.05408-52.92032 0.55296 0.02048-91.05408 52.92032-0.55296-0.02048M479.86688 533.0944l91.05408-52.92032 0.6144-0.02048-91.05408 52.92032-0.6144 0.02048" fill="#FFE299" p-id="4624"></path><path d="M480.48128 533.05344l91.05408-52.92032a8.15104 8.15104 0 0 0 0.69632-0.1024l-91.05408 52.92032c-0.22528 0.06144-0.47104 0.08192-0.69632 0.1024M481.1776 532.95104l91.05408-52.92032a10.0352 10.0352 0 0 0 0.83968-0.22528l-91.05408 52.92032a4.25984 4.25984 0 0 1-0.83968 0.22528" fill="#FFE299" p-id="4625"></path><path d="M482.01728 532.72576l91.05408-52.92032a5.16096 5.16096 0 0 0 0.96256-0.45056l-91.05408 52.92032a5.85728 5.85728 0 0 1-0.96256 0.45056" fill="#FFE299" p-id="4626"></path><path d="M399.83104 391.12704l91.05408-52.92032a5.85728 5.85728 0 0 1 0.96256-0.45056l-91.05408 52.92032a5.16096 5.16096 0 0 0-0.96256 0.45056" fill="#FFE299" p-id="4627"></path><path d="M400.7936 390.67648l91.05408-52.92032c0.26624-0.1024 0.55296-0.16384 0.83968-0.22528l-91.05408 52.92032c-0.28672 0.06144-0.57344 0.12288-0.83968 0.22528M401.63328 390.4512l91.05408-52.92032a7.10656 7.10656 0 0 1 0.69632-0.1024l-91.05408 52.92032a7.10656 7.10656 0 0 0-0.69632 0.1024" fill="#FFE299" p-id="4628"></path><path d="M402.3296 390.3488l91.05408-52.92032 0.6144-0.02048-91.05408 52.92032a3.03104 3.03104 0 0 0-0.6144 0.02048" fill="#FFE299" p-id="4629"></path><path d="M402.944 390.30784l91.05408-52.92032 0.55296 0.02048-91.05408 52.92032-0.55296-0.02048" fill="#FFE299" p-id="4630"></path><path d="M403.49696 390.32832l91.05408-52.92032 0.53248 0.06144-91.05408 52.92032-0.53248-0.06144" fill="#FFE299" p-id="4631"></path><path d="M404.02944 390.38976l91.05408-52.92032 0.512 0.08192-91.05408 52.92032-0.512-0.08192M404.56192 390.47168l91.05408-52.92032 0.49152 0.1024-91.05408 52.92032-0.49152-0.1024" fill="#FFE299" p-id="4632"></path><path d="M405.03296 390.57408l91.05408-52.92032 0.49152 0.14336-91.05408 52.92032-0.49152-0.14336" fill="#FFE299" p-id="4633"></path><path d="M405.52448 390.71744l91.05408-52.92032 0.47104 0.16384-91.05408 52.92032a3.1744 3.1744 0 0 0-0.47104-0.16384M405.99552 390.88128l91.05408-52.92032 0.47104 0.18432-91.05408 52.92032a1.88416 1.88416 0 0 0-0.47104-0.18432" fill="#FFE299" p-id="4634"></path><path d="M406.48704 391.04512l91.05408-52.92032a4.68992 4.68992 0 0 1 0.47104 0.2048l-91.05408 52.92032-0.47104-0.2048" fill="#FFE299" p-id="4635"></path><path d="M406.95808 391.24992l91.05408-52.92032 0.47104 0.22528-91.05408 52.92032-0.47104-0.22528" fill="#FFE299" p-id="4636"></path><path d="M407.42912 391.4752l91.05408-52.92032 0.49152 0.24576-91.05408 52.92032-0.49152-0.24576" fill="#FFE299" p-id="4637"></path><path d="M407.92064 391.72096l91.05408-52.92032 0.36864 0.2048-91.05408 52.92032-0.36864-0.2048" fill="#FFE299" p-id="4638"></path><path d="M486.46144 524.65664l91.05408-52.92032v0.04096l-91.05408 52.92032v-0.04096M486.46144 524.6976l91.05408-52.92032-0.02048 0.57344-91.05408 52.92032 0.02048-0.57344M486.44096 525.27104l91.05408-52.92032-0.04096 0.55296-91.05408 52.92032c0.04096-0.18432 0.04096-0.36864 0.04096-0.55296M486.42048 525.824l91.05408-52.92032-0.06144 0.57344-91.05408 52.92032 0.06144-0.57344" fill="#FFE299" p-id="4639"></path><path d="M486.35904 526.37696l91.05408-52.92032-0.08192 0.57344-91.05408 52.92032 0.08192-0.57344" fill="#FFE299" p-id="4640"></path><path d="M486.27712 526.9504l91.05408-52.92032-0.12288 0.57344-91.05408 52.92032 0.12288-0.57344" fill="#FFE299" p-id="4641"></path><path d="M486.15424 527.52384l91.05408-52.92032a6.81984 6.81984 0 0 1-0.16384 0.6144l-91.05408 52.92032a6.81984 6.81984 0 0 0 0.16384-0.6144M485.9904 528.13824l91.05408-52.92032-0.2048 0.6144-91.05408 52.92032 0.2048-0.6144" fill="#FFE299" p-id="4642"></path><path d="M485.7856 528.75264l91.05408-52.92032-0.28672 0.67584-91.05408 52.92032a5.16096 5.16096 0 0 0 0.28672-0.67584" fill="#FFE299" p-id="4643"></path><path d="M485.49888 529.42848l91.05408-52.92032a10.48576 10.48576 0 0 1-0.45056 0.8192l-91.05408 52.92032a5.24288 5.24288 0 0 0 0.45056-0.8192" fill="#FFE299" p-id="4644"></path><path d="M485.04832 530.24768l91.05408-52.92032a6.10304 6.10304 0 0 1-2.06848 2.02752l-91.05408 52.92032a5.9392 5.9392 0 0 0 2.06848-2.02752" fill="#FFE299" p-id="4645"></path><path d="M462.80704 450.84672l91.05408-52.89984-0.16384 60.04736-91.05408 52.92032z" fill="#FFE299" p-id="4646"></path><path d="M408.20736 419.328l91.05408-52.92032 54.59968 31.5392-91.05408 52.89984z" fill="#FFE299" p-id="4647"></path><path d="M399.9744 338.16576l91.05408-52.92032a6.10304 6.10304 0 0 0-2.06848 2.02752l-91.05408 52.92032a5.75488 5.75488 0 0 1 2.06848-2.02752" fill="#FFE299" p-id="4648"></path><path d="M397.88544 340.19328l91.05408-52.92032a10.48576 10.48576 0 0 0-0.45056 0.8192l-91.05408 52.92032a7.74144 7.74144 0 0 1 0.45056-0.8192" fill="#FFE299" p-id="4649"></path><path d="M397.43488 341.01248l91.05408-52.92032-0.28672 0.67584-91.05408 52.92032 0.28672-0.67584M397.16864 341.68832l91.05408-52.92032-0.2048 0.6144-91.05408 52.92032a3.60448 3.60448 0 0 1 0.2048-0.6144" fill="#FFE299" p-id="4650"></path><path d="M396.94336 342.30272l91.05408-52.92032-0.16384 0.6144-91.05408 52.92032 0.16384-0.6144M396.8 342.91712l91.05408-52.92032-0.12288 0.57344-91.05408 52.92032 0.12288-0.57344" fill="#FFE299" p-id="4651"></path><path d="M396.67712 343.49056l91.05408-52.92032a4.83328 4.83328 0 0 0-0.08192 0.57344L396.5952 344.064a4.83328 4.83328 0 0 1 0.08192-0.57344M396.5952 344.064l91.05408-52.92032-0.06144 0.57344-91.05408 52.92032 0.06144-0.57344" fill="#FFE299" p-id="4652"></path><path d="M396.53376 344.61696l91.05408-52.92032-0.04096 0.55296-91.05408 52.92032 0.04096-0.55296M396.4928 345.1904l91.05408-52.92032-0.02048 0.57344-91.05408 52.92032 0.02048-0.57344" fill="#FFE299" p-id="4653"></path><path d="M396.4928 345.74336l91.05408-52.92032V293.39648L396.4928 346.3168v-0.53248-0.04096M396.4928 346.3168l91.05408-52.92032 0.02048 0.57344-91.05408 52.92032-0.02048-0.57344" fill="#FFE299" p-id="4654"></path><path d="M396.51328 346.89024l91.05408-52.92032 0.04096 0.57344-91.05408 52.92032-0.04096-0.57344M396.57472 347.46368l91.05408-52.92032 0.06144 0.57344-91.05408 52.92032-0.06144-0.57344" fill="#FFE299" p-id="4655"></path><path d="M396.63616 348.03712l91.05408-52.92032 0.08192 0.59392-91.05408 52.92032a5.91872 5.91872 0 0 1-0.08192-0.59392" fill="#FFE299" p-id="4656"></path><path d="M396.71808 348.63104l91.05408-52.92032 0.1024 0.59392-91.05408 52.92032-0.1024-0.59392M396.82048 349.22496l91.05408-52.92032 0.12288 0.6144-91.05408 52.92032-0.12288-0.6144" fill="#FFE299" p-id="4657"></path><path d="M396.94336 349.83936l91.05408-52.92032 0.14336 0.6144-91.05408 52.92032-0.14336-0.6144M397.08672 350.47424l91.05408-52.92032 0.16384 0.63488-91.05408 52.92032-0.16384-0.63488" fill="#FFE299" p-id="4658"></path><path d="M397.25056 351.10912l91.05408-52.92032 0.18432 0.63488-91.05408 52.92032-0.18432-0.63488" fill="#FFE299" p-id="4659"></path><path d="M397.43488 351.72352l91.05408-52.92032 0.2048 0.6144-91.05408 52.92032-0.2048-0.6144M397.63968 352.33792l91.05408-52.92032 0.2048 0.6144-91.05408 52.92032-0.2048-0.6144" fill="#FFE299" p-id="4660"></path><path d="M397.84448 352.95232l91.05408-52.92032 0.22528 0.59392-91.05408 52.92032-0.22528-0.59392M398.06976 353.54624l91.05408-52.92032 0.22528 0.57344-91.05408 52.92032-0.22528-0.57344" fill="#FFE299" p-id="4661"></path><path d="M398.29504 354.11968l91.05408-52.92032 0.24576 0.57344-91.05408 52.92032-0.24576-0.57344" fill="#FFE299" p-id="4662"></path><path d="M398.5408 354.69312l91.05408-52.92032 0.26624 0.57344-91.05408 52.92032-0.26624-0.57344" fill="#FFE299" p-id="4663"></path><path d="M398.80704 355.26656l91.05408-52.92032 0.3072 0.63488-91.05408 52.92032-0.3072-0.63488" fill="#FFE299" p-id="4664"></path><path d="M399.11424 355.90144l91.05408-52.92032 0.36864 0.7168-91.05408 52.92032-0.36864-0.7168" fill="#FFE299" p-id="4665"></path><path d="M399.48288 356.61824l91.05408-52.92032 0.59392 1.06496-91.05408 52.92032a27.70944 27.70944 0 0 1-0.59392-1.06496M400.0768 357.6832l91.05408-52.92032a16.56832 16.56832 0 0 0 0.90112 1.41312l-91.05408 52.92032-0.90112-1.41312" fill="#FFE299" p-id="4666"></path><path d="M400.97792 359.09632l91.05408-52.92032a20.48 20.48 0 0 0 0.75776 1.08544l-91.05408 52.92032-0.75776-1.08544M401.73568 360.18176l91.05408-52.92032a15.74912 15.74912 0 0 0 0.53248 0.69632l-91.05408 52.92032a15.74912 15.74912 0 0 1-0.53248-0.69632" fill="#FFE299" p-id="4667"></path><path d="M402.26816 360.87808l91.05408-52.92032a11.59168 11.59168 0 0 0 0.47104 0.57344l-91.05408 52.92032a11.59168 11.59168 0 0 1-0.47104-0.57344" fill="#FFE299" p-id="4668"></path><path d="M402.71872 361.45152l91.05408-52.92032 0.45056 0.53248-91.05408 52.92032a10.38336 10.38336 0 0 0-0.45056-0.53248M403.18976 361.984l91.05408-52.92032a10.71104 10.71104 0 0 0 0.47104 0.512L403.64032 362.496l-0.45056-0.512" fill="#FFE299" p-id="4669"></path><path d="M403.64032 362.496l91.05408-52.92032 0.49152 0.512-91.05408 52.92032-0.49152-0.512" fill="#FFE299" p-id="4670"></path><path d="M404.13184 363.008l91.05408-52.92032 0.49152 0.49152-91.05408 52.92032-0.49152-0.49152M404.64384 363.49952l91.05408-52.92032 0.512 0.49152-91.05408 52.92032-0.512-0.49152M405.15584 363.99104l91.05408-52.92032a10.38336 10.38336 0 0 0 0.53248 0.45056l-91.05408 52.92032a10.38336 10.38336 0 0 1-0.53248-0.45056M405.68832 364.46208l91.05408-52.92032 0.53248 0.43008-91.05408 52.92032-0.53248-0.43008" fill="#FFE299" p-id="4671"></path><path d="M406.2208 364.89216l91.05408-52.92032 0.512 0.38912-91.05408 52.92032-0.512-0.38912" fill="#FFE299" p-id="4672"></path><path d="M406.7328 365.28128l91.05408-52.92032 0.512 0.36864-91.05408 52.92032-0.512-0.36864M407.2448 365.64992l91.05408-52.92032 0.49152 0.32768-91.05408 52.92032-0.49152-0.32768" fill="#FFE299" p-id="4673"></path><path d="M407.73632 365.9776l91.05408-52.92032 0.49152 0.3072-91.05408 52.92032a5.16096 5.16096 0 0 0-0.49152-0.3072M408.24832 366.2848l91.05408-52.92032 0.1024 0.06144-91.05408 52.92032-0.1024-0.06144" fill="#FFE299" p-id="4674"></path><path d="M399.9744 338.16576l91.05408-52.92032a5.85728 5.85728 0 0 1 0.96256-0.45056l-91.05408 52.92032a5.85728 5.85728 0 0 0-0.96256 0.45056" fill="#FFE299" p-id="4675"></path><path d="M400.93696 337.7152l91.05408-52.92032c0.26624-0.1024 0.55296-0.16384 0.83968-0.22528l-91.05408 52.92032a4.25984 4.25984 0 0 0-0.83968 0.22528" fill="#FFE299" p-id="4676"></path><path d="M401.77664 337.48992l91.05408-52.92032a7.10656 7.10656 0 0 1 0.69632-0.1024l-91.05408 52.92032a3.80928 3.80928 0 0 0-0.69632 0.1024M402.47296 337.38752l91.05408-52.92032 0.6144-0.02048-91.05408 52.92032a3.072 3.072 0 0 0-0.6144 0.02048" fill="#FFE299" p-id="4677"></path><path d="M403.08736 337.34656l91.05408-52.92032 0.55296 0.02048-91.05408 52.92032-0.55296-0.02048M403.6608 337.36704l91.05408-52.92032 0.53248 0.06144-91.05408 52.92032a40.7552 40.7552 0 0 1-0.53248-0.06144" fill="#FFE299" p-id="4678"></path><path d="M404.1728 337.42848l91.05408-52.92032 0.512 0.08192-91.05408 52.92032a3.82976 3.82976 0 0 0-0.512-0.08192M404.70528 337.5104l91.05408-52.92032 0.49152 0.1024-91.05408 52.92032-0.49152-0.1024" fill="#FFE299" p-id="4679"></path><path d="M405.1968 337.6128l91.05408-52.92032 0.49152 0.14336-91.05408 52.92032-0.49152-0.14336" fill="#FFE299" p-id="4680"></path><path d="M405.68832 337.75616l91.05408-52.92032 0.47104 0.16384-91.05408 52.92032a6.5536 6.5536 0 0 0-0.47104-0.16384" fill="#FFE299" p-id="4681"></path><path d="M406.15936 337.92l91.05408-52.92032 0.47104 0.18432-91.05408 52.92032a2.78528 2.78528 0 0 0-0.47104-0.18432" fill="#FFE299" p-id="4682"></path><path d="M406.6304 338.08384l91.05408-52.92032a4.68992 4.68992 0 0 1 0.47104 0.2048l-91.05408 52.92032-0.47104-0.2048" fill="#FFE299" p-id="4683"></path><path d="M407.10144 338.28864l91.05408-52.92032a3.33824 3.33824 0 0 1 0.47104 0.22528l-91.05408 52.92032-0.47104-0.22528M407.57248 338.51392l91.05408-52.92032 0.49152 0.24576-91.05408 52.92032-0.49152-0.24576" fill="#FFE299" p-id="4684"></path><path d="M408.064 338.75968l91.05408-52.92032 0.36864 0.2048-91.05408 52.92032-0.36864-0.2048" fill="#FFE299" p-id="4685"></path><path d="M486.62528 464.60928l91.05408-52.92032-0.16384 60.04736-91.05408 52.92032zM408.28928 391.94624l91.05408-52.92032 54.59968 31.51872-91.05408 52.92032z" fill="#FFE299" p-id="4686"></path><path d="M408.35072 366.34624l91.05408-52.92032 54.62016 31.5392-91.05408 52.89984z" fill="#FFE299" p-id="4687"></path><path d="M462.97088 397.86496l91.05408-52.89984-0.08192 25.57952-91.05408 52.92032zM408.43264 338.96448l91.05408-52.89984 49.80736 28.75392-91.05408 52.89984z" fill="#FFE299" p-id="4688"></path><path d="M412.24192 285.06112l91.05408-52.92032 45.99808 82.67776-91.05408 52.89984zM486.78912 411.62752l91.05408-52.92032-0.08192 25.6-91.05408 52.89984zM486.62528 464.60928l91.05408-52.92032 54.62016 31.51872-91.05408 52.92032z" fill="#FFE299" p-id="4689"></path><path d="M412.48768 266.11712l91.05408-52.92032a6.00064 6.00064 0 0 0-2.048 2.00704l-91.05408 52.92032a6.00064 6.00064 0 0 1 2.048-2.00704M410.43968 268.12416l91.05408-52.92032a4.95616 4.95616 0 0 0-0.43008 0.79872l-91.05408 52.92032a7.61856 7.61856 0 0 1 0.43008-0.79872" fill="#FFE299" p-id="4690"></path><path d="M409.98912 268.92288l91.05408-52.92032-0.28672 0.69632-91.05408 52.92032a7.0656 7.0656 0 0 1 0.28672-0.69632M409.7024 269.6192l91.05408-52.92032a5.75488 5.75488 0 0 0-0.2048 0.63488l-91.05408 52.92032a5.75488 5.75488 0 0 1 0.2048-0.63488M409.4976 270.25408l91.05408-52.92032-0.16384 0.6144-91.05408 52.92032 0.16384-0.6144" fill="#FFE299" p-id="4691"></path><path d="M409.33376 270.86848l91.05408-52.92032-0.12288 0.59392-91.05408 52.92032 0.12288-0.59392" fill="#FFE299" p-id="4692"></path><path d="M409.21088 271.4624l91.05408-52.92032-0.08192 0.57344-91.05408 52.92032 0.08192-0.57344M409.12896 272.03584l91.05408-52.92032-0.06144 0.57344-91.05408 52.92032 0.06144-0.57344" fill="#FFE299" p-id="4693"></path><path d="M409.06752 272.60928l91.05408-52.92032-0.04096 0.57344-91.05408 52.92032 0.04096-0.57344M409.04704 273.18272l91.05408-52.92032-0.02048 0.57344-91.05408 52.92032 0.02048-0.57344M409.02656 273.75616l91.05408-52.92032v0.57344l-91.05408 52.92032v-0.57344" fill="#FFE299" p-id="4694"></path><path d="M409.02656 274.3296l91.05408-52.92032 0.02048 0.57344-91.05408 52.92032-0.02048-0.57344M409.06752 274.90304l91.05408-52.92032 0.04096 0.59392-91.05408 52.92032-0.04096-0.59392" fill="#FFE299" p-id="4695"></path><path d="M409.10848 275.49696l91.05408-52.92032 0.06144 0.59392-91.05408 52.92032a56.36096 56.36096 0 0 0-0.06144-0.59392" fill="#FFE299" p-id="4696"></path><path d="M409.16992 276.0704l91.05408-52.92032 0.08192 0.59392-91.05408 52.92032-0.08192-0.59392M409.25184 276.6848l91.05408-52.92032 0.1024 0.6144-91.05408 52.92032-0.1024-0.6144" fill="#FFE299" p-id="4697"></path><path d="M409.35424 277.2992l91.05408-52.92032 0.12288 0.6144-91.05408 52.92032-0.12288-0.6144M409.4976 277.9136l91.05408-52.92032 0.14336 0.63488-91.05408 52.92032-0.14336-0.63488" fill="#FFE299" p-id="4698"></path><path d="M409.64096 278.54848l91.05408-52.92032 0.16384 0.63488-91.05408 52.92032-0.16384-0.63488M409.8048 279.18336l91.05408-52.92032 0.18432 0.63488-91.05408 52.92032a25.4976 25.4976 0 0 0-0.18432-0.63488" fill="#FFE299" p-id="4699"></path><path d="M409.98912 279.79776l91.05408-52.92032 0.2048 0.6144-91.05408 52.92032-0.2048-0.6144" fill="#FFE299" p-id="4700"></path><path d="M410.17344 280.41216l91.05408-52.92032 0.2048 0.59392-91.05408 52.92032-0.2048-0.59392M410.37824 281.00608l91.05408-52.92032 0.22528 0.59392-91.05408 52.92032-0.22528-0.59392" fill="#FFE299" p-id="4701"></path><path d="M410.60352 281.6l91.05408-52.92032 0.22528 0.55296-91.05408 52.92032-0.22528-0.55296M410.8288 282.15296l91.05408-52.92032 0.24576 0.57344-91.05408 52.92032-0.24576-0.57344" fill="#FFE299" p-id="4702"></path><path d="M411.07456 282.7264l91.05408-52.92032 0.26624 0.57344-91.05408 52.92032-0.26624-0.57344" fill="#FFE299" p-id="4703"></path><path d="M411.3408 283.29984l91.05408-52.92032 0.28672 0.59392-91.05408 52.92032-0.28672-0.59392M411.62752 283.89376l91.05408-52.92032a12.8 12.8 0 0 0 0.38912 0.73728l-91.05408 52.92032a12.8 12.8 0 0 1-0.38912-0.73728" fill="#FFE299" p-id="4704"></path><path d="M411.99616 284.63104l91.05408-52.92032 0.24576 0.43008-91.05408 52.92032-0.24576-0.43008" fill="#FFE299" p-id="4705"></path><path d="M541.24544 496.128l91.05408-52.92032 0.36864 0.2048-91.05408 52.92032-0.36864-0.2048" fill="#FFE299" p-id="4706"></path><path d="M541.61408 496.3328l91.05408-52.92032 0.49152 0.24576-91.05408 52.92032a2.74432 2.74432 0 0 1-0.49152-0.24576M542.08512 496.59904l91.05408-52.92032 0.47104 0.22528-91.05408 52.92032a3.33824 3.33824 0 0 0-0.47104-0.22528M542.57664 496.82432l91.05408-52.92032 0.47104 0.2048-91.05408 52.92032-0.47104-0.2048" fill="#FFE299" p-id="4707"></path><path d="M543.04768 497.00864l91.05408-52.92032a11.42784 11.42784 0 0 1 0.47104 0.18432l-91.05408 52.92032-0.47104-0.18432M543.51872 497.19296l91.05408-52.92032 0.47104 0.16384-91.05408 52.92032-0.47104-0.16384M543.98976 497.3568l91.05408-52.92032 0.49152 0.14336-91.05408 52.92032a4.44416 4.44416 0 0 0-0.49152-0.14336" fill="#FFE299" p-id="4708"></path><path d="M544.48128 497.47968l91.05408-52.92032a4.1984 4.1984 0 0 0 0.49152 0.1024l-91.05408 52.92032-0.49152-0.1024M544.9728 497.60256l91.05408-52.92032 0.512 0.08192-91.05408 52.92032-0.512-0.08192" fill="#FFE299" p-id="4709"></path><path d="M545.4848 497.68448l91.05408-52.92032 0.53248 0.06144-91.05408 52.92032-0.53248-0.06144" fill="#FFE299" p-id="4710"></path><path d="M546.01728 497.72544l91.05408-52.92032 0.55296 0.02048-91.05408 52.92032-0.55296-0.02048M546.59072 497.74592l91.05408-52.92032 0.6144-0.02048-91.05408 52.92032-0.6144 0.02048M547.20512 497.72544l91.05408-52.92032a8.15104 8.15104 0 0 0 0.69632-0.1024l-91.05408 52.92032-0.69632 0.1024" fill="#FFE299" p-id="4711"></path><path d="M547.88096 497.62304l91.05408-52.92032a10.0352 10.0352 0 0 0 0.83968-0.22528l-91.05408 52.92032a10.0352 10.0352 0 0 1-0.83968 0.22528" fill="#FFE299" p-id="4712"></path><path d="M548.72064 497.39776l91.05408-52.92032a5.16096 5.16096 0 0 0 0.96256-0.45056l-91.05408 52.92032a4.62848 4.62848 0 0 1-0.96256 0.45056" fill="#FFE299" p-id="4713"></path><path d="M412.48768 266.11712l91.05408-52.92032 0.26624-0.14336a5.16096 5.16096 0 0 1 0.69632-0.3072l-91.05408 52.92032a4.23936 4.23936 0 0 0-0.69632 0.3072l-0.26624 0.14336M413.47072 265.66656l91.05408-52.92032a5.36576 5.36576 0 0 1 0.8192-0.22528l-91.05408 52.92032-0.8192 0.22528M414.28992 265.46176l91.05408-52.92032 0.67584-0.1024-91.05408 52.92032a5.89824 5.89824 0 0 0-0.67584 0.1024" fill="#FFE299" p-id="4714"></path><path d="M414.96576 265.35936l91.05408-52.92032 0.59392-0.02048-91.05408 52.92032-0.59392 0.02048M415.55968 265.33888l91.05408-52.92032 0.55296 0.02048-91.05408 52.92032-0.55296-0.02048M416.11264 265.35936l91.05408-52.92032 0.53248 0.06144-91.05408 52.92032a2.23232 2.23232 0 0 0-0.53248-0.06144" fill="#FFE299" p-id="4715"></path><path d="M416.64512 265.40032l91.05408-52.92032 0.512 0.08192-91.05408 52.92032-0.512-0.08192" fill="#FFE299" p-id="4716"></path><path d="M417.15712 265.48224l91.05408-52.92032 0.49152 0.1024-91.05408 52.92032a5.28384 5.28384 0 0 1-0.49152-0.1024M417.66912 265.60512l91.05408-52.92032 0.49152 0.14336-91.05408 52.92032a4.44416 4.44416 0 0 0-0.49152-0.14336" fill="#FFE299" p-id="4717"></path><path d="M418.16064 265.728l91.05408-52.92032a4.608 4.608 0 0 1 0.49152 0.16384l-91.05408 52.92032-0.49152-0.16384" fill="#FFE299" p-id="4718"></path><path d="M418.63168 265.89184l91.05408-52.92032 0.49152 0.18432-91.05408 52.92032-0.49152-0.18432" fill="#FFE299" p-id="4719"></path><path d="M419.1232 266.07616l91.05408-52.92032a4.99712 4.99712 0 0 1 0.49152 0.2048l-91.05408 52.92032-0.49152-0.2048" fill="#FFE299" p-id="4720"></path><path d="M419.59424 266.28096l91.05408-52.92032 0.49152 0.22528-91.05408 52.92032-0.49152-0.22528" fill="#FFE299" p-id="4721"></path><path d="M420.08576 266.50624l91.05408-52.92032 0.49152 0.24576-91.05408 52.92032-0.49152-0.24576M420.57728 266.77248l91.05408-52.92032 0.38912 0.2048-91.05408 52.92032a7.49568 7.49568 0 0 0-0.38912-0.2048" fill="#FFE299" p-id="4722"></path><path d="M486.7072 437.20704l91.05408-52.89984 54.59968 31.51872-91.05408 52.92032z" fill="#FFE299" p-id="4723"></path><path d="M429.60896 276.23424l91.0336-52.92032 45.21984 81.24416-91.05408 52.92032z" fill="#FFE299" p-id="4724"></path><path d="M420.94592 266.97728L512 214.05696l0.12288 0.06144-91.05408 52.92032-0.12288-0.06144" fill="#FFE299" p-id="4725"></path><path d="M421.0688 267.03872l91.05408-52.92032 0.49152 0.3072-91.05408 52.92032-0.49152-0.3072M421.5808 267.34592l91.05408-52.92032 0.512 0.32768-91.05408 52.92032-0.512-0.32768M422.07232 267.69408l91.05408-52.92032a11.07968 11.07968 0 0 1 0.512 0.36864l-91.05408 52.92032a2.94912 2.94912 0 0 0-0.512-0.36864M422.6048 268.06272l91.05408-52.92032 0.53248 0.4096-91.05408 52.92032-0.53248-0.4096" fill="#FFE299" p-id="4726"></path><path d="M423.13728 268.45184l91.05408-52.92032 0.53248 0.43008-91.05408 52.92032-0.53248-0.43008M423.66976 268.9024l91.05408-52.92032a5.8368 5.8368 0 0 1 0.53248 0.47104l-91.05408 52.92032a5.8368 5.8368 0 0 0-0.53248-0.47104" fill="#FFE299" p-id="4727"></path><path d="M424.20224 269.37344l91.05408-52.92032 0.53248 0.49152-91.05408 52.92032a12.5952 12.5952 0 0 0-0.53248-0.49152M424.73472 269.86496l91.05408-52.92032 0.512 0.512-91.05408 52.92032a6.0416 6.0416 0 0 0-0.512-0.512" fill="#FFE299" p-id="4728"></path><path d="M425.24672 270.37696l91.05408-52.92032 0.49152 0.512-91.05408 52.92032-0.49152-0.512" fill="#FFE299" p-id="4729"></path><path d="M425.73824 270.86848l91.05408-52.92032 0.47104 0.512-91.05408 52.92032-0.47104-0.512M426.20928 271.40096l91.05408-52.92032 0.45056 0.53248-91.05408 52.92032-0.45056-0.53248" fill="#FFE299" p-id="4730"></path><path d="M426.65984 271.91296l91.05408-52.92032 0.45056 0.55296-91.05408 52.92032a10.69056 10.69056 0 0 1-0.45056-0.55296M427.1104 272.4864l91.05408-52.92032 0.49152 0.65536-91.05408 52.92032-0.49152-0.65536" fill="#FFE299" p-id="4731"></path><path d="M427.60192 273.12128l91.05408-52.92032 0.69632 0.98304-91.05408 52.92032-0.69632-0.98304" fill="#FFE299" p-id="4732"></path><path d="M428.29824 274.10432l91.05408-52.92032a17.98144 17.98144 0 0 1 1.00352 1.61792l-91.05408 52.92032c-0.3072-0.55296-0.65536-1.08544-1.00352-1.61792" fill="#FFE299" p-id="4733"></path><path d="M429.30176 275.72224l91.05408-52.92032 0.28672 0.512-91.05408 52.92032-0.28672-0.512" fill="#FFE299" p-id="4734"></path><path d="M541.30688 468.74624l91.05408-52.92032 0.12288 0.06144-91.05408 52.92032-0.12288-0.06144" fill="#FFE299" p-id="4735"></path><path d="M541.42976 468.80768l91.05408-52.92032 0.49152 0.3072-91.05408 52.92032-0.49152-0.3072" fill="#FFE299" p-id="4736"></path><path d="M541.92128 469.11488l91.05408-52.92032 0.49152 0.32768-91.05408 52.92032-0.49152-0.32768M542.43328 469.44256l91.05408-52.92032 0.512 0.36864-91.05408 52.92032-0.512-0.36864" fill="#FFE299" p-id="4737"></path><path d="M542.94528 469.8112l91.05408-52.92032 0.512 0.38912-91.05408 52.92032-0.512-0.38912" fill="#FFE299" p-id="4738"></path><path d="M543.45728 470.20032l91.05408-52.92032 0.53248 0.43008-91.05408 52.92032-0.53248-0.43008M543.98976 470.6304l91.05408-52.92032 0.53248 0.45056-91.05408 52.92032-0.53248-0.45056M544.52224 471.10144l91.05408-52.92032a11.83744 11.83744 0 0 1 0.512 0.49152l-91.05408 52.92032a5.67296 5.67296 0 0 0-0.512-0.49152" fill="#FFE299" p-id="4739"></path><path d="M545.03424 471.57248l91.05408-52.92032 0.49152 0.49152-91.05408 52.92032-0.49152-0.49152M545.54624 472.08448l91.05408-52.92032 0.49152 0.512-91.05408 52.92032-0.49152-0.512" fill="#FFE299" p-id="4740"></path><path d="M546.01728 472.59648l91.05408-52.92032 0.47104 0.512-91.05408 52.92032-0.47104-0.512M546.48832 473.10848l91.05408-52.92032a10.38336 10.38336 0 0 1 0.45056 0.53248l-91.05408 52.92032a5.632 5.632 0 0 0-0.45056-0.53248M546.95936 473.64096l91.05408-52.92032 0.47104 0.57344-91.05408 52.92032-0.47104-0.57344" fill="#FFE299" p-id="4741"></path><path d="M547.40992 474.2144l91.05408-52.92032 0.53248 0.69632-91.05408 52.92032-0.53248-0.69632M547.9424 474.91072l91.05408-52.92032 0.75776 1.08544-91.05408 52.92032-0.75776-1.08544" fill="#FFE299" p-id="4742"></path><path d="M548.70016 475.99616l91.05408-52.92032 0.90112 1.41312-91.05408 52.92032a23.83872 23.83872 0 0 0-0.90112-1.41312" fill="#FFE299" p-id="4743"></path><path d="M549.60128 477.40928l91.05408-52.92032 0.59392 1.06496-91.05408 52.92032-0.59392-1.06496M550.1952 478.47424l91.05408-52.92032 0.36864 0.7168-91.05408 52.92032-0.36864-0.7168" fill="#FFE299" p-id="4744"></path><path d="M550.56384 479.19104l91.05408-52.92032 0.3072 0.63488-91.05408 52.92032a18.57536 18.57536 0 0 0-0.3072-0.63488" fill="#FFE299" p-id="4745"></path><path d="M550.87104 479.82592l91.05408-52.92032 0.26624 0.57344-91.05408 52.92032-0.26624-0.57344" fill="#FFE299" p-id="4746"></path><path d="M551.1168 480.39936l91.05408-52.92032 0.24576 0.57344-91.05408 52.92032a2.84672 2.84672 0 0 0-0.24576-0.57344" fill="#FFE299" p-id="4747"></path><path d="M551.36256 480.9728l91.05408-52.92032a6.63552 6.63552 0 0 1 0.22528 0.57344l-91.05408 52.92032a6.63552 6.63552 0 0 0-0.22528-0.57344M551.60832 481.54624l91.05408-52.92032 0.22528 0.59392-91.05408 52.92032-0.22528-0.59392" fill="#FFE299" p-id="4748"></path><path d="M551.8336 482.14016l91.05408-52.92032 0.2048 0.6144-91.05408 52.92032-0.2048-0.6144" fill="#FFE299" p-id="4749"></path><path d="M552.0384 482.73408l91.05408-52.92032 0.2048 0.6144-91.05408 52.92032-0.2048-0.6144" fill="#FFE299" p-id="4750"></path><path d="M552.2432 483.34848l91.05408-52.92032 0.18432 0.63488-91.05408 52.92032a25.4976 25.4976 0 0 1-0.18432-0.63488M552.42752 483.98336l91.05408-52.92032 0.16384 0.63488-91.05408 52.92032-0.16384-0.63488" fill="#FFE299" p-id="4751"></path><path d="M552.59136 484.61824l91.05408-52.92032 0.14336 0.6144-91.05408 52.92032-0.14336-0.6144M552.73472 485.23264l91.05408-52.92032 0.12288 0.6144-91.05408 52.92032a16.26112 16.26112 0 0 1-0.12288-0.6144M552.8576 485.86752l91.05408-52.92032 0.1024 0.59392L552.96 486.46144l-0.1024-0.59392" fill="#FFE299" p-id="4752"></path><path d="M552.96 486.46144l91.05408-52.92032 0.08192 0.59392-91.05408 52.92032-0.08192-0.59392M553.04192 487.05536l91.05408-52.92032 0.06144 0.57344-91.05408 52.92032-0.06144-0.57344" fill="#FFE299" p-id="4753"></path><path d="M553.10336 487.6288l91.05408-52.92032a5.40672 5.40672 0 0 1 0.04096 0.57344l-91.05408 52.92032a5.40672 5.40672 0 0 0-0.04096-0.57344M553.14432 488.20224l91.05408-52.92032 0.02048 0.57344-91.05408 52.92032-0.02048-0.57344M553.18528 488.77568l91.05408-52.92032V436.4288l-91.05408 52.92032v-0.04096-0.53248" fill="#FFE299" p-id="4754"></path><path d="M553.18528 489.32864l91.05408-52.92032-0.02048 0.57344-91.05408 52.92032 0.02048-0.57344M553.1648 489.90208l91.05408-52.92032-0.04096 0.55296-91.05408 52.92032a4.36224 4.36224 0 0 0 0.04096-0.55296M553.14432 490.47552l91.05408-52.92032-0.06144 0.57344-91.05408 52.92032a50.7904 50.7904 0 0 1 0.06144-0.57344" fill="#FFE299" p-id="4755"></path><path d="M553.08288 491.02848l91.05408-52.92032-0.08192 0.57344-91.05408 52.92032 0.08192-0.57344M553.00096 491.60192l91.05408-52.92032-0.12288 0.57344-91.05408 52.92032 0.12288-0.57344" fill="#FFE299" p-id="4756"></path><path d="M552.87808 492.17536l91.05408-52.92032a6.81984 6.81984 0 0 1-0.16384 0.6144l-91.05408 52.92032 0.16384-0.6144" fill="#FFE299" p-id="4757"></path><path d="M552.71424 492.78976l91.05408-52.92032a5.75488 5.75488 0 0 1-0.2048 0.63488l-91.05408 52.92032a5.75488 5.75488 0 0 0 0.2048-0.63488M552.50944 493.42464l91.05408-52.92032-0.28672 0.67584-91.05408 52.92032a9.5232 9.5232 0 0 0 0.28672-0.67584" fill="#FFE299" p-id="4758"></path><path d="M552.22272 494.10048l91.05408-52.92032a10.48576 10.48576 0 0 1-0.45056 0.8192l-91.05408 52.92032c0.16384-0.26624 0.32768-0.53248 0.45056-0.8192" fill="#FFE299" p-id="4759"></path><path d="M551.77216 494.91968l91.05408-52.92032a5.9392 5.9392 0 0 1-2.06848 2.02752l-91.05408 52.92032a6.10304 6.10304 0 0 0 2.06848-2.02752" fill="#FFE299" p-id="4760"></path><path d="M311.27552 181.92384l91.05408-52.92032a123.53536 123.53536 0 0 1 20.70528-9.56416L331.9808 172.35968a122.79808 122.79808 0 0 0-20.70528 9.56416" fill="#FFE299" p-id="4761"></path><path d="M331.96032 172.35968l91.05408-52.92032c5.91872-2.08896 12.16512-3.82976 18.7392-5.14048l-91.05408 52.92032a136.37632 136.37632 0 0 0-18.7392 5.14048" fill="#FFE299" p-id="4762"></path><path d="M350.69952 167.2192l91.05408-52.92032c5.18144-1.04448 10.58816-1.82272 16.22016-2.33472l-91.05408 52.92032a152.9856 152.9856 0 0 0-16.22016 2.33472" fill="#FFE299" p-id="4763"></path><path d="M366.91968 164.88448l91.05408-52.92032a165.0688 165.0688 0 0 1 12.14464-0.67584l-91.05408 52.92032c-4.15744 0.08192-8.192 0.3072-12.14464 0.67584" fill="#FFE299" p-id="4764"></path><path d="M486.78912 411.62752l91.05408-52.92032 54.59968 31.5392-91.05408 52.89984z" fill="#FFE299" p-id="4765"></path><path d="M541.3888 443.14624l91.05408-52.92032 0.36864 0.2048-91.05408 52.92032-0.36864-0.2048" fill="#FFE299" p-id="4766"></path><path d="M541.75744 443.35104l91.05408-52.92032 0.49152 0.24576-91.05408 52.92032a2.74432 2.74432 0 0 1-0.49152-0.24576M542.24896 443.61728l91.05408-52.92032 0.47104 0.22528-91.05408 52.92032-0.47104-0.22528" fill="#FFE299" p-id="4767"></path><path d="M542.72 443.84256l91.05408-52.92032 0.47104 0.2048-91.05408 52.92032a4.68992 4.68992 0 0 0-0.47104-0.2048" fill="#FFE299" p-id="4768"></path><path d="M543.19104 444.02688l91.05408-52.92032a11.42784 11.42784 0 0 1 0.47104 0.18432l-91.05408 52.92032-0.47104-0.18432" fill="#FFE299" p-id="4769"></path><path d="M543.66208 444.2112l91.05408-52.92032 0.47104 0.16384-91.05408 52.92032-0.47104-0.16384M544.1536 444.37504l91.05408-52.92032 0.49152 0.14336-91.05408 52.92032a4.44416 4.44416 0 0 0-0.49152-0.14336" fill="#FFE299" p-id="4770"></path><path d="M544.62464 444.49792l91.05408-52.92032a4.1984 4.1984 0 0 0 0.49152 0.1024l-91.05408 52.92032a4.1984 4.1984 0 0 1-0.49152-0.1024M545.11616 444.6208l91.05408-52.92032 0.512 0.08192-91.05408 52.92032-0.512-0.08192M545.64864 444.70272l91.05408-52.92032 0.53248 0.06144-91.05408 52.92032a40.7552 40.7552 0 0 1-0.53248-0.06144" fill="#FFE299" p-id="4771"></path><path d="M546.18112 444.74368l91.05408-52.92032 0.55296 0.02048-91.05408 52.92032-0.55296-0.02048" fill="#FFE299" p-id="4772"></path><path d="M546.73408 444.76416l91.05408-52.92032 0.6144-0.02048-91.05408 52.92032-0.6144 0.02048" fill="#FFE299" p-id="4773"></path><path d="M547.34848 444.74368l91.05408-52.92032a8.15104 8.15104 0 0 0 0.69632-0.1024l-91.05408 52.92032-0.69632 0.1024" fill="#FFE299" p-id="4774"></path><path d="M548.0448 444.64128l91.05408-52.92032a10.0352 10.0352 0 0 0 0.83968-0.22528L548.88448 444.416a10.0352 10.0352 0 0 1-0.83968 0.22528" fill="#FFE299" p-id="4775"></path><path d="M548.88448 444.416l91.05408-52.92032a5.16096 5.16096 0 0 0 0.96256-0.45056l-91.05408 52.92032a5.85728 5.85728 0 0 1-0.96256 0.45056" fill="#FFE299" p-id="4776"></path><path d="M491.23328 386.78528l91.05408-52.92032 50.23744 28.99968-91.05408 52.92032z" fill="#FFE299" p-id="4777"></path><path d="M541.47072 415.78496l91.05408-52.92032 0.1024 0.06144-91.05408 52.92032-0.1024-0.06144M541.57312 415.8464l91.05408-52.92032 0.49152 0.3072-91.05408 52.92032a5.16096 5.16096 0 0 0-0.49152-0.3072M542.08512 416.1536l91.05408-52.92032 0.49152 0.32768-91.05408 52.92032-0.49152-0.32768" fill="#FFE299" p-id="4778"></path><path d="M542.57664 416.48128l91.05408-52.92032 0.512 0.36864-91.05408 52.92032a11.07968 11.07968 0 0 0-0.512-0.36864" fill="#FFE299" p-id="4779"></path><path d="M543.08864 416.84992l91.05408-52.92032 0.512 0.38912-91.05408 52.92032a4.8128 4.8128 0 0 0-0.512-0.38912M543.60064 417.23904l91.05408-52.92032 0.53248 0.43008-91.05408 52.92032a12.14464 12.14464 0 0 0-0.53248-0.43008" fill="#FFE299" p-id="4780"></path><path d="M544.13312 417.66912l91.05408-52.92032 0.53248 0.45056-91.05408 52.92032-0.53248-0.45056M544.6656 418.14016l91.05408-52.92032a11.83744 11.83744 0 0 1 0.512 0.49152L545.1776 418.6112l-0.512-0.47104" fill="#FFE299" p-id="4781"></path><path d="M545.1776 418.6112l91.05408-52.92032 0.49152 0.49152-91.05408 52.92032a5.57056 5.57056 0 0 0-0.49152-0.49152M545.6896 419.10272l91.05408-52.92032 0.49152 0.512-91.05408 52.92032a11.83744 11.83744 0 0 1-0.49152-0.512M546.18112 419.61472l91.05408-52.92032 0.47104 0.512-91.05408 52.92032-0.47104-0.512M546.63168 420.1472l91.05408-52.92032a10.38336 10.38336 0 0 1 0.45056 0.53248l-91.05408 52.92032-0.45056-0.53248M547.10272 420.67968l91.05408-52.92032 0.47104 0.57344-91.05408 52.92032-0.47104-0.57344" fill="#FFE299" p-id="4782"></path><path d="M547.55328 421.25312l91.05408-52.92032 0.53248 0.69632-91.05408 52.92032a8.92928 8.92928 0 0 0-0.53248-0.69632M548.08576 421.94944l91.05408-52.92032 0.75776 1.08544-91.05408 52.92032-0.75776-1.08544" fill="#FFE299" p-id="4783"></path><path d="M548.84352 423.0144l91.05408-52.92032 0.90112 1.41312-91.05408 52.92032a27.11552 27.11552 0 0 0-0.90112-1.41312M549.74464 424.448l91.05408-52.92032 0.59392 1.06496-91.05408 52.92032a17.79712 17.79712 0 0 0-0.59392-1.06496" fill="#FFE299" p-id="4784"></path><path d="M550.33856 425.51296l91.05408-52.92032 0.36864 0.7168-91.05408 52.92032-0.36864-0.7168M550.7072 426.22976l91.05408-52.92032 0.3072 0.63488-91.05408 52.92032a18.57536 18.57536 0 0 0-0.3072-0.63488" fill="#FFE299" p-id="4785"></path><path d="M551.0144 426.84416l91.05408-52.92032 0.26624 0.57344-91.05408 52.92032-0.26624-0.57344M551.28064 427.43808l91.05408-52.92032 0.24576 0.57344-91.05408 52.92032a16.0768 16.0768 0 0 0-0.24576-0.57344M551.5264 428.01152l91.05408-52.92032a6.63552 6.63552 0 0 1 0.22528 0.57344l-91.05408 52.92032a6.63552 6.63552 0 0 0-0.22528-0.57344M551.75168 428.58496l91.05408-52.92032 0.22528 0.59392-91.05408 52.92032-0.22528-0.59392M551.97696 429.17888l91.05408-52.92032 0.2048 0.6144-91.05408 52.92032a4.3008 4.3008 0 0 0-0.2048-0.6144" fill="#FFE299" p-id="4786"></path><path d="M552.18176 429.7728l91.05408-52.92032 0.2048 0.6144-91.05408 52.92032a7.20896 7.20896 0 0 0-0.2048-0.6144" fill="#FFE299" p-id="4787"></path><path d="M552.38656 430.3872l91.05408-52.92032 0.18432 0.63488-91.05408 52.92032a25.4976 25.4976 0 0 1-0.18432-0.63488" fill="#FFE299" p-id="4788"></path><path d="M552.57088 431.02208l91.05408-52.92032 0.16384 0.63488-91.05408 52.92032-0.16384-0.63488M552.73472 431.65696l91.05408-52.92032 0.14336 0.6144-91.05408 52.92032-0.14336-0.6144" fill="#FFE299" p-id="4789"></path><path d="M552.87808 432.27136l91.05408-52.92032 0.12288 0.6144-91.05408 52.92032-0.12288-0.6144M553.00096 432.90624l91.05408-52.92032 0.1024 0.59392-91.05408 52.92032a5.12 5.12 0 0 0-0.1024-0.59392M553.10336 433.50016l91.05408-52.92032 0.08192 0.59392-91.05408 52.92032a5.20192 5.20192 0 0 0-0.08192-0.59392" fill="#FFE299" p-id="4790"></path><path d="M553.18528 434.09408l91.05408-52.92032 0.06144 0.57344-91.05408 52.92032a2.72384 2.72384 0 0 0-0.06144-0.57344M553.2672 434.66752l91.05408-52.92032a5.40672 5.40672 0 0 1 0.04096 0.57344l-91.05408 52.92032a5.40672 5.40672 0 0 1-0.04096-0.57344M553.30816 435.24096l91.05408-52.92032 0.02048 0.57344-91.05408 52.92032-0.02048-0.57344M553.32864 435.8144l91.05408-52.92032V383.46752l-91.05408 52.92032v-0.04096-0.53248" fill="#FFE299" p-id="4791"></path><path d="M553.32864 436.36736l91.05408-52.92032-0.02048 0.57344-91.05408 52.92032 0.02048-0.57344M553.32864 436.9408l91.05408-52.92032-0.04096 0.55296-91.05408 52.92032 0.04096-0.55296" fill="#FFE299" p-id="4792"></path><path d="M553.28768 437.49376l91.05408-52.92032-0.06144 0.57344-91.05408 52.92032a50.7904 50.7904 0 0 0 0.06144-0.57344M553.22624 438.0672l91.05408-52.92032-0.08192 0.57344-91.05408 52.92032 0.08192-0.57344" fill="#FFE299" p-id="4793"></path><path d="M553.14432 438.62016l91.05408-52.92032-0.12288 0.57344-91.05408 52.92032c0.06144-0.16384 0.08192-0.36864 0.12288-0.57344M553.02144 439.21408l91.05408-52.92032a6.81984 6.81984 0 0 1-0.16384 0.6144l-91.05408 52.92032a3.42016 3.42016 0 0 0 0.16384-0.6144" fill="#FFE299" p-id="4794"></path><path d="M552.87808 439.808l91.05408-52.92032-0.2048 0.6144-91.05408 52.92032 0.2048-0.6144M552.67328 440.44288l91.05408-52.92032-0.28672 0.67584-91.05408 52.92032 0.28672-0.67584" fill="#FFE299" p-id="4795"></path><path d="M552.38656 441.11872l91.05408-52.92032a10.48576 10.48576 0 0 1-0.45056 0.8192l-91.05408 52.92032a10.48576 10.48576 0 0 0 0.45056-0.8192" fill="#FFE299" p-id="4796"></path><path d="M551.936 441.93792l91.05408-52.92032a6.10304 6.10304 0 0 1-2.06848 2.02752l-91.05408 52.92032a6.28736 6.28736 0 0 0 2.06848-2.02752" fill="#FFE299" p-id="4797"></path><path d="M491.23328 386.78528l91.05408-52.92032 49.54112-25.23136-91.05408 52.92032z" fill="#FFE299" p-id="4798"></path><path d="M524.45184 332.20608l91.05408-52.92032a4.44416 4.44416 0 0 1 0.7168-0.3072l-91.05408 52.92032a4.44416 4.44416 0 0 0-0.7168 0.3072" fill="#FFE299" p-id="4799"></path><path d="M525.16864 331.89888l91.05408-52.92032a9.56416 9.56416 0 0 1 0.8192-0.22528l-91.05408 52.92032-0.8192 0.22528M525.98784 331.69408l91.05408-52.92032 0.67584-0.1024-91.05408 52.92032a3.33824 3.33824 0 0 0-0.67584 0.1024" fill="#FFE299" p-id="4800"></path><path d="M526.6432 331.59168l91.05408-52.92032 0.59392-0.02048-91.05408 52.92032-0.59392 0.02048M527.2576 331.5712l91.05408-52.92032 0.55296 0.02048-91.05408 52.92032-0.55296-0.02048" fill="#FFE299" p-id="4801"></path><path d="M527.81056 331.5712l91.05408-52.92032 0.53248 0.06144-91.05408 52.92032-0.53248-0.06144M528.34304 331.63264l91.05408-52.92032 0.512 0.08192-91.05408 52.92032-0.512-0.08192" fill="#FFE299" p-id="4802"></path><path d="M528.85504 331.71456l91.05408-52.92032 0.49152 0.1024-91.05408 52.92032a4.1984 4.1984 0 0 1-0.49152-0.1024M529.34656 331.83744l91.05408-52.92032 0.49152 0.14336-91.05408 52.92032a4.44416 4.44416 0 0 0-0.49152-0.14336" fill="#FFE299" p-id="4803"></path><path d="M529.83808 331.96032l91.05408-52.92032a4.608 4.608 0 0 1 0.49152 0.16384l-91.05408 52.92032-0.49152-0.16384" fill="#FFE299" p-id="4804"></path><path d="M530.3296 332.12416l91.05408-52.92032 0.49152 0.18432-91.05408 52.92032-0.49152-0.18432" fill="#FFE299" p-id="4805"></path><path d="M530.80064 332.30848l91.05408-52.92032a4.99712 4.99712 0 0 1 0.49152 0.2048l-91.05408 52.92032-0.49152-0.2048M531.29216 332.51328l91.05408-52.92032 0.49152 0.22528-91.05408 52.92032a5.24288 5.24288 0 0 0-0.49152-0.22528" fill="#FFE299" p-id="4806"></path><path d="M531.78368 332.73856l91.05408-52.92032 0.49152 0.24576-91.05408 52.92032a5.48864 5.48864 0 0 1-0.49152-0.24576" fill="#FFE299" p-id="4807"></path><path d="M532.25472 332.98432l91.05408-52.92032 0.38912 0.2048 0.12288 0.06144-91.05408 52.92032-0.12288-0.06144-0.38912-0.2048M532.76672 333.27104l91.05408-52.92032 0.512 0.3072-91.05408 52.92032-0.512-0.3072" fill="#FFE299" p-id="4808"></path><path d="M533.25824 333.57824l91.05408-52.92032 0.512 0.32768-91.05408 52.92032-0.512-0.32768M533.77024 333.9264l91.05408-52.92032 0.53248 0.36864-91.05408 52.92032a4.15744 4.15744 0 0 0-0.53248-0.36864" fill="#FFE299" p-id="4809"></path><path d="M534.30272 334.29504l91.05408-52.92032 0.53248 0.4096-91.05408 52.92032a40.12032 40.12032 0 0 0-0.53248-0.4096" fill="#FFE299" p-id="4810"></path><path d="M534.8352 334.68416l91.05408-52.92032 0.53248 0.43008-91.05408 52.92032-0.53248-0.43008M535.36768 335.13472l91.05408-52.92032a5.8368 5.8368 0 0 1 0.53248 0.47104l-91.05408 52.92032-0.53248-0.47104M535.90016 335.60576l91.05408-52.92032 0.53248 0.49152-91.05408 52.92032-0.53248-0.49152M536.43264 336.09728l91.05408-52.92032 0.512 0.512-91.05408 52.92032-0.512-0.512" fill="#FFE299" p-id="4811"></path><path d="M536.94464 336.60928l91.05408-52.92032 0.49152 0.512-91.05408 52.92032-0.49152-0.512" fill="#FFE299" p-id="4812"></path><path d="M537.43616 337.12128l91.05408-52.92032 0.47104 0.512-91.05408 52.92032-0.47104-0.512" fill="#FFE299" p-id="4813"></path><path d="M537.88672 337.63328l91.05408-52.92032 0.45056 0.53248-91.05408 52.92032-0.45056-0.53248M538.35776 338.16576l91.05408-52.92032a6.16448 6.16448 0 0 1 0.45056 0.57344l-91.05408 52.92032-0.45056-0.57344" fill="#FFE299" p-id="4814"></path><path d="M538.80832 338.71872l91.05408-52.92032 0.49152 0.65536-91.05408 52.92032-0.49152-0.65536" fill="#FFE299" p-id="4815"></path><path d="M539.29984 339.37408l91.05408-52.92032 0.69632 0.98304-91.05408 52.92032a11.9808 11.9808 0 0 0-0.69632-0.98304" fill="#FFE299" p-id="4816"></path><path d="M539.99616 340.33664l91.05408-52.92032c0.34816 0.512 0.67584 1.04448 1.00352 1.59744l-91.05408 52.92032-1.00352-1.59744M540.99968 341.95456l91.05408-52.92032 0.28672 0.512 0.22528 0.4096-91.05408 52.92032-0.22528-0.4096a4.11648 4.11648 0 0 0-0.28672-0.512M541.51168 342.87616l91.05408-52.92032 0.38912 0.73728-91.05408 52.92032a12.8 12.8 0 0 0-0.38912-0.73728" fill="#FFE299" p-id="4817"></path><path d="M541.9008 343.61344l91.05408-52.92032 0.28672 0.59392-91.05408 52.92032-0.28672-0.59392M542.18752 344.20736l91.05408-52.92032 0.26624 0.57344-91.05408 52.92032-0.26624-0.57344M542.45376 344.80128l91.05408-52.92032 0.24576 0.57344-91.05408 52.92032-0.24576-0.57344" fill="#FFE299" p-id="4818"></path><path d="M542.69952 345.35424l91.05408-52.92032 0.22528 0.57344-91.05408 52.92032-0.22528-0.57344" fill="#FFE299" p-id="4819"></path><path d="M542.9248 345.92768l91.05408-52.92032 0.22528 0.59392-91.05408 52.92032-0.22528-0.59392M543.15008 346.5216l91.05408-52.92032 0.2048 0.59392-91.05408 52.92032-0.2048-0.59392" fill="#FFE299" p-id="4820"></path><path d="M543.35488 347.11552l91.05408-52.92032 0.2048 0.6144-91.05408 52.92032-0.2048-0.6144" fill="#FFE299" p-id="4821"></path><path d="M543.55968 347.72992l91.05408-52.92032 0.18432 0.63488-91.05408 52.92032-0.18432-0.63488" fill="#FFE299" p-id="4822"></path><path d="M543.72352 348.3648l91.05408-52.92032 0.16384 0.63488-91.05408 52.92032a5.7344 5.7344 0 0 0-0.16384-0.63488M543.90784 348.99968l91.05408-52.92032 0.14336 0.63488-91.05408 52.92032-0.14336-0.63488" fill="#FFE299" p-id="4823"></path><path d="M544.0512 349.61408l91.05408-52.92032 0.12288 0.6144-91.05408 52.92032a16.26112 16.26112 0 0 1-0.12288-0.6144M544.17408 350.24896l91.05408-52.92032 0.1024 0.6144-91.05408 52.92032a6.41024 6.41024 0 0 0-0.1024-0.6144" fill="#FFE299" p-id="4824"></path><path d="M544.27648 350.86336l91.05408-52.92032 0.08192 0.59392-91.05408 52.92032a5.91872 5.91872 0 0 0-0.08192-0.59392" fill="#FFE299" p-id="4825"></path><path d="M544.3584 351.45728l91.05408-52.92032 0.06144 0.59392-91.05408 52.92032a2.92864 2.92864 0 0 0-0.06144-0.59392M544.44032 352.0512l91.05408-52.92032 0.04096 0.57344-91.05408 52.92032a5.40672 5.40672 0 0 1-0.04096-0.57344" fill="#FFE299" p-id="4826"></path><path d="M544.48128 352.62464l91.05408-52.92032 0.02048 0.57344-91.05408 52.92032-0.02048-0.57344M544.50176 353.21856l91.05408-52.92032v0.57344l-91.05408 52.92032v-0.57344" fill="#FFE299" p-id="4827"></path><path d="M544.50176 353.77152l91.05408-52.92032-0.02048 0.57344-91.05408 52.92032 0.02048-0.57344M544.50176 354.34496l91.05408-52.92032a5.40672 5.40672 0 0 1-0.04096 0.57344l-91.05408 52.92032 0.04096-0.57344" fill="#FFE299" p-id="4828"></path><path d="M544.4608 354.9184l91.05408-52.92032-0.06144 0.57344-91.05408 52.92032 0.06144-0.57344M544.39936 355.49184l91.05408-52.92032-0.08192 0.57344-91.05408 52.92032a4.83328 4.83328 0 0 0 0.08192-0.57344" fill="#FFE299" p-id="4829"></path><path d="M544.31744 356.06528l91.05408-52.92032-0.12288 0.59392-91.05408 52.92032 0.12288-0.59392" fill="#FFE299" p-id="4830"></path><path d="M544.19456 356.6592l91.05408-52.92032a6.81984 6.81984 0 0 1-0.16384 0.6144l-91.05408 52.92032 0.16384-0.6144M544.03072 357.2736l91.05408-52.92032-0.2048 0.63488-91.05408 52.92032a5.75488 5.75488 0 0 0 0.2048-0.63488" fill="#FFE299" p-id="4831"></path><path d="M543.82592 357.90848L634.88 304.98816l-0.28672 0.69632-91.05408 52.92032a7.0656 7.0656 0 0 0 0.28672-0.69632" fill="#FFE299" p-id="4832"></path><path d="M543.5392 358.6048l91.05408-52.92032c-0.12288 0.28672-0.28672 0.55296-0.43008 0.79872l-91.05408 52.92032 0.43008-0.79872" fill="#FFE299" p-id="4833"></path><path d="M543.10912 359.40352l91.05408-52.92032a6.00064 6.00064 0 0 1-2.048 2.00704l-91.05408 52.92032a6.18496 6.18496 0 0 0 2.048-2.00704" fill="#FFE299" p-id="4834"></path><path d="M540.7744 361.55392l91.05408-52.92032 0.26624-0.14336-91.05408 52.92032-0.26624 0.14336" fill="#FFE299" p-id="4835"></path><path d="M474.80832 357.4784l91.05408-52.92032 49.64352-25.25184-91.05408 52.89984z" fill="#FFE299" p-id="4836"></path><path d="M420.94592 266.97728c3.1744 1.82272 6.32832 5.07904 8.64256 9.25696l45.21984 81.24416 49.64352-25.25184c2.29376-1.16736 5.24288-0.69632 8.192 1.00352 3.1744 1.82272 6.32832 5.07904 8.64256 9.25696 4.48512 8.06912 4.23936 16.65024-0.512 19.08736l-49.54112 25.23136 50.23744 28.99968c6.5536 3.7888 11.89888 13.04576 11.8784 20.56192-0.02048 7.51616-5.40672 10.58816-11.93984 6.79936L486.8096 411.648l-0.08192 25.6 54.59968 31.51872c6.5536 3.7888 11.89888 13.04576 11.8784 20.56192-0.02048 7.53664-5.40672 10.60864-11.93984 6.81984l-54.59968-31.51872-0.16384 60.04736c-0.02048 7.51616-5.40672 10.58816-11.93984 6.79936-6.5536-3.7888-11.89888-13.04576-11.8784-20.56192l0.16384-60.04736-54.59968-31.51872c-6.5536-3.7888-11.89888-13.04576-11.8784-20.5824 0.02048-7.51616 5.40672-10.58816 11.93984-6.81984l54.59968 31.51872 0.08192-25.6-54.59968-31.51872c-6.5536-3.7888-11.89888-13.04576-11.8784-20.56192 0.02048-7.51616 5.40672-10.58816 11.93984-6.81984l49.80736 28.75392-45.99808-82.65728c-4.48512-8.06912-4.23936-16.65024 0.512-19.08736 2.29376-1.16736 5.24288-0.69632 8.17152 1.00352z" fill="#FFFFFF" p-id="4837"></path><path d="M367.3088 69.7344L458.36288 16.81408a8.0896 8.0896 0 0 1 0.94208-0.47104l-91.05408 52.92032-0.94208 0.47104" fill="#FFE299" p-id="4838"></path><path d="M368.25088 69.26336L459.30496 16.34304a9.6256 9.6256 0 0 1 1.92512-0.6144l-91.05408 52.92032a14.09024 14.09024 0 0 0-1.92512 0.6144M370.19648 68.66944L461.25056 15.74912l1.06496-0.16384-91.05408 52.92032a5.79584 5.79584 0 0 0-1.06496 0.16384M371.26144 68.5056L462.31552 15.58528a10.09664 10.09664 0 0 1 1.1264-0.06144l-91.05408 52.92032a6.79936 6.79936 0 0 0-1.1264 0.06144" fill="#FFE299" p-id="4839"></path><path d="M372.38784 68.42368L463.44192 15.50336l1.20832 0.02048-91.05408 52.92032-1.20832-0.02048" fill="#FFE299" p-id="4840"></path><path d="M373.59616 68.44416L464.65024 15.52384l1.24928 0.12288-91.05408 52.92032a87.22432 87.22432 0 0 1-1.24928-0.12288" fill="#FFE299" p-id="4841"></path><path d="M374.82496 68.56704L465.87904 15.64672l1.16736 0.18432-91.05408 52.92032-1.16736-0.18432M375.99232 68.77184L467.0464 15.85152l1.20832 0.26624-91.05408 52.92032-1.20832-0.26624" fill="#FFE299" p-id="4842"></path><path d="M377.20064 69.03808L468.25472 16.11776l1.26976 0.34816-91.05408 52.92032-1.26976-0.34816" fill="#FFE299" p-id="4843"></path><path d="M378.4704 69.38624L469.52448 16.46592l1.3312 0.43008-91.05408 52.9408-1.3312-0.45056" fill="#FFE299" p-id="4844"></path><path d="M379.8016 69.8368L470.85568 16.91648l1.47456 0.55296-91.05408 52.92032a34.46784 34.46784 0 0 0-1.47456-0.55296M381.27616 70.38976L472.33024 17.46944l1.72032 0.73728-91.05408 52.92032a54.272 54.272 0 0 0-1.72032-0.73728" fill="#FFE299" p-id="4845"></path><path d="M382.99648 71.12704L474.05056 18.20672l1.80224 0.86016-91.05408 52.92032a68.77184 68.77184 0 0 0-1.80224-0.86016" fill="#FFE299" p-id="4846"></path><path d="M384.79872 71.9872L475.8528 19.06688l1.88416 0.98304-91.05408 52.92032-1.88416-0.98304M386.68288 72.97024L477.73696 20.04992a125.2352 125.2352 0 0 1 2.048 1.14688L388.7104 74.11712l-0.53248-0.3072a54.8864 54.8864 0 0 0-1.49504-0.83968" fill="#FFE299" p-id="4847"></path><path d="M388.7104 74.11712l91.05408-52.92032c0.77824 0.47104 1.59744 0.96256 2.41664 1.49504l-91.05408 52.92032a64.90112 64.90112 0 0 0-2.41664-1.49504M391.14752 75.61216l91.05408-52.92032c0.9216 0.59392 1.86368 1.20832 2.84672 1.88416l-91.05408 52.92032a112.86528 112.86528 0 0 0-2.84672-1.88416" fill="#FFE299" p-id="4848"></path><path d="M393.99424 77.49632L485.02784 24.576c1.08544 0.75776 2.23232 1.55648 3.3792 2.41664l-91.05408 52.92032a89.33376 89.33376 0 0 0-3.35872-2.41664" fill="#FFE299" p-id="4849"></path><path d="M397.37344 79.89248l91.05408-52.92032c1.3312 0.98304 2.70336 2.02752 4.11648 3.13344l-91.05408 52.92032a185.18016 185.18016 0 0 0-4.11648-3.13344M401.48992 83.0464l91.05408-52.92032c1.61792 1.29024 3.31776 2.6624 5.05856 4.13696l-91.05408 52.92032a176.18944 176.18944 0 0 0-5.05856-4.13696" fill="#FFE299" p-id="4850"></path><path d="M406.54848 87.18336l91.05408-52.92032c2.02752 1.69984 4.11648 3.54304 6.30784 5.50912l-91.05408 52.92032c-2.19136-1.98656-4.3008-3.80928-6.30784-5.50912" fill="#FFE299" p-id="4851"></path><path d="M412.85632 92.672l91.05408-52.92032c2.51904 2.27328 5.14048 4.7104 7.8848 7.33184l-91.05408 52.92032a440.70912 440.70912 0 0 0-7.8848-7.33184M420.72064 100.02432L511.77472 47.104l4.4032 4.28032-91.05408 52.92032a280.08448 280.08448 0 0 0-4.4032-4.28032" fill="#FFE299" p-id="4852"></path><path d="M688.41472 492.58496l91.05408-52.92032 2.12992 7.59808-91.05408 52.92032a1462.49728 1462.49728 0 0 0-2.12992-7.59808M690.54464 500.18304l91.05408-52.92032c2.3552 8.43776 4.54656 16.75264 6.57408 24.90368l-91.05408 52.92032a907.5712 907.5712 0 0 0-6.57408-24.90368M697.11872 525.08672l91.05408-52.92032c1.536 6.16448 2.94912 12.22656 4.25984 18.18624l-91.05408 52.92032a603.87328 603.87328 0 0 0-4.25984-18.18624M701.37856 543.27296l91.05408-52.92032c1.04448 4.79232 2.00704 9.5232 2.88768 14.17216l-91.05408 52.92032c-0.88064-4.64896-1.8432-9.37984-2.88768-14.17216M704.26624 557.44512l91.05408-52.92032c0.73728 3.95264 1.4336 7.86432 2.02752 11.69408l-91.05408 52.92032a334.336 334.336 0 0 0-2.02752-11.69408M706.31424 569.1392l91.05408-52.92032c0.55296 3.46112 1.04448 6.8608 1.45408 10.19904l-91.05408 52.92032a420.98688 420.98688 0 0 0-1.45408-10.19904M707.76832 579.33824l91.05408-52.92032c0.36864 2.88768 0.69632 5.75488 0.96256 8.56064l-91.05408 52.92032a273.87904 273.87904 0 0 0-0.96256-8.56064M708.73088 587.89888l91.05408-52.92032c0.24576 2.62144 0.47104 5.20192 0.6144 7.72096l-91.05408 52.92032a271.91296 271.91296 0 0 0-0.6144-7.72096M709.34528 595.61984l91.05408-52.92032c0.14336 2.33472 0.26624 4.62848 0.32768 6.88128l-91.05408 52.92032a160.78848 160.78848 0 0 0-0.32768-6.88128M709.69344 602.50112l91.05408-52.92032c0.06144 2.1504 0.1024 4.28032 0.08192 6.36928l-91.05408 52.92032c0-2.08896-0.02048-4.1984-0.08192-6.36928M709.77536 608.89088l91.05408-52.92032c0 1.9456-0.04096 3.87072-0.12288 5.77536l-91.05408 52.92032c0.06144-1.90464 0.1024-3.82976 0.12288-5.77536" fill="#FFE299" p-id="4853"></path><path d="M709.632 614.64576l91.05408-52.92032a120.4224 120.4224 0 0 1-0.34816 5.55008l-91.05408 52.92032a96.0512 96.0512 0 0 0 0.34816-5.55008M709.30432 620.21632L800.3584 567.296a137.37984 137.37984 0 0 1-0.53248 5.16096l-91.05408 52.92032c0.2048-1.69984 0.38912-3.42016 0.53248-5.16096M708.77184 625.37728l91.05408-52.92032c-0.2048 1.67936-0.45056 3.33824-0.73728 4.97664l-91.05408 52.92032c0.28672-1.6384 0.53248-3.29728 0.73728-4.97664" fill="#FFE299" p-id="4854"></path><path d="M708.03456 630.33344l91.05408-52.92032c-0.28672 1.69984-0.6144 3.33824-1.00352 4.97664l-91.05408 52.92032a73.728 73.728 0 0 0 1.00352-4.97664M707.03104 635.31008l91.05408-52.92032a82.5344 82.5344 0 0 1-1.24928 4.8128l-91.05408 52.92032c0.47104-1.55648 0.88064-3.1744 1.24928-4.8128" fill="#FFE299" p-id="4855"></path><path d="M705.78176 640.12288l91.05408-52.92032a76.41088 76.41088 0 0 1-1.67936 5.03808l-91.05408 52.92032c0.6144-1.61792 1.16736-3.29728 1.67936-5.03808" fill="#FFE299" p-id="4856"></path><path d="M704.1024 645.16096l91.05408-52.92032c-0.67584 1.82272-1.4336 3.56352-2.23232 5.26336l-91.05408 52.92032c0.8192-1.69984 1.55648-3.44064 2.23232-5.26336" fill="#FFE299" p-id="4857"></path><path d="M701.87008 650.42432l91.05408-52.92032c-1.08544 2.2528-2.27328 4.38272-3.60448 6.41024l-91.05408 52.92032c1.31072-2.02752 2.51904-4.15744 3.60448-6.41024M698.2656 656.83456l91.05408-52.92032a48.45568 48.45568 0 0 1-16.44544 15.60576l-91.05408 52.92032c6.84032-3.97312 12.26752-9.216 16.44544-15.60576" fill="#FFE299" p-id="4858"></path><path d="M688.41472 492.58496c34.54976 121.22112 43.43808 219.19744-101.4784 179.8144-36.9664-10.0352-75.61216-27.36128-113.00864-48.96768-109.2608-63.0784-208.26112-162.7136-225.85344-224.72704-23.63392-83.27168-3.01056-231.69024 131.01056-234.496-2.27328-6.08256-45.30176-121.79456 9.1136-90.37824 9.216 5.3248 21.2992 15.03232 36.94592 30.47424 1.06496-0.69632 21.44256-13.96736 46.94016 0.75776 14.0288 8.0896 29.26592 24.86272 42.86464 57.40544 1.29024 0.12288 25.9072 2.51904 47.34976 14.88896 25.27232 14.58176 44.31872 42.86464 7.41376 96.89088 4.1984 4.85376 84.15232 97.13664 118.70208 218.33728z m-147.10784-23.83872l-54.59968-31.51872 0.08192-25.6 54.59968 31.51872c6.5536 3.7888 11.91936 0.7168 11.93984-6.81984 0.02048-7.51616-5.3248-16.77312-11.8784-20.56192l-50.23744-28.99968 49.54112-25.23136c4.77184-2.43712 4.99712-11.01824 0.512-19.08736a24.53504 24.53504 0 0 0-8.64256-9.25696c-2.94912-1.69984-5.89824-2.17088-8.192-1.00352l-49.64352 25.25184-45.21984-81.24416a24.53504 24.53504 0 0 0-8.64256-9.25696c-2.94912-1.69984-5.89824-2.17088-8.192-1.00352-4.77184 2.43712-4.99712 11.01824-0.512 19.08736l45.99808 82.65728-49.80736-28.75392c-6.5536-3.7888-11.91936-0.7168-11.93984 6.81984-0.02048 7.51616 5.3248 16.77312 11.8784 20.56192l54.59968 31.51872-0.08192 25.6-54.59968-31.51872c-6.5536-3.7888-11.91936-0.7168-11.93984 6.81984-0.02048 7.53664 5.3248 16.7936 11.8784 20.5824l54.59968 31.51872-0.16384 60.04736c-0.02048 7.51616 5.3248 16.77312 11.8784 20.56192 6.5536 3.7888 11.91936 0.7168 11.93984-6.81984l0.16384-60.04736 54.59968 31.51872c6.5536 3.7888 11.91936 0.7168 11.93984-6.81984 0.04096-7.49568-5.30432-16.75264-11.85792-20.52096" fill="#FFD44D" p-id="4859"></path><path d="M426.0864 103.71072l91.05408-52.92032c1.2288-0.7168 3.56352-1.9456 6.77888-3.072l-91.05408 52.92032a40.5504 40.5504 0 0 0-6.77888 3.072M432.86528 100.6592l91.05408-52.92032a45.6704 45.6704 0 0 1 6.06208-1.65888l-91.05408 52.92032c-2.2528 0.45056-4.3008 1.024-6.06208 1.65888" fill="#FFE299" p-id="4860"></path><path d="M438.92736 99.00032l91.05408-52.92032a43.4176 43.4176 0 0 1 4.62848-0.65536l-91.05408 52.92032a43.4176 43.4176 0 0 0-4.62848 0.65536" fill="#FFE299" p-id="4861"></path><path d="M443.55584 98.34496l91.05408-52.92032c1.2288-0.1024 2.51904-0.18432 3.85024-0.18432l-91.05408 52.92032c-1.3312 0-2.62144 0.06144-3.85024 0.18432M447.40608 98.16064l91.05408-52.92032c1.06496 0 2.1504 0.02048 3.2768 0.1024l-91.05408 52.92032a44.81024 44.81024 0 0 0-3.2768-0.1024" fill="#FFE299" p-id="4862"></path><path d="M450.68288 98.26304l91.05408-52.92032c0.94208 0.06144 1.88416 0.16384 2.8672 0.28672l-91.05408 52.92032a48.51712 48.51712 0 0 0-2.8672-0.28672" fill="#FFE299" p-id="4863"></path><path d="M453.55008 98.54976l91.05408-52.92032c0.83968 0.12288 1.72032 0.24576 2.58048 0.43008l-91.05408 52.92032a67.74784 67.74784 0 0 0-2.58048-0.43008" fill="#FFE299" p-id="4864"></path><path d="M456.13056 98.97984l91.05408-52.92032c0.79872 0.14336 1.59744 0.32768 2.41664 0.53248L458.5472 99.51232c-0.8192-0.2048-1.61792-0.36864-2.41664-0.53248M458.5472 99.51232l91.05408-52.92032c0.75776 0.18432 1.51552 0.38912 2.27328 0.63488L460.82048 100.1472a38.56384 38.56384 0 0 0-2.27328-0.63488M460.82048 100.1472l91.05408-52.92032 2.06848 0.67584-91.05408 52.92032a48.45568 48.45568 0 0 0-2.06848-0.67584" fill="#FFE299" p-id="4865"></path><path d="M462.88896 100.82304l91.05408-52.92032c0.67584 0.24576 1.37216 0.49152 2.048 0.77824L464.93696 101.5808a41.3696 41.3696 0 0 0-2.048-0.75776" fill="#FFE299" p-id="4866"></path><path d="M464.93696 101.5808l91.05408-52.92032c0.63488 0.24576 1.26976 0.53248 1.92512 0.8192L466.86208 102.4a54.31296 54.31296 0 0 0-1.92512-0.8192" fill="#FFE299" p-id="4867"></path><path d="M466.86208 102.4l91.05408-52.92032 1.92512 0.90112-91.05408 52.92032A81.2032 81.2032 0 0 0 466.86208 102.4" fill="#FFE299" p-id="4868"></path><path d="M468.7872 103.30112l91.05408-52.92032c0.6144 0.3072 1.2288 0.6144 1.8432 0.96256L470.6304 104.26368l-1.8432-0.96256M470.6304 104.26368l91.05408-52.92032 1.4336 0.79872 0.4096 0.22528-91.05408 52.9408-0.4096-0.22528a32.52224 32.52224 0 0 0-1.4336-0.8192M472.4736 105.30816l91.05408-52.92032 1.7408 1.06496-91.05408 52.92032a39.7312 39.7312 0 0 0-1.7408-1.06496" fill="#FFE299" p-id="4869"></path><path d="M474.2144 106.37312l91.05408-52.92032 1.7408 1.14688L475.9552 107.52c-0.57344-0.4096-1.16736-0.77824-1.7408-1.14688" fill="#FFE299" p-id="4870"></path><path d="M475.9552 107.52l91.05408-52.92032 1.76128 1.24928-91.05408 52.92032c-0.59392-0.43008-1.16736-0.86016-1.76128-1.24928" fill="#FFE299" p-id="4871"></path><path d="M477.71648 108.76928l91.05408-52.92032 1.78176 1.35168-91.05408 52.92032a51.0976 51.0976 0 0 0-1.78176-1.35168M479.49824 110.12096l91.05408-52.92032 1.80224 1.47456-91.05408 52.92032a96.4608 96.4608 0 0 0-1.80224-1.47456" fill="#FFE299" p-id="4872"></path><path d="M481.30048 111.59552l91.05408-52.92032c0.59392 0.512 1.20832 1.024 1.80224 1.57696l-91.05408 52.92032a58.368 58.368 0 0 0-1.80224-1.57696" fill="#FFE299" p-id="4873"></path><path d="M483.10272 113.17248l91.05408-52.92032 1.80224 1.67936-91.05408 52.92032a65.26976 65.26976 0 0 0-1.80224-1.67936" fill="#FFE299" p-id="4874"></path><path d="M484.88448 114.83136l91.05408-52.92032c0.59392 0.55296 1.16736 1.14688 1.76128 1.7408l-91.05408 52.92032-1.76128-1.7408" fill="#FFE299" p-id="4875"></path><path d="M486.64576 116.57216l91.05408-52.92032 1.72032 1.80224-91.05408 52.92032a48.78336 48.78336 0 0 0-1.72032-1.80224" fill="#FFE299" p-id="4876"></path><path d="M488.36608 118.35392l91.05408-52.92032 1.67936 1.86368-91.05408 52.92032-1.67936-1.86368M490.04544 120.23808l91.05408-52.92032c0.55296 0.63488 1.1264 1.29024 1.67936 1.98656L491.7248 122.22464a40.79616 40.79616 0 0 0-1.67936-1.98656" fill="#FFE299" p-id="4877"></path><path d="M491.74528 122.20416l91.05408-52.92032c0.59392 0.69632 1.16736 1.4336 1.76128 2.17088l-91.05408 52.92032-1.76128-2.17088" fill="#FFE299" p-id="4878"></path><path d="M493.48608 124.37504l91.05408-52.92032c0.67584 0.86016 1.35168 1.7408 2.00704 2.64192l-91.05408 52.92032a89.31328 89.31328 0 0 0-2.00704-2.64192M495.5136 127.01696l91.05408-52.92032c1.00352 1.37216 2.02752 2.80576 3.03104 4.28032l-91.05408 52.92032a154.9312 154.9312 0 0 0-3.03104-4.28032M498.54464 131.31776l91.05408-52.92032c1.6384 2.41664 3.25632 5.0176 4.87424 7.7824l-91.05408 52.92032a131.8912 131.8912 0 0 0-4.87424-7.7824" fill="#FFE299" p-id="4879"></path><path d="M503.41888 139.07968l91.05408-52.92032c1.10592 1.88416 2.19136 3.85024 3.29728 5.89824l-91.05408 52.92032a155.56608 155.56608 0 0 0-3.29728-5.89824" fill="#FFE299" p-id="4880"></path><path d="M506.71616 144.97792l91.05408-52.92032c0.75776 1.41312 1.49504 2.8672 2.2528 4.38272l-91.05408 52.92032a288.1536 288.1536 0 0 0-2.2528-4.38272" fill="#FFE299" p-id="4881"></path><path d="M508.96896 149.36064l91.05408-52.92032c0.69632 1.39264 1.37216 2.80576 2.048 4.25984l-91.05408 52.92032c-0.67584-1.45408-1.37216-2.8672-2.048-4.25984" fill="#FFE299" p-id="4882"></path><path d="M511.01696 153.62048l91.05408-52.92032c0.67584 1.4336 1.35168 2.92864 2.00704 4.42368L513.024 158.04416a149.83168 149.83168 0 0 0-2.00704-4.42368M513.04448 158.04416l91.05408-52.92032 1.90464 4.42368-91.05408 52.92032a477.34784 477.34784 0 0 0-1.90464-4.42368" fill="#FFE299" p-id="4883"></path><path d="M569.69216 274.24768l91.05408-52.92032c0.43008 0.512 1.69984 1.96608 3.64544 4.3008l-91.05408 52.92032c-1.9456-2.33472-3.21536-3.7888-3.64544-4.3008M573.3376 278.54848l91.05408-52.92032c1.9456 2.33472 4.56704 5.5296 7.72096 9.54368l-91.05408 52.92032a581.26336 581.26336 0 0 0-7.72096-9.54368" fill="#FFE299" p-id="4884"></path><path d="M581.05856 288.09216l91.05408-52.92032c3.03104 3.85024 6.59456 8.47872 10.50624 13.76256l-91.05408 52.92032a704.02048 704.02048 0 0 0-10.50624-13.76256M591.5648 301.8752l91.05408-52.92032c4.87424 6.57408 10.32192 14.19264 16.13824 22.77376l-91.05408 52.92032a641.2288 641.2288 0 0 0-16.13824-22.77376" fill="#FFE299" p-id="4885"></path><path d="M607.70304 324.64896l91.05408-52.92032a682.1888 682.1888 0 0 1 24.7808 39.38304l-91.05408 52.92032a686.32576 686.32576 0 0 0-24.7808-39.38304" fill="#FFE299" p-id="4886"></path><path d="M632.46336 364.01152l91.05408-52.92032c4.01408 6.90176 8.04864 14.11072 12.04224 21.62688L644.5056 385.6384a610.18112 610.18112 0 0 0-12.04224-21.62688M644.52608 385.6384l91.05408-52.92032c2.62144 4.9152 5.2224 9.97376 7.80288 15.13472l-91.05408 52.92032a648.51968 648.51968 0 0 0-7.80288-15.13472" fill="#FFE299" p-id="4887"></path><path d="M652.32896 400.77312l91.05408-52.92032c2.10944 4.21888 4.17792 8.51968 6.2464 12.9024l-91.05408 52.92032a632.68864 632.68864 0 0 0-6.2464-12.9024" fill="#FFE299" p-id="4888"></path><path d="M658.57536 413.67552l91.05408-52.92032c1.8432 3.95264 3.6864 7.94624 5.46816 12.02176l-91.05408 52.92032a659.47648 659.47648 0 0 0-5.46816-12.02176M664.04352 425.69728l91.05408-52.92032c1.65888 3.76832 3.29728 7.5776 4.89472 11.42784l-91.05408 52.92032a491.3152 491.3152 0 0 0-4.89472-11.42784M668.93824 437.12512l91.05408-52.92032c1.55648 3.76832 3.09248 7.55712 4.58752 11.40736l-91.05408 52.92032a529.26464 529.26464 0 0 0-4.58752-11.40736M673.52576 448.53248l91.05408-52.92032c1.47456 3.80928 2.92864 7.63904 4.34176 11.53024l-91.05408 52.92032c-1.41312-3.8912-2.84672-7.74144-4.34176-11.53024" fill="#FFE299" p-id="4889"></path><path d="M677.86752 460.06272l91.05408-52.92032c1.39264 3.87072 2.7648 7.76192 4.07552 11.69408l-91.05408 52.92032a490.06592 490.06592 0 0 0-4.07552-11.69408M681.94304 471.7568l91.05408-52.920" fill="#FFE299" p-id="4890"></path></svg>