<?xml version="1.0" standalone="no"?><!DOCTYPE svg PUBLIC "-//W3C//DTD SVG 1.1//EN" "http://www.w3.org/Graphics/SVG/1.1/DTD/svg11.dtd"><svg t="1655221640047" class="icon" viewBox="0 0 1024 1024" version="1.1" xmlns="http://www.w3.org/2000/svg" p-id="5034" xmlns:xlink="http://www.w3.org/1999/xlink" width="200" height="200"><defs><style type="text/css">@font-face { font-family: feedback-iconfont; src: url("//at.alicdn.com/t/font_1031158_u69w8yhxdu.woff2?t=1630033759944") format("woff2"), url("//at.alicdn.com/t/font_1031158_u69w8yhxdu.woff?t=1630033759944") format("woff"), url("//at.alicdn.com/t/font_1031158_u69w8yhxdu.ttf?t=1630033759944") format("truetype"); }
</style></defs><path d="M884.08064 926.208l-556.31872 58.61376-187.84256-175.88224 556.31872-58.63424z" fill="#F6F0FC" p-id="5035"></path><path d="M12.288 629.4528l0.04096-49.70496c0 1.37216 0.69632 2.7648 2.1504 4.13696l-0.04096 49.70496c-1.47456-1.37216-2.17088-2.7648-2.1504-4.13696" fill="#E1CAFC" p-id="5036"></path><path d="M983.90016 786.37056l0.04096-49.70496c2.60096-0.26624 5.05856-0.6144 7.35232-1.04448l-0.04096 49.70496c-2.29376 0.4096-4.75136 0.75776-7.35232 1.04448" fill="#F5EBFC" p-id="5037"></path><path d="M991.25248 785.32608l0.04096-49.70496c1.8432-0.32768 3.56352-0.69632 5.18144-1.10592l-0.04096 49.70496c-1.61792 0.4096-3.33824 0.77824-5.18144 1.10592M996.43392 784.22016l0.04096-49.70496c1.18784-0.3072 2.31424-0.6144 3.35872-0.96256l-0.04096 49.70496a68.7104 68.7104 0 0 1-3.35872 0.96256M999.81312 783.2576l0.04096-49.70496a41.1648 41.1648 0 0 0 2.41664-0.83968l-0.04096 49.70496a47.18592 47.18592 0 0 1-2.41664 0.83968" fill="#F5EBFC" p-id="5038"></path><path d="M1002.22976 782.41792l0.04096-49.70496c0.65536-0.24576 1.29024-0.512 1.88416-0.77824l-0.04096 49.70496c-0.59392 0.26624-1.2288 0.53248-1.88416 0.77824M1004.11392 781.63968l0.04096-49.70496c0.53248-0.24576 1.04448-0.47104 1.536-0.73728l-0.04096 49.70496a17.7152 17.7152 0 0 1-1.536 0.73728M1005.64992 780.92288l0.04096-49.70496a19.21024 19.21024 0 0 0 1.29024-0.7168l-0.04096 49.70496a73.0112 73.0112 0 0 1-1.29024 0.7168" fill="#F5EBFC" p-id="5039"></path><path d="M1006.91968 780.20608l0.04096-49.70496a16.6912 16.6912 0 0 0 1.08544-0.69632l-0.04096 49.70496a16.6912 16.6912 0 0 1-1.08544 0.69632M1008.00512 779.50976l0.04096-49.70496 0.9216-0.69632-0.04096 49.70496a9.0112 9.0112 0 0 1-0.9216 0.69632M1008.9472 778.81344l0.04096-49.70496c0.28672-0.22528 0.53248-0.47104 0.77824-0.69632l-0.04096 49.70496-0.77824 0.69632" fill="#F5EBFC" p-id="5040"></path><path d="M1009.72544 778.11712l0.04096-49.70496c0.24576-0.22528 0.45056-0.47104 0.65536-0.7168l-0.04096 49.70496a10.40384 10.40384 0 0 1-0.65536 0.7168M1010.3808 777.40032l0.04096-49.70496 0.53248-0.7168-0.04096 49.70496-0.53248 0.7168" fill="#F5EBFC" p-id="5041"></path><path d="M1010.8928 776.68352l0.04096-49.70496a3.7888 3.7888 0 0 0 0.38912-0.75776l-0.04096 49.70496a4.42368 4.42368 0 0 1-0.38912 0.75776M1011.3024 775.92576l0.04096-49.70496c0.1024-0.26624 0.2048-0.512 0.26624-0.77824l-0.04096 49.70496a4.97664 4.97664 0 0 1-0.26624 0.77824" fill="#F5EBFC" p-id="5042"></path><path d="M1011.56864 775.14752l0.04096-49.70496a5.9392 5.9392 0 0 0 0.12288-0.83968l-0.04096 49.70496a5.9392 5.9392 0 0 1-0.12288 0.83968" fill="#F5EBFC" p-id="5043"></path><path d="M1011.67104 774.30784l0.04096-49.70496v-0.1024l-0.04096 49.68448v0.12288" fill="#F5EBFC" p-id="5044"></path><path d="M14.4384 633.58976l0.04096-49.70496 231.66976 216.92416-0.04096 49.70496z" fill="#E1CAFC" p-id="5045"></path><path d="M297.84064 858.66496l0.04096-49.70496 686.08-72.2944-0.06144 49.70496z" fill="#F5EBFC" p-id="5046"></path><path d="M246.10816 850.51392l0.04096-49.70496c1.82272 1.69984 4.64896 3.21536 8.21248 4.46464l-0.04096 49.70496a24.04352 24.04352 0 0 1-8.21248-4.46464" fill="#F5EBFC" p-id="5047"></path><path d="M254.32064 854.97856l0.04096-49.70496a69.632 69.632 0 0 0 2.90816 0.94208l-0.04096 49.70496a61.00992 61.00992 0 0 1-2.90816-0.94208M257.2288 855.92064l0.04096-49.70496c0.8192 0.24576 1.67936 0.47104 2.56 0.67584l-0.04096 49.70496a46.6944 46.6944 0 0 1-2.56-0.67584M259.80928 856.59648l0.04096-49.70496 2.39616 0.55296-0.04096 49.70496c-0.83968-0.18432-1.61792-0.34816-2.39616-0.55296" fill="#F5EBFC" p-id="5048"></path><path d="M262.18496 857.14944l0.04096-49.70496a75.776 75.776 0 0 0 2.29376 0.45056l-0.04096 49.70496-2.29376-0.45056M264.47872 857.6l0.04096-49.70496 2.23232 0.38912-0.04096 49.70496-2.23232-0.38912M266.73152 857.96864l0.04096-49.70496 2.19136 0.32768-0.04096 49.70496a70.28736 70.28736 0 0 1-2.19136-0.32768M268.92288 858.29632l0.04096-49.70496 2.19136 0.26624-0.04096 49.70496-2.19136-0.26624M271.11424 858.56256l0.04096-49.70496 2.21184 0.22528-0.04096 49.70496-2.21184-0.22528M273.32608 858.78784l0.04096-49.70496 2.21184 0.18432-0.04096 49.70496a40.2432 40.2432 0 0 1-2.21184-0.18432M275.53792 858.97216l0.04096-49.70496 2.21184 0.14336-0.04096 49.70496a40.07936 40.07936 0 0 1-2.21184-0.14336M277.74976 859.136l0.04096-49.70496 2.21184 0.1024-0.04096 49.70496-2.21184-0.1024" fill="#F5EBFC" p-id="5049"></path><path d="M279.9616 859.2384l0.04096-49.70496 2.21184 0.06144-0.04096 49.70496-2.21184-0.06144M282.17344 859.29984l0.04096-49.70496 2.19136 0.02048-0.04096 49.70496-2.19136-0.02048M284.3648 859.32032l0.04096-49.70496h2.23232l-0.04096 49.70496h-2.23232" fill="#F5EBFC" p-id="5050"></path><path d="M286.59712 859.32032l0.04096-49.70496c0.77824 0 1.57696-0.02048 2.3552-0.06144l-0.04096 49.70496c-0.77824 0.04096-1.57696 0.04096-2.3552 0.06144" fill="#F5EBFC" p-id="5051"></path><path d="M288.95232 859.25888l0.04096-49.70496 2.60096-0.1024-0.04096 49.70496a110.36672 110.36672 0 0 1-2.60096 0.1024" fill="#F5EBFC" p-id="5052"></path><path d="M291.55328 859.15648l0.04096-49.70496a124.1088 124.1088 0 0 0 3.8912-0.26624l-0.04096 49.70496c-1.29024 0.1024-2.58048 0.2048-3.8912 0.26624" fill="#F5EBFC" p-id="5053"></path><path d="M295.44448 858.89024l0.04096-49.70496 2.39616-0.22528-0.04096 49.70496-2.39616 0.22528" fill="#F5EBFC" p-id="5054"></path><path d="M983.9616 736.6656l-686.08 72.2944c-21.36064 2.2528-44.52352-1.39264-51.73248-8.15104L14.47936 583.8848c-7.20896-6.73792 4.23936-14.04928 25.62048-16.30208l686.05952-72.2944c21.34016-2.2528 44.52352 1.41312 51.73248 8.15104l231.66976 216.92416c7.22944 6.7584-4.25984 14.04928-25.6 16.30208z" fill="#F2DEFC" p-id="5055"></path><path d="M790.03648 679.56736L359.8336 723.3536l-145.26464-131.35872 430.20288-43.78624z" fill="#C57EFC" p-id="5056"></path><path d="M669.94176 72.78592l-61.31712-33.34144c3.4816-0.49152 6.79936-0.28672 9.87136 0.49152l61.31712 33.34144a25.53856 25.53856 0 0 0-9.87136-0.49152" fill="#DCB8FF" p-id="5057"></path><path d="M679.79264 73.29792L618.496 39.936c1.57696 0.4096 3.11296 0.96256 4.54656 1.67936l61.31712 33.34144a24.7808 24.7808 0 0 0-4.56704-1.65888" fill="#DCB8FF" p-id="5058"></path><path d="M684.3392 74.97728l-61.31712-33.34144 0.88064 0.45056 61.31712 33.34144a11.83744 11.83744 0 0 0-0.88064-0.45056" fill="#DCB8FF" p-id="5059"></path><path d="M379.12576 235.43808l-61.31712-33.34144c-8.04864-4.38272-13.39392-13.33248-13.37344-24.30976l61.31712 33.34144c-0.04096 10.97728 5.3248 19.92704 13.37344 24.30976" fill="#DCB8FF" p-id="5060"></path><path d="M394.62912 111.47264l-61.29664-33.34144 275.31264-38.7072 61.29664 33.36192z" fill="#DCB8FF" p-id="5061"></path><path d="M365.73184 211.10784L304.4352 177.7664l0.12288-64.6144 61.29664 33.36192z" fill="#DCB8FF" p-id="5062"></path><path d="M365.85472 146.51392L304.5376 113.17248c0-4.17792 0.79872-8.27392 2.21184-12.12416l61.31712 33.34144a35.2256 35.2256 0 0 0-2.21184 12.12416M368.06656 134.38976l-61.31712-33.34144c0.6144-1.67936 1.35168-3.29728 2.19136-4.85376l61.31712 33.34144a35.57376 35.57376 0 0 0-2.19136 4.85376" fill="#DCB8FF" p-id="5063"></path><path d="M370.23744 129.536l-61.31712-33.34144c0.7168-1.3312 1.51552-2.60096 2.37568-3.82976l61.31712 33.34144c-0.88064 1.2288-1.65888 2.51904-2.37568 3.82976" fill="#DCB8FF" p-id="5064"></path><path d="M372.59264 125.72672L311.296 92.3648c0.79872-1.14688 1.67936-2.2528 2.60096-3.29728l61.31712 33.34144a37.29408 37.29408 0 0 0-2.62144 3.31776" fill="#DCB8FF" p-id="5065"></path><path d="M375.1936 122.40896l-61.31712-33.34144c0.9216-1.04448 1.92512-2.048 2.94912-2.99008l61.31712 33.34144c-1.024 0.94208-2.00704 1.9456-2.94912 2.99008" fill="#DCB8FF" p-id="5066"></path><path d="M378.14272 119.43936L316.8256 86.09792c1.10592-1.00352 2.27328-1.92512 3.4816-2.7648l61.31712 33.34144a39.58784 39.58784 0 0 0-3.4816 2.7648M381.6448 116.67456l-61.31712-33.34144c1.49504-1.024 3.05152-1.92512 4.66944-2.68288l61.31712 33.34144a33.15712 33.15712 0 0 0-4.66944 2.68288" fill="#DCB8FF" p-id="5067"></path><path d="M386.31424 113.99168l-61.31712-33.34144c2.64192-1.2288 5.4272-2.08896 8.31488-2.49856l61.31712 33.34144a28.2624 28.2624 0 0 0-8.31488 2.49856" fill="#DCB8FF" p-id="5068"></path><path d="M669.94176 72.78592c15.79008-2.21184 28.69248 9.91232 28.672 26.97216l-0.12288 64.59392c-0.04096 17.03936-12.98432 32.80896-28.7744 35.04128l-275.31264 38.68672c-15.79008 2.21184-28.69248-9.91232-28.672-26.97216l0.12288-64.59392c0.04096-17.03936 12.98432-32.80896 28.7744-35.04128l275.31264-38.68672z" fill="#B45FFF" p-id="5069"></path><path d="M627.712 592.896l-61.31712-33.34144a18.59584 18.59584 0 0 0 5.20192-1.55648l61.31712 33.34144a18.39104 18.39104 0 0 1-5.20192 1.55648M632.91392 591.31904l-61.31712-33.34144c1.00352-0.47104 1.98656-1.04448 2.90816-1.67936l61.31712 33.34144a17.87904 17.87904 0 0 1-2.90816 1.67936M635.84256 589.63968l-61.31712-33.34144c0.75776-0.53248 1.49504-1.10592 2.19136-1.72032l61.31712 33.34144c-0.7168 0.63488-1.4336 1.20832-2.19136 1.72032" fill="#FFFFFF" p-id="5070"></path><path d="M638.01344 587.91936l-61.31712-33.34144a19.78368 19.78368 0 0 0 1.8432-1.86368l61.31712 33.34144a19.78368 19.78368 0 0 1-1.8432 1.86368" fill="#FFFFFF" p-id="5071"></path><path d="M639.85664 586.05568l-61.31712-33.34144c0.57344-0.65536 1.1264-1.35168 1.61792-2.06848l61.31712 33.34144a22.46656 22.46656 0 0 1-1.61792 2.06848M641.49504 583.9872l-61.31712-33.34144c0.53248-0.75776 1.024-1.55648 1.47456-2.39616l61.31712 33.34144c-0.45056 0.83968-0.94208 1.6384-1.47456 2.39616" fill="#FFFFFF" p-id="5072"></path><path d="M642.94912 581.61152L581.632 548.27008c0.53248-0.98304 0.98304-1.98656 1.37216-3.03104l61.31712 33.34144c-0.38912 1.04448-0.83968 2.048-1.37216 3.03104" fill="#FFFFFF" p-id="5073"></path><path d="M644.32128 578.58048l-61.31712-33.34144c0.88064-2.39616 1.37216-4.95616 1.37216-7.5776 0.02048-6.8608-3.33824-12.47232-8.35584-15.19616l61.31712 33.34144c5.0176 2.74432 8.37632 8.33536 8.35584 15.19616 0 2.60096-0.49152 5.16096-1.37216 7.5776" fill="#FFFFFF" p-id="5074"></path><path d="M716.67712 272.9984L655.36 239.63648a79.44192 79.44192 0 0 1 30.88384 1.59744l61.31712 33.34144a79.44192 79.44192 0 0 0-30.88384-1.57696" fill="#DCB8FF" p-id="5075"></path><path d="M747.56096 274.59584l-61.31712-33.34144c4.95616 1.26976 9.728 3.05152 14.2336 5.26336l61.31712 33.34144a73.17504 73.17504 0 0 0-14.2336-5.26336" fill="#DCB8FF" p-id="5076"></path><path d="M761.79456 279.8592l-61.31712-33.34144c0.9216 0.45056 1.8432 0.9216 2.74432 1.4336l61.31712 33.34144a49.9712 49.9712 0 0 0-2.74432-1.4336" fill="#DCB8FF" p-id="5077"></path><path d="M440.97536 619.13088l-61.29664-33.34144 186.73664-26.25536 61.29664 33.36192z" fill="#FFFFFF" p-id="5078"></path><path d="M431.43168 617.49248l-61.31712-33.34144 0.55296 0.28672 61.31712 33.34144-0.55296-0.28672" fill="#FFFFFF" p-id="5079"></path><path d="M431.98464 617.7792l-61.31712-33.34144a13.5168 13.5168 0 0 0 2.84672 1.04448l61.31712 33.34144a16.24064 16.24064 0 0 1-2.84672-1.04448" fill="#FFFFFF" p-id="5080"></path><path d="M434.83136 618.82368l-61.31712-33.34144c1.92512 0.49152 3.9936 0.6144 6.16448 0.32768l61.31712 33.34144a16.1792 16.1792 0 0 1-6.16448-0.32768" fill="#FFFFFF" p-id="5081"></path><path d="M378.88 687.65696l-61.31712-33.34144c-8.04864-4.38272-13.39392-13.33248-13.37344-24.30976l61.31712 33.34144c-0.02048 10.97728 5.34528 19.92704 13.37344 24.30976" fill="#DCB8FF" p-id="5082"></path><path d="M365.50656 663.3472l-61.29664-33.36192 0.2048-111.104 61.29664 33.34144z" fill="#DCB8FF" p-id="5083"></path><path d="M365.71136 552.22272l-61.31712-33.34144c0-3.62496 0.6144-7.168 1.69984-10.56768l61.31712 33.34144a34.69312 34.69312 0 0 0-1.69984 10.56768" fill="#DCB8FF" p-id="5084"></path><path d="M271.44192 550.35904l-61.31712-33.34144c-8.04864-4.38272-13.4144-13.33248-13.39392-24.35072l61.31712 33.34144c0 11.01824 5.34528 19.98848 13.39392 24.35072" fill="#DCB8FF" p-id="5085"></path><path d="M348.3648 324.75136l-61.29664-33.34144L655.36 239.63648l61.31712 33.36192z" fill="#DCB8FF" p-id="5086"></path><path d="M258.06848 526.0288l-61.31712-33.36192 0.16384-91.52512 61.31712 33.34144z" fill="#DCB8FF" p-id="5087"></path><path d="M716.67712 272.9984c49.50016-6.9632 89.86624 31.04768 89.76384 84.43904l-0.16384 91.52512c-0.04096 17.05984-12.98432 32.82944-28.7744 35.06176l-80.6912 11.34592c1.06496 3.072 1.65888 6.4512 1.65888 10.09664l-0.2048 111.104c-0.04096 17.03936-12.98432 32.80896-28.7744 35.04128l-275.31264 38.68672c-15.79008 2.21184-28.69248-9.91232-28.672-26.97216l0.2048-111.104c0-3.62496 0.6144-7.168 1.69984-10.56768l-80.6912 11.34592c-15.79008 2.21184-28.69248-9.91232-28.672-26.99264l0.16384-91.52512c0.1024-53.39136 40.67328-102.78912 90.13248-109.73184l368.3328-51.75296zM627.712 592.896c9.87136-1.39264 17.96096-11.24352 17.98144-21.89312 0.02048-10.6496-8.04864-18.2272-17.92-16.85504l-186.73664 26.23488c-9.87136 1.39264-17.96096 11.24352-17.98144 21.89312-0.02048 10.6496 8.04864 18.2272 17.92 16.85504l186.73664-26.23488" fill="#B45FFF" p-id="5088"></path><path d="M258.23232 434.4832l-61.31712-33.34144a110.6944 110.6944 0 0 1 6.90176-37.96992l61.31712 33.34144a110.6944 110.6944 0 0 0-6.90176 37.96992" fill="#DCB8FF" p-id="5089"></path><path d="M265.13408 396.53376l-61.31712-33.34144c1.92512-5.24288 4.21888-10.32192 6.84032-15.19616l61.31712 33.34144c-2.62144 4.87424-4.9152 9.95328-6.84032 15.19616" fill="#DCB8FF" p-id="5090"></path><path d="M271.9744 381.3376l-61.31712-33.34144c2.23232-4.13696 4.68992-8.13056 7.3728-11.96032l61.31712 33.34144a120.89344 120.89344 0 0 0-7.3728 11.96032M279.3472 369.37728l-61.31712-33.34144a121.4464 121.4464 0 0 1 8.15104-10.3424l61.31712 33.34144c-2.88768 3.2768-5.632 6.71744-8.15104 10.3424M287.49824 359.0144l-61.31712-33.34144a116.9408 116.9408 0 0 1 9.23648-9.33888l61.31712 33.34144a116.9408 116.9408 0 0 0-9.23648 9.33888" fill="#DCB8FF" p-id="5091"></path><path d="M296.73472 349.696l-61.31712-33.34144c3.4816-3.13344 7.12704-6.02112 10.93632-8.64256l61.31712 33.34144a107.19232 107.19232 0 0 0-10.93632 8.64256M307.67104 341.03296l-61.31712-33.34144c4.64896-3.21536 9.54368-6.0416 14.62272-8.43776l61.31712 33.34144a102.93248 102.93248 0 0 0-14.62272 8.43776" fill="#DCB8FF" p-id="5092"></path><path d="M322.29376 332.61568l-61.31712-33.34144c8.27392-3.8912 17.01888-6.57408 26.07104-7.84384l61.31712 33.34144c-9.05216 1.24928-17.8176 3.95264-26.07104 7.84384" fill="#DCB8FF" p-id="5093"></path><path d="M513.9456 460.57472h0.06144-0.06144M514.00704 460.57472l0.06144-0.02048v0.02048h-0.06144M514.06848 460.57472v-0.02048l0.06144-0.02048v0.04096h-0.06144M514.12992 460.57472v-0.04096h0.06144v0.04096h-0.06144M514.19136 460.57472v-0.04096l0.06144-0.02048v0.06144h-0.06144M514.2528 460.57472v-0.06144l0.06144-0.02048v0.08192h-0.06144M514.33472 460.57472h-0.02048v-0.08192h0.02048l0.02048-0.02048v0.1024h-0.02048" fill="#FFFFFF" p-id="5094"></path><path d="M514.3552 460.57472v-0.1024l0.06144-0.02048v0.12288h-0.06144M519.02464 462.60224l-0.45056-0.38912-0.47104-0.34816-0.18432-0.12288-0.512-0.3072-0.53248-0.26624-0.22528-0.1024-0.55296-0.18432-0.55296-0.14336-0.2048-0.04096-0.45056-0.08192-0.45056-0.04096h-0.02048v-0.12288l0.45056-0.16384 0.45056-0.2048h0.02048l0.55296-0.28672 0.53248-0.32768 0.2048-0.14336 0.53248-0.38912 0.53248-0.43008 0.22528-0.2048 0.47104-0.47104 0.47104-0.512 0.16384-0.2048 5.05856-6.16448-0.02048 16.384a365.3632 365.3632 0 0 1-5.03808-4.73088" fill="#FFFFFF" p-id="5095"></path><path d="M524.06272 467.3536l0.02048-16.384V461.6192l-0.02048 0.8192V467.3536" fill="#FFFFFF" p-id="5096"></path><path d="M524.06272 467.3536l0.02048-16.384 0.02048-0.02048-0.04096 16.40448M524.06272 467.3536l0.04096-16.40448-0.04096 16.40448" fill="#FFFFFF" p-id="5097"></path><path d="M524.06272 467.3536l0.04096-16.40448-0.02048 16.42496-0.02048-0.02048" fill="#FFFFFF" p-id="5098"></path><path d="M524.0832 467.37408V458.3424l0.02048-0.83968v-6.5536l-0.02048 16.42496" fill="#FFFFFF" p-id="5099"></path><path d="M524.0832 467.37408v-7.39328l0.02048-0.8192V450.92864l-0.02048 16.44544" fill="#FFFFFF" p-id="5100"></path><path d="M524.0832 467.37408l0.02048-16.44544h0.02048l-0.04096 16.44544M524.0832 467.37408l0.04096-16.44544-0.04096 16.44544" fill="#FFFFFF" p-id="5101"></path><path d="M524.0832 467.37408v-2.4576l0.02048-0.8192V454.22592l0.02048-0.83968v-2.4576l-0.04096 16.44544" fill="#FFFFFF" p-id="5102"></path><path d="M524.0832 467.37408v-0.8192l0.02048-0.8192V455.86432l0.02048-0.8192v-4.11648V455.86432l-0.02048 0.8192V466.55488l-0.02048 0.8192" fill="#FFFFFF" p-id="5103"></path><path d="M524.0832 467.37408l0.02048-0.8192V456.68352l0.02048-0.8192V450.92864l-0.02048 16.44544h-0.02048" fill="#FFFFFF" p-id="5104"></path><path d="M524.10368 467.37408l0.02048-16.44544v-0.02048 6.59456l-0.02048 0.8192V467.39456v-0.02048M524.10368 467.39456l0.02048-16.4864-0.02048 16.4864" fill="#FFFFFF" p-id="5105"></path><path d="M524.10368 467.39456l0.02048-16.4864V459.14112l-0.02048 0.83968v7.41376" fill="#FFFFFF" p-id="5106"></path><path d="M524.10368 467.39456l0.02048-16.4864V459.14112l-0.02048 0.83968v7.41376" fill="#FFFFFF" p-id="5107"></path><path d="M524.10368 467.39456l0.02048-16.4864V459.9808l-0.02048 0.8192v6.59456" fill="#FFFFFF" p-id="5108"></path><path d="M524.10368 467.39456V460.8l0.02048-0.8192V450.90816l-0.02048 16.4864" fill="#FFFFFF" p-id="5109"></path><path d="M507.41248 358.7072l-55.84896 7.84384a149521.2032 149521.2032 0 0 1-0.18432 95.8464l58.65472-8.23296-0.02048 13.96736-68.99712 9.68704 0.12288-70.59456 62.2592-8.74496-0.02048 14.00832-62.2592 8.74496 0.12288-67.23584 66.19136-9.29792-0.02048 14.00832z" fill="#FFFFFF" p-id="5110"></path><path d="M451.3792 462.39744l58.65472-8.23296 14.0288 13.2096-86.77376 12.1856 14.09024-17.16224" fill="#FFFFFF" p-id="5111"></path><path d="M437.28896 479.5392l86.77376-12.1856-86.77376 12.1856" fill="#FFFFFF" p-id="5112"></path><path d="M437.28896 479.5392l86.77376-12.1856-86.79424 12.20608 0.02048-0.02048M437.26848 479.55968l86.79424-12.20608-86.79424 12.20608" fill="#FFFFFF" p-id="5113"></path><path d="M437.26848 479.55968l86.79424-12.20608 0.02048 0.02048-86.81472 12.1856M437.26848 479.55968l86.81472-12.1856-86.81472 12.1856" fill="#FFFFFF" p-id="5114"></path><path d="M437.26848 479.55968l86.81472-12.1856-86.81472 12.20608v-0.02048M437.26848 479.58016l86.81472-12.20608-86.81472 12.20608" fill="#FFFFFF" p-id="5115"></path><path d="M437.26848 479.58016l86.81472-12.20608-86.8352 12.20608h0.02048M437.248 479.58016l86.8352-12.20608-86.8352 12.20608M437.248 479.58016l86.8352-12.20608-86.8352 12.20608" fill="#FFFFFF" p-id="5116"></path><path d="M437.248 479.58016l86.8352-12.20608h0.02048l-86.85568 12.20608" fill="#FFFFFF" p-id="5117"></path><path d="M437.248 479.58016l86.85568-12.20608v0.02048l-86.85568 12.20608v-0.02048M437.248 479.60064l86.85568-12.20608-86.85568 12.20608M437.248 479.60064l86.85568-12.20608-86.85568 12.20608M437.248 479.60064l86.85568-12.20608-86.85568 12.20608M437.248 479.60064l86.85568-12.20608-86.85568 12.20608M437.248 479.60064l86.85568-12.20608-86.85568 12.20608" fill="#FFFFFF" p-id="5118"></path><path d="M509.99296 468.11136l-68.99712 9.68704 14.09024-17.16224 68.99712-9.68704-14.09024 17.16224M524.0832 450.9696l-68.97664 9.68704 68.97664-9.68704" fill="#FFFFFF" p-id="5119"></path><path d="M524.0832 450.9696l-68.97664 9.68704 68.99712-9.70752-0.02048 0.02048" fill="#FFFFFF" p-id="5120"></path><path d="M524.10368 450.94912l-68.99712 9.70752v-0.02048l68.99712-9.68704M524.10368 450.94912l-68.99712 9.68704 68.99712-9.68704" fill="#FFFFFF" p-id="5121"></path><path d="M524.10368 450.94912l-68.99712 9.68704h0.02048l68.97664-9.68704" fill="#FFFFFF" p-id="5122"></path><path d="M524.10368 450.94912l-68.97664 9.68704 68.97664-9.70752v0.02048" fill="#FFFFFF" p-id="5123"></path><path d="M524.10368 450.92864l-68.97664 9.70752 68.99712-9.70752h-0.02048" fill="#FFFFFF" p-id="5124"></path><path d="M524.12416 450.92864l-68.99712 9.70752v-0.02048l68.99712-9.68704M524.12416 450.92864l-68.99712 9.68704 68.99712-9.68704M524.12416 450.92864l-68.99712 9.68704 68.99712-9.68704M524.12416 450.92864l-68.99712 9.68704 68.99712-9.68704" fill="#FFFFFF" p-id="5125"></path><path d="M524.12416 450.92864l-68.99712 9.68704h0.02048l68.97664-9.70752v0.02048M524.12416 450.90816l-68.97664 9.70752 68.97664-9.70752M524.12416 450.90816l-68.97664 9.70752 68.97664-9.70752M524.12416 450.90816l-68.97664 9.70752 68.97664-9.70752M524.12416 450.90816l-68.97664 9.70752 68.97664-9.70752M524.12416 450.90816l-68.97664 9.70752 68.97664-9.70752" fill="#FFFFFF" p-id="5126"></path><path d="M515.33824 460.0832l0.55296-0.28672 0.53248-0.32768 0.2048-0.14336 0.53248-0.38912 0.53248-0.43008 0.22528-0.2048 0.47104-0.47104 0.47104-0.512 0.16384-0.2048-4.62848 5.632v-2.29376l0.45056-0.16384 0.45056-0.2048h0.04096" fill="#FFFFFF" p-id="5127"></path><path d="M519.02464 462.60224l-0.45056-0.38912-0.47104-0.34816-0.18432-0.12288-0.512-0.3072-0.53248-0.26624-0.22528-0.1024-0.55296-0.18432-0.55296-0.14336-0.2048-0.04096-0.45056-0.08192-0.45056-0.04096h-0.02048v-2.29376l4.608 4.32128M514.41664 460.45184l-0.02048 2.29376-0.04096 0.08192v-2.3552l0.06144-0.02048" fill="#FFFFFF" p-id="5128"></path><path d="M514.41664 458.28096v2.29376h-0.06144v-2.3552l0.06144 0.06144" fill="#FFFFFF" p-id="5129"></path><path d="M514.33472 460.4928l0.02048-0.02048v2.3552l-0.06144 0.06144v-2.39616h0.04096" fill="#FFFFFF" p-id="5130"></path><path d="M514.3552 458.21952v2.3552h-0.06144v-2.41664l0.06144 0.06144M514.29376 460.4928v2.39616l-0.06144 0.08192v-2.4576l0.06144-0.02048" fill="#FFFFFF" p-id="5131"></path><path d="M514.29376 458.15808v2.41664h-0.06144v-2.4576l0.06144 0.04096" fill="#FFFFFF" p-id="5132"></path><path d="M514.23232 460.51328v2.4576l-0.06144 0.08192v-2.51904l0.06144-0.02048" fill="#FFFFFF" p-id="5133"></path><path d="M514.23232 458.11712v2.4576h-0.06144v-2.51904l0.06144 0.06144M514.17088 460.53376v2.51904l-0.06144 0.06144v-2.56l0.06144-0.02048" fill="#FFFFFF" p-id="5134"></path><path d="M514.17088 458.05568v2.51904h-0.06144v-2.58048l0.06144 0.06144M514.10944 460.55424v2.56l-0.06144 0.08192v-2.64192h0.06144" fill="#FFFFFF" p-id="5135"></path><path d="M514.10944 457.99424v2.58048H514.048v-2.64192l0.06144 0.06144M514.048 460.55424v2.64192l-0.06144 0.06144v-2.68288l0.06144-0.02048" fill="#FFFFFF" p-id="5136"></path><path d="M514.048 457.9328v2.64192h-0.06144l0.02048-2.68288 0.04096 0.04096" fill="#FFFFFF" p-id="5137"></path><path d="M514.00704 457.89184l-0.02048 2.68288h-0.04096 0.04096v2.68288l-0.06144 0.08192 0.02048-5.50912 0.06144 0.06144M513.9456 457.8304l-0.02048 5.50912-0.06144 0.06144 0.02048-5.632 0.06144 0.06144" fill="#FFFFFF" p-id="5138"></path><path d="M513.88416 457.76896l-0.02048 5.632-0.06144 0.08192V460.36992l0.02048-0.16384v-2.49856l0.06144 0.06144" fill="#FFFFFF" p-id="5139"></path><path d="M513.82272 457.70752l-0.02048 5.77536-0.06144 0.08192 0.02048-5.89824 0.06144 0.04096" fill="#FFFFFF" p-id="5140"></path><path d="M513.76128 457.66656l-0.02048 5.89824-0.06144 0.06144 0.02048-6.02112 0.06144 0.06144" fill="#FFFFFF" p-id="5141"></path><path d="M513.69984 457.60512l-0.02048 6.02112-0.06144 0.08192 0.02048-6.16448 0.06144 0.06144" fill="#FFFFFF" p-id="5142"></path><path d="M513.6384 457.54368V461.76256l-0.02048 0.512v1.4336l-0.06144 0.06144 0.02048-6.28736 0.06144 0.06144" fill="#FFFFFF" p-id="5143"></path><path d="M513.57696 457.48224l-0.02048 6.28736-0.06144 0.08192v-0.8192l0.02048-0.65536V457.4208l0.06144 0.06144" fill="#FFFFFF" p-id="5144"></path><path d="M513.51552 457.4208l-0.02048 6.43072-0.06144 0.08192 0.02048-6.5536 0.06144 0.04096M513.45408 457.37984l-0.02048 6.5536-3.44064 4.1984 0.02048-13.96736 3.44064 3.21536" fill="#FFFFFF" p-id="5145"></path><path d="M507.33056 404.93056l0.06144-0.02048-0.06144 0.02048M507.392 404.91008h0.06144-0.06144M507.45344 404.91008l0.04096-0.02048v0.02048h-0.04096M507.4944 404.91008v-0.02048l0.06144-0.02048v0.04096h-0.06144M507.55584 404.91008v-0.04096l0.06144-0.02048v0.06144h-0.06144M507.61728 404.91008v-0.06144h0.06144v0.06144h-0.06144M507.71968 404.91008h-0.04096v-0.06144l0.04096-0.02048h0.02048v0.08192h-0.02048M507.74016 404.91008v-0.08192l0.06144-0.02048v0.1024h-0.06144M512.4096 406.95808l-0.45056-0.38912-0.47104-0.34816-0.18432-0.12288-0.512-0.3072-0.53248-0.28672-0.22528-0.1024-0.53248-0.18432-0.55296-0.14336-0.2048-0.04096-0.45056-0.08192-0.45056-0.04096h-0.04096v-0.1024l0.45056-0.16384 0.45056-0.2048 0.02048-0.02048 0.55296-0.28672 0.53248-0.32768 0.2048-0.14336 0.53248-0.38912 0.53248-0.43008 0.22528-0.2048 0.47104-0.47104 0.47104-0.512 0.16384-0.2048 5.03808-6.144-0.02048 16.34304-5.0176-4.68992M517.4272 411.66848l0.04096-16.34304v6.53312l-0.02048 0.8192V411.68896l-0.02048-0.02048" fill="#FFFFFF" p-id="5146"></path><path d="M517.44768 411.68896l0.02048-16.36352V404.31616l-0.02048 0.8192v6.5536" fill="#FFFFFF" p-id="5147"></path><path d="M517.44768 411.68896l0.02048-16.36352 0.02048-0.02048-0.04096 16.384" fill="#FFFFFF" p-id="5148"></path><path d="M517.44768 411.68896v-4.096l0.02048-0.8192V396.12416l0.02048-0.8192-0.04096 16.384" fill="#FFFFFF" p-id="5149"></path><path d="M517.44768 411.68896v-2.4576l0.02048-0.8192V398.58176l0.02048-0.8192v-2.4576 4.096l-0.02048 0.8192V410.86976l-0.02048 0.8192" fill="#FFFFFF" p-id="5150"></path><path d="M517.44768 411.68896l0.02048-0.8192V400.22016l0.02048-0.8192v-4.096 5.7344l-0.02048 0.8192V411.70944l-0.02048-0.02048" fill="#FFFFFF" p-id="5151"></path><path d="M517.46816 411.70944l0.02048-16.40448v-0.02048 7.39328l-0.02048 0.8192V411.70944M517.46816 411.70944l0.02048-16.42496-0.02048 16.42496" fill="#FFFFFF" p-id="5152"></path><path d="M517.46816 411.70944v-6.57408l0.02048-0.8192V395.28448h0.02048l-0.04096 16.42496" fill="#FFFFFF" p-id="5153"></path><path d="M517.46816 411.70944V406.77376l0.02048-0.8192V396.10368l0.02048-0.8192v0.8192l-0.02048 0.8192V406.77376l-0.02048 0.83968v4.096" fill="#FFFFFF" p-id="5154"></path><path d="M517.46816 411.70944v-4.096l0.02048-0.83968V396.92288l0.02048-0.8192v-0.8192l-0.04096 16.42496M517.46816 411.70944l0.04096-16.42496-0.04096 16.42496" fill="#FFFFFF" p-id="5155"></path><path d="M517.46816 411.70944l0.04096-16.42496v3.2768l-0.02048 0.8192V410.07104l-0.02048 0.8192v0.8192" fill="#FFFFFF" p-id="5156"></path><path d="M517.46816 411.70944l0.04096-16.42496v4.096l-0.02048 0.8192V410.07104l-0.02048 0.8192v0.8192M517.46816 411.70944l0.04096-16.42496-0.04096 16.42496" fill="#FFFFFF" p-id="5157"></path><path d="M517.46816 411.70944l0.02048-0.8192V400.19968l0.02048-0.8192v-4.096l-0.04096 16.42496" fill="#FFFFFF" p-id="5158"></path><path d="M517.46816 411.70944l0.02048-0.8192V401.03936l0.02048-0.83968V395.28448l-0.04096 16.42496" fill="#FFFFFF" p-id="5159"></path><path d="M503.37792 412.48768l-62.2592 8.74496 14.09024-17.16224 62.2592-8.74496-14.09024 17.16224M517.46816 395.32544l-62.2592 8.74496 62.2592-8.74496M517.46816 395.32544l-62.2592 8.74496 62.2592-8.74496" fill="#FFFFFF" p-id="5160"></path><path d="M517.46816 395.32544l-62.2592 8.74496 62.27968-8.76544-0.02048 0.02048" fill="#FFFFFF" p-id="5161"></path><path d="M517.48864 395.30496l-62.27968 8.76544 0.02048-0.02048 62.2592-8.74496M517.48864 395.30496l-62.2592 8.74496 62.2592-8.74496M517.48864 395.30496l-62.2592 8.74496 62.2592-8.74496" fill="#FFFFFF" p-id="5162"></path><path d="M517.48864 395.30496l-62.2592 8.74496 62.2592-8.76544v0.02048M517.48864 395.28448l-62.2592 8.76544 62.2592-8.76544" fill="#FFFFFF" p-id="5163"></path><path d="M517.48864 395.28448l-62.2592 8.76544v-0.02048l62.27968-8.74496h-0.02048M517.50912 395.28448l-62.27968 8.74496 62.27968-8.74496" fill="#FFFFFF" p-id="5164"></path><path d="M517.50912 395.28448l-62.27968 8.74496h0.02048l62.2592-8.74496M517.50912 395.28448l-62.2592 8.74496 62.2592-8.74496M517.50912 395.28448l-62.2592 8.74496 62.2592-8.74496M517.50912 395.28448l-62.2592 8.74496 62.2592-8.74496M517.50912 395.28448l-62.2592 8.74496 62.2592-8.74496M517.50912 395.28448l-62.2592 8.74496 62.2592-8.74496M517.50912 395.28448l-62.2592 8.74496 62.2592-8.74496" fill="#FFFFFF" p-id="5165"></path><path d="M441.1392 407.22432l62.2592-8.74496 14.0288 13.2096-62.2592 8.74496-14.0288-13.2096" fill="#FFFFFF" p-id="5166"></path><path d="M455.168 420.43392l62.2592-8.76544 0.02048 0.02048-62.27968 8.74496M455.168 420.43392l62.27968-8.74496-62.2592 8.74496h-0.02048M455.18848 420.43392l62.2592-8.74496-62.2592 8.74496M455.18848 420.43392l62.2592-8.74496-62.2592 8.74496" fill="#FFFFFF" p-id="5167"></path><path d="M455.18848 420.43392l62.2592-8.74496-62.2592 8.76544v-0.02048" fill="#FFFFFF" p-id="5168"></path><path d="M455.18848 420.4544l62.2592-8.76544 0.02048 0.02048-62.27968 8.74496M455.18848 420.4544l62.27968-8.74496-62.2592 8.74496h-0.02048M455.20896 420.4544l62.2592-8.74496-62.2592 8.74496M455.20896 420.4544l62.2592-8.74496-62.2592 8.74496M455.20896 420.4544l62.2592-8.74496-62.2592 8.74496M455.20896 420.4544l62.2592-8.74496-62.2592 8.74496M455.20896 420.4544l62.2592-8.74496-62.2592 8.74496M455.20896 420.4544l62.2592-8.74496-62.2592 8.74496" fill="#FFFFFF" p-id="5169"></path><path d="M455.20896 420.4544l62.2592-8.74496-62.2592 8.76544v-0.02048M455.20896 420.47488l62.2592-8.76544-62.2592 8.76544M455.20896 420.47488l62.2592-8.76544-62.2592 8.76544M455.20896 420.47488l62.2592-8.76544-62.2592 8.76544" fill="#FFFFFF" p-id="5170"></path><path d="M508.74368 404.41856l0.55296-0.28672 0.53248-0.32768 0.2048-0.14336 0.53248-0.38912 0.53248-0.43008 0.22528-0.2048 0.47104-0.47104 0.47104-0.512 0.16384-0.2048-4.62848 5.65248v-2.31424l0.45056-0.16384 0.45056-0.2048h0.04096" fill="#FFFFFF" p-id="5171"></path><path d="M512.4096 406.95808l-0.45056-0.38912-0.47104-0.34816-0.18432-0.12288-0.512-0.3072-0.53248-0.28672-0.22528-0.1024-0.53248-0.18432-0.55296-0.14336-0.2048-0.04096-0.45056-0.08192-0.45056-0.04096h-0.04096v-2.31424l4.608 4.36224M507.71968 404.82816l0.06144-0.02048v2.31424l-0.06144 0.06144v-2.3552" fill="#FFFFFF" p-id="5172"></path><path d="M507.8016 402.59584l-0.02048 2.31424h-0.06144l0.02048-2.3552 0.06144 0.04096M507.71968 404.82816v2.3552l-0.06144 0.08192 0.02048-2.41664 0.04096-0.02048" fill="#FFFFFF" p-id="5173"></path><path d="M507.74016 402.55488l-0.02048 2.3552h-0.04096v-2.41664l0.06144 0.06144M507.67872 404.84864l-0.02048 2.41664-0.06144 0.06144 0.02048-2.4576 0.06144-0.02048" fill="#FFFFFF" p-id="5174"></path><path d="M507.67872 402.49344V404.91008h-0.06144v-2.47808l0.06144 0.06144M507.61728 404.86912l-0.02048 2.4576-0.06144 0.08192 0.02048-2.53952h0.06144" fill="#FFFFFF" p-id="5175"></path><path d="M507.61728 402.432v2.47808h-0.06144v-2.51904l0.06144 0.04096M507.55584 404.86912l-0.02048 2.53952-0.04096 0.06144v-2.58048l0.06144-0.02048" fill="#FFFFFF" p-id="5176"></path><path d="M507.55584 402.39104v2.51904h-0.06144v-2.58048l0.06144 0.06144M507.4944 404.8896v2.58048l-0.06144 0.08192v-2.64192l0.06144-0.02048" fill="#FFFFFF" p-id="5177"></path><path d="M507.4944 402.3296v2.58048h-0.06144v-2.64192l0.06144 0.06144M507.43296 404.91008v2.64192l-0.06144 0.08192v-2.72384h0.06144M507.43296 402.26816v2.64192h-0.06144v-2.70336l0.06144 0.06144M507.37152 402.20672v2.70336l-0.04096 0.02048 0.04096-0.02048v2.72384l-0.06144 0.06144v-5.5296l0.06144 0.04096M507.31008 402.16576v5.5296l-0.06144 0.08192v-5.67296l0.06144 0.06144M507.24864 402.10432v5.67296l-0.06144 0.06144V402.04288l0.06144 0.06144M507.1872 402.04288V407.83872l-0.06144 0.08192v-5.9392l0.06144 0.06144M507.12576 401.98144v5.9392l-0.06144 0.08192v-6.08256l0.06144 0.06144M507.06432 401.92v6.08256l-0.06144 0.06144 0.02048-6.18496 0.04096 0.04096" fill="#FFFFFF" p-id="5178"></path><path d="M507.02336 401.87904l-0.02048 6.18496-0.06144 0.08192 0.02048-6.32832 0.06144 0.06144" fill="#FFFFFF" p-id="5179"></path><path d="M506.96192 401.8176l-0.02048 0.79872v5.5296l-0.06144 0.06144 0.02048-6.4512 0.06144 0.06144" fill="#FFFFFF" p-id="5180"></path><path d="M506.90048 401.75616l-0.02048 6.4512-0.06144 0.08192 0.02048-6.59456 0.06144 0.06144M506.83904 401.69472l-0.02048 6.59456-3.44064 4.1984 0.02048-14.00832 3.44064 3.21536" fill="#FFFFFF" p-id="5181"></path><path d="M511.36512 351.15008l0.06144-0.02048-0.06144 0.02048M511.42656 351.1296h0.04096-0.04096M511.46752 351.1296l0.06144-0.02048v0.02048h-0.06144M511.52896 351.1296v-0.02048l0.06144-0.02048v0.04096h-0.06144M511.5904 351.1296v-0.04096l0.06144-0.02048v0.06144h-0.06144M511.65184 351.1296v-0.06144h0.06144v0.06144h-0.06144M511.75424 351.1296h-0.04096v-0.06144l0.04096-0.02048h0.02048v0.08192h-0.02048M511.77472 351.1296v-0.08192l0.06144-0.02048v0.1024h-0.06144M516.44416 353.1776l-0.45056-0.38912-0.47104-0.34816-0.18432-0.12288-0.512-0.3072-0.53248-0.26624-0.22528-0.1024-0.53248-0.18432-0.55296-0.14336-0.2048-0.04096-0.45056-0.08192-0.45056-0.04096h-0.04096v-0.1024l0.45056-0.16384 0.45056-0.2048 0.02048-0.02048 0.55296-0.28672 0.53248-0.32768 0.2048-0.14336 0.53248-0.38912 0.53248-0.43008 0.22528-0.2048 0.47104-0.47104 0.47104-0.512 0.16384-0.2048 5.03808-6.144V357.92896l-5.03808-4.75136" fill="#FFFFFF" p-id="5182"></path><path d="M521.46176 357.888v-0.79872l0.02048-0.8192V345.64096l0.02048-0.8192v-3.2768 5.71392l-0.02048 0.8192V357.90848l-0.02048-0.02048M521.48224 357.90848l0.02048-16.36352-0.02048 16.36352" fill="#FFFFFF" p-id="5183"></path><path d="M521.48224 357.90848v-7.3728l0.02048-0.8192V341.54496l0.02048-0.02048-0.04096 16.384M521.48224 357.90848l0.04096-16.384-0.04096 16.384" fill="#FFFFFF" p-id="5184"></path><path d="M521.48224 357.90848v-2.4576l0.02048-0.8192V343.98208l0.02048-0.8192v-1.6384l-0.04096 16.384" fill="#FFFFFF" p-id="5185"></path><path d="M521.48224 357.90848l0.04096-16.384v5.7344l-0.02048 0.8192V357.92896l-0.02048-0.02048" fill="#FFFFFF" p-id="5186"></path><path d="M521.50272 357.92896l0.02048-16.40448v-0.02048l-0.02048 16.42496" fill="#FFFFFF" p-id="5187"></path><path d="M521.50272 357.92896l0.02048-16.42496V350.53568l-0.02048 0.8192v6.57408M521.50272 357.92896l0.02048-16.42496-0.02048 16.42496" fill="#FFFFFF" p-id="5188"></path><path d="M521.50272 357.92896l0.02048-16.42496h0.02048v0.8192l-0.02048 0.8192V352.99328l-0.02048 0.83968v4.096" fill="#FFFFFF" p-id="5189"></path><path d="M521.50272 357.92896l0.04096-16.42496v1.6384l-0.02048 0.8192V353.83296l-0.02048 0.8192v3.2768" fill="#FFFFFF" p-id="5190"></path><path d="M521.50272 357.92896v-3.2768l0.02048-0.8192V343.9616l0.02048-0.8192v-1.6384 2.4576l-0.02048 0.8192V354.65216l-0.02048 0.8192v2.4576" fill="#FFFFFF" p-id="5191"></path><path d="M521.50272 357.92896l0.04096-16.42496v3.2768l-0.02048 0.8192V355.47136l-0.02048 0.8192v1.6384" fill="#FFFFFF" p-id="5192"></path><path d="M521.50272 357.92896v-1.6384l0.02048-0.8192V345.6l0.02048-0.8192v-3.2768l-0.04096 16.42496" fill="#FFFFFF" p-id="5193"></path><path d="M521.50272 357.92896v-0.8192l0.02048-0.8192V346.4192l0.02048-0.8192v-4.096 4.096l-0.02048 0.8192V356.29056l-0.02048 0.8192v0.8192" fill="#FFFFFF" p-id="5194"></path><path d="M521.50272 357.92896v-0.8192l0.02048-0.8192V346.4192l0.02048-0.8192v-4.096l-0.04096 16.42496" fill="#FFFFFF" p-id="5195"></path><path d="M521.50272 357.92896l0.02048-0.8192V346.4192l0.02048-0.8192v-4.096l-0.04096 16.42496" fill="#FFFFFF" p-id="5196"></path><path d="M512.77824 350.63808l0.55296-0.28672 0.53248-0.32768 0.2048-0.14336 0.53248-0.38912 0.53248-0.43008 0.22528-0.2048 0.47104-0.47104 0.47104-0.512 0.16384-0.2048-4.62848 5.65248v-2.31424l0.45056-0.16384 0.45056-0.2048h0.04096" fill="#FFFFFF" p-id="5197"></path><path d="M516.44416 353.1776l-0.45056-0.38912-0.47104-0.34816-0.18432-0.12288-0.512-0.3072-0.53248-0.26624-0.22528-0.1024-0.53248-0.18432-0.55296-0.14336-0.2048-0.04096-0.45056-0.08192-0.45056-0.04096h-0.04096v-2.27328c1.69984 1.55648 3.25632 3.03104 4.608 4.3008M511.75424 351.04768l0.06144-0.02048v2.31424l-0.06144 0.06144v-2.3552" fill="#FFFFFF" p-id="5198"></path><path d="M511.81568 348.81536v2.31424h-0.06144l0.02048-2.3552 0.04096 0.04096M511.75424 351.04768v2.3552l-0.06144 0.08192v-2.41664l0.06144-0.02048" fill="#FFFFFF" p-id="5199"></path><path d="M511.77472 348.7744v0.67584l-0.02048 0.53248v1.14688h-0.06144l0.02048-2.41664 0.06144 0.06144M511.6928 351.06816v2.41664l-0.06144 0.06144 0.02048-2.4576 0.04096-0.02048" fill="#FFFFFF" p-id="5200"></path><path d="M511.71328 348.71296v2.19136l-0.02048 0.12288v0.1024h-0.04096v-2.47808l0.06144 0.06144M511.65184 351.08864l-0.02048 2.4576-0.06144 0.08192 0.02048-2.53952h0.06144" fill="#FFFFFF" p-id="5201"></path><path d="M511.65184 348.65152v2.47808h-0.06144v-2.51904l0.06144 0.04096M511.5904 351.08864l-0.02048 2.53952-0.04096 0.06144v-2.58048l0.06144-0.02048" fill="#FFFFFF" p-id="5202"></path><path d="M511.5904 348.61056v2.51904h-0.06144v-2.58048l0.06144 0.06144M511.52896 351.10912v2.58048l-0.06144 0.08192v-2.64192l0.06144-0.02048" fill="#FFFFFF" p-id="5203"></path><path d="M511.52896 348.54912v2.58048h-0.06144v-2.64192l0.06144 0.06144M511.46752 351.1296v2.64192l-0.06144 0.08192v-2.72384h0.06144M511.46752 348.48768v2.64192h-0.06144v-2.70336l0.06144 0.06144M511.40608 348.42624v2.70336l-0.04096 0.02048 0.04096-0.02048v2.72384l-0.06144 0.06144v-5.5296l0.06144 0.04096M511.34464 348.38528v5.5296l-0.06144 0.08192v-5.67296l0.06144 0.06144M511.2832 348.32384v5.67296l-0.06144 0.06144v-5.79584l0.06144 0.06144M511.22176 348.2624v5.79584l-0.06144 0.08192v-5.9392l0.06144 0.06144M511.16032 348.20096v5.9392l-0.06144 0.08192v-6.08256l0.06144 0.06144M511.09888 348.13952v6.08256l-0.06144 0.06144v-6.18496l0.06144 0.04096M511.03744 348.09856v6.18496l-0.06144 0.08192 0.02048-6.32832 0.04096 0.06144" fill="#FFFFFF" p-id="5204"></path><path d="M510.99648 348.03712l-0.02048 6.32832-0.06144 0.06144 0.02048-6.4512 0.06144 0.06144" fill="#FFFFFF" p-id="5205"></path><path d="M510.93504 347.97568l-0.02048 6.4512-0.06144 0.08192 0.02048-6.59456 0.06144 0.06144M510.8736 347.91424l-0.02048 6.59456-3.44064 4.1984 0.02048-14.00832 3.44064 3.21536" fill="#FFFFFF" p-id="5206"></path><path d="M441.01632 477.81888l0.12288-70.59456 14.0288 13.2096-0.08192 40.2432-14.06976 17.14176M455.10656 460.65664l0.06144-40.22272-0.06144 40.22272M455.10656 460.65664l0.06144-40.22272h0.02048l-0.08192 40.22272" fill="#FFFFFF" p-id="5207"></path><path d="M455.10656 460.65664l0.08192-40.22272-0.08192 40.20224v0.02048M455.10656 460.63616l0.08192-40.20224-0.08192 40.20224" fill="#FFFFFF" p-id="5208"></path><path d="M455.10656 460.63616l0.08192-40.20224v0.02048l-0.06144 40.18176h-0.02048M455.12704 460.63616l0.06144-40.18176-0.06144 40.18176" fill="#FFFFFF" p-id="5209"></path><path d="M455.12704 460.63616l0.06144-40.18176h0.02048l-0.08192 40.18176" fill="#FFFFFF" p-id="5210"></path><path d="M455.12704 460.63616l0.08192-40.18176-0.08192 40.16128v0.02048M455.12704 460.61568l0.08192-40.16128-0.08192 40.16128M455.12704 460.61568l0.08192-40.16128-0.08192 40.16128M455.12704 460.61568l0.08192-40.16128-0.08192 40.16128" fill="#FFFFFF" p-id="5211"></path><path d="M455.12704 460.61568l0.08192-40.16128-0.06144 40.16128h-0.02048M455.14752 460.61568l0.06144-40.16128-0.06144 40.16128" fill="#FFFFFF" p-id="5212"></path><path d="M455.14752 460.61568l0.06144-40.16128v0.02048l-0.06144 40.1408M455.14752 460.61568l0.06144-40.1408-0.06144 40.1408M455.14752 460.61568l0.06144-40.1408-0.06144 40.1408M455.14752 460.61568l0.06144-40.1408-0.06144 40.1408" fill="#FFFFFF" p-id="5213"></path><path d="M441.2416 353.9968l66.19136-9.29792 14.0288 13.2096-66.19136 9.29792-14.0288-13.2096" fill="#FFFFFF" p-id="5214"></path><path d="M455.2704 367.2064l66.19136-9.3184 0.02048 0.02048-66.21184 9.29792" fill="#FFFFFF" p-id="5215"></path><path d="M455.2704 367.2064l66.21184-9.29792-66.19136 9.29792h-0.02048M455.29088 367.2064l66.19136-9.29792-66.19136 9.29792M455.29088 367.2064l66.19136-9.29792-66.19136 9.29792" fill="#FFFFFF" p-id="5216"></path><path d="M455.29088 367.2064l66.19136-9.29792-66.19136 9.3184v-0.02048M455.29088 367.22688l66.19136-9.3184 0.02048 0.02048-66.21184 9.29792M455.29088 367.22688l66.21184-9.29792-66.21184 9.29792" fill="#FFFFFF" p-id="5217"></path><path d="M455.29088 367.22688l66.21184-9.29792-66.19136 9.29792h-0.02048M455.31136 367.22688l66.19136-9.29792-66.19136 9.29792M455.31136 367.22688l66.19136-9.29792-66.19136 9.29792M455.31136 367.22688l66.19136-9.29792-66.19136 9.29792M455.31136 367.22688l66.19136-9.29792-66.19136 9.29792" fill="#FFFFFF" p-id="5218"></path><path d="M455.31136 367.22688l66.19136-9.29792-66.19136 9.3184v-0.02048M455.31136 367.24736l66.19136-9.3184-66.19136 9.3184M455.31136 367.24736l66.19136-9.3184-66.19136 9.3184M455.31136 367.24736l66.19136-9.3184-66.19136 9.3184M455.31136 367.24736l66.19136-9.3184-66.19136 9.3184" fill="#FFFFFF" p-id="5219"></path><path d="M441.11872 421.23264l0.12288-67.23584 14.0288 13.2096-0.06144 36.88448-14.09024 17.14176M455.20896 404.0704l0.06144-36.864-0.06144 36.864" fill="#FFFFFF" p-id="5220"></path><path d="M455.20896 404.0704l0.06144-36.864h0.02048l-0.08192 36.864M455.20896 404.0704l0.08192-36.864-0.08192 36.864M455.20896 404.0704l0.08192-36.864-0.06144 36.84352-0.02048 0.02048" fill="#FFFFFF" p-id="5221"></path><path d="M455.22944 404.04992l0.06144-36.84352v0.02048l-0.06144 36.82304M455.22944 404.04992l0.06144-36.82304-0.06144 36.82304M455.22944 404.04992l0.06144-36.82304-0.06144 36.82304" fill="#FFFFFF" p-id="5222"></path><path d="M455.22944 404.04992l0.06144-36.82304h0.02048l-0.08192 36.82304" fill="#FFFFFF" p-id="5223"></path><path d="M455.22944 404.04992l0.08192-36.82304-0.08192 36.80256v0.02048M455.22944 404.02944l0.08192-36.80256-0.08192 36.80256" fill="#FFFFFF" p-id="5224"></path><path d="M455.22944 404.02944l0.08192-36.80256-0.06144 36.80256h-0.02048M455.24992 404.02944l0.06144-36.80256-0.06144 36.80256" fill="#FFFFFF" p-id="5225"></path><path d="M455.24992 404.02944l0.06144-36.80256v0.02048l-0.06144 36.78208M455.24992 404.02944l0.06144-36.78208-0.06144 36.78208M455.24992 404.02944l0.06144-36.78208-0.06144 36.78208M455.24992 404.02944l0.06144-36.78208-0.06144 36.78208M455.24992 404.02944l0.06144-36.78208-0.06144 36.78208" fill="#FFFFFF" p-id="5226"></path><path d="M451.56352 366.55104l-0.18432 95.8464-14.09024 17.16224 0.22528-126.19776 14.04928 13.18912M437.51424 353.34144l-0.22528 126.19776 0.22528-126.19776M437.51424 353.34144l-0.22528 126.19776-0.02048 0.02048 0.24576-126.21824M437.51424 353.34144l-0.24576 126.21824 0.24576-126.21824M437.51424 353.34144l-0.24576 126.21824 0.24576-126.21824" fill="#FFFFFF" p-id="5227"></path><path d="M437.51424 353.34144l-0.24576 126.21824 0.22528-126.23872 0.02048 0.02048" fill="#FFFFFF" p-id="5228"></path><path d="M437.49376 353.32096l-0.22528 126.23872v0.02048l0.22528-126.2592M437.49376 353.32096l-0.22528 126.2592 0.22528-126.2592" fill="#FFFFFF" p-id="5229"></path><path d="M437.49376 353.32096l-0.22528 126.2592h-0.02048l0.24576-126.2592M437.49376 353.32096l-0.24576 126.2592 0.24576-126.2592M437.49376 353.32096l-0.24576 126.2592 0.24576-126.2592M437.49376 353.32096l-0.24576 126.2592 0.24576-126.2592" fill="#FFFFFF" p-id="5230"></path><path d="M437.49376 353.32096l-0.24576 126.2592v0.02048l0.22528-126.27968h0.02048M437.47328 353.32096l-0.22528 126.27968 0.22528-126.27968M437.47328 353.32096l-0.22528 126.27968 0.22528-126.27968" fill="#FFFFFF" p-id="5231"></path><path d="M437.47328 353.32096l-0.22528 126.27968 0.22528-126.30016v0.02048" fill="#FFFFFF" p-id="5232"></path><path d="M437.47328 353.30048l-0.22528 126.30016 0.22528-126.30016" fill="#FFFFFF" p-id="5233"></path><path d="M437.47328 353.30048l-0.22528 126.30016 0.22528-126.30016" fill="#FFFFFF" p-id="5234"></path><path d="M507.41248 358.7072l-55.84896 7.84384-14.0288-13.2096 83.968-11.79648-14.09024 17.16224M521.50272 341.54496l-83.98848 11.79648 83.98848-11.79648M521.50272 341.54496l-83.98848 11.79648 83.98848-11.79648" fill="#FFFFFF" p-id="5235"></path><path d="M521.50272 341.54496l-83.98848 11.79648 84.00896-11.81696-0.02048 0.02048M521.5232 341.52448l-84.00896 11.81696 84.00896-11.81696" fill="#FFFFFF" p-id="5236"></path><path d="M521.5232 341.52448l-84.00896 11.81696-0.02048-0.02048 84.02944-11.79648" fill="#FFFFFF" p-id="5237"></path><path d="M521.5232 341.52448l-84.02944 11.79648 84.02944-11.79648" fill="#FFFFFF" p-id="5238"></path><path d="M521.5232 341.52448l-84.02944 11.79648 84.02944-11.81696v0.02048" fill="#FFFFFF" p-id="5239"></path><path d="M521.5232 341.504l-84.02944 11.81696 84.02944-11.81696" fill="#FFFFFF" p-id="5240"></path><path d="M521.5232 341.504l-84.02944 11.81696 84.02944-11.81696" fill="#FFFFFF" p-id="5241"></path><path d="M521.5232 341.504l-84.02944 11.81696 84.04992-11.81696h-0.02048" fill="#FFFFFF" p-id="5242"></path><path d="M521.54368 341.504l-84.04992 11.81696 84.04992-11.81696" fill="#FFFFFF" p-id="5243"></path><path d="M521.54368 341.504l-84.04992 11.81696h-0.02048l84.0704-11.81696" fill="#FFFFFF" p-id="5244"></path><path d="M521.54368 341.504l-84.0704 11.81696 84.0704-11.81696" fill="#FFFFFF" p-id="5245"></path><path d="M521.54368 341.504l-84.0704 11.81696 84.0704-11.81696" fill="#FFFFFF" p-id="5246"></path><path d="M521.54368 341.504l-84.0704 11.81696v-0.02048l84.0704-11.79648M521.54368 341.504l-84.0704 11.79648 84.0704-11.79648M521.54368 341.504l-84.0704 11.79648 84.0704-11.79648" fill="#FFFFFF" p-id="5247"></path><path d="M627.05664 441.0368l0.38912-0.90112 0.34816-0.90112 0.32768-0.9216 0.24576-0.79872 0.3072-0.04096-1.61792 3.56352" fill="#FFFFFF" p-id="5248"></path><path d="M627.05664 441.0368l0.38912-0.90112 0.34816-0.90112 0.32768-0.9216 0.24576-0.79872 0.77824-0.1024 0.12288 0.86016 0.16384 0.83968 0.18432 0.83968 0.22528 0.79872 0.04096 0.12288 0.26624 0.75776 0.3072 0.73728 0.26624 0.55296 0.34816 0.65536 0.38912 0.63488 0.26624 0.36864 0.43008 0.53248 0.47104 0.512 0.22528 0.22528 5.7344 5.40672-0.86016 0.12288-0.86016 0.12288-0.86016 0.12288-0.86016 0.12288-0.86016 0.12288-0.86016 0.12288-0.86016 0.12288-0.86016 0.12288-0.86016 0.12288-0.86016 0.12288-0.86016 0.12288-0.86016 0.12288-0.86016 0.12288-0.86016 0.12288-0.86016 0.12288-0.86016 0.12288-0.86016 0.12288-0.86016 0.12288-0.86016 0.12288-0.86016 0.12288c0.14336-0.59392 2.51904-5.81632 5.67296-12.67712" fill="#FFFFFF" p-id="5249"></path><path d="M621.2608 453.69344l0.86016-0.12288 0.88064-0.12288 0.86016-0.12288 0.86016-0.12288 0.88064-0.12288 0.86016-0.12288 0.86016-0.12288 0.88064-0.12288 0.86016-0.12288 0.86016-0.12288 0.88064-0.12288 0.86016-0.12288 0.86016-0.12288 0.88064-0.12288 0.86016-0.12288 0.86016-0.1024 0.86016-0.12288 0.88064-0.12288 0.86016-0.12288 0.86016-0.12288-0.86016 0.12288-0.86016 0.12288-0.86016 0.12288-0.88064 0.12288-0.86016 0.12288-0.86016 0.12288-0.88064 0.12288-0.86016 0.12288-0.86016 0.12288-0.88064 0.1024-0.86016 0.12288-0.86016 0.12288-0.88064 0.12288-0.86016 0.12288-0.86016 0.12288-0.88064 0.12288-0.86016 0.12288-0.86016 0.12288-0.88064 0.12288-0.86016 0.12288" fill="#FFFFFF" p-id="5250"></path><path d="M621.2608 453.69344l0.86016-0.12288 0.88064-0.12288 0.86016-0.12288 0.86016-0.12288 0.88064-0.12288 0.86016-0.12288 0.86016-0.12288 0.88064-0.12288 0.86016-0.12288 0.86016-0.12288 0.88064-0.1024 0.86016-0.12288 0.86016-0.12288 0.88064-0.12288 0.86016-0.12288 0.86016-0.12288 0.88064-0.12288 0.86016-0.12288 0.86016-0.12288 0.86016-0.12288-17.32608 2.43712" fill="#FFFFFF" p-id="5251"></path><path d="M621.2608 453.69344l0.86016-0.12288 0.86016-0.12288 0.88064-0.12288 0.86016-0.12288 0.88064-0.12288 0.86016-0.1024 0.86016-0.12288 0.88064-0.12288 0.86016-0.12288 0.86016-0.12288 0.88064-0.12288 0.86016-0.12288 0.86016-0.12288 0.88064-0.12288 0.86016-0.12288 0.86016-0.12288 0.88064-0.12288 0.86016-0.12288 0.86016-0.12288 0.86016-0.12288h0.02048l-0.88064 0.12288-0.86016 0.12288-0.86016 0.12288-0.86016 0.12288-0.88064 0.12288-0.86016 0.12288-0.88064 0.12288-0.86016 0.12288-0.86016 0.12288-0.88064 0.12288-0.86016 0.12288-0.86016 0.12288-0.88064 0.12288-0.86016 0.12288-0.88064 0.12288-0.86016 0.12288-0.86016 0.12288-0.88064 0.12288-0.86016 0.12288-0.86016 0.1024" fill="#FFFFFF" p-id="5252"></path><path d="M621.2608 453.69344l17.34656-2.43712v0.02048l-17.34656 2.43712v-0.02048" fill="#FFFFFF" p-id="5253"></path><path d="M621.2608 453.71392l17.34656-2.43712-0.86016 0.12288-0.88064 0.12288-0.86016 0.12288-0.86016 0.12288-0.88064 0.12288-0.86016 0.1024-0.86016 0.12288-0.88064 0.12288-0.86016 0.12288-0.88064 0.12288-0.86016 0.12288-0.86016 0.12288-0.88064 0.12288-0.86016 0.12288-0.88064 0.12288-0.86016 0.12288-0.86016 0.12288-0.88064 0.12288-0.86016 0.12288-0.88064 0.12288h0.02048" fill="#FFFFFF" p-id="5254"></path><path d="M621.24032 453.71392l0.88064-0.12288 0.86016-0.12288 0.88064-0.12288 0.86016-0.12288 0.86016-0.12288 0.88064-0.12288 0.86016-0.12288 0.88064-0.12288 0.86016-0.12288 0.86016-0.12288 0.88064-0.12288 0.86016-0.12288 0.88064-0.12288 0.86016-0.12288 0.86016-0.1024 0.88064-0.12288 0.86016-0.12288 0.86016-0.12288 0.88064-0.12288 0.86016-0.12288-17.36704 2.43712" fill="#FFFFFF" p-id="5255"></path><path d="M621.24032 453.71392l17.36704-2.43712-0.86016 0.12288-0.86016 0.12288-0.88064 0.12288-0.86016 0.12288-0.88064 0.12288-0.86016 0.12288-0.86016 0.12288-0.88064 0.12288-0.86016 0.12288-0.88064 0.12288-0.86016 0.12288-0.86016 0.12288-0.88064 0.12288-0.86016 0.12288-0.88064 0.1024-0.86016 0.12288-0.86016 0.12288-0.88064 0.12288-0.86016 0.12288-0.88064 0.12288M621.24032 453.71392l17.36704-2.43712-17.36704 2.43712" fill="#FFFFFF" p-id="5256"></path><path d="M621.24032 453.71392l17.36704-2.43712h0.02048l-17.38752 2.4576v-0.02048" fill="#FFFFFF" p-id="5257"></path><path d="M621.24032 453.7344l17.38752-2.4576-0.88064 0.12288-0.86016 0.12288-0.88064 0.12288-0.86016 0.12288-0.86016 0.12288-0.88064 0.12288-0.86016 0.12288-0.88064 0.12288-0.86016 0.12288-0.88064 0.12288-0.86016 0.12288-0.86016 0.12288-0.88064 0.12288-0.86016 0.12288-0.88064 0.12288-0.86016 0.12288-0.88064 0.12288-0.86016 0.12288-0.86016 0.12288-0.88064 0.12288" fill="#FFFFFF" p-id="5258"></path><path d="M621.24032 453.7344l17.38752-2.4576v0.02048l-0.88064 0.1024-0.86016 0.12288-0.86016 0.12288-0.88064 0.12288-0.86016 0.12288-0.88064 0.12288-0.86016 0.12288-0.88064 0.12288-0.86016 0.12288-0.88064 0.12288-0.86016 0.12288-0.86016 0.12288-0.88064 0.12288-0.86016 0.12288-0.88064 0.12288-0.86016 0.12288-0.88064 0.12288-0.86016 0.12288-0.88064 0.12288-0.86016 0.12288M621.24032 453.7344l17.38752-2.43712-17.38752 2.43712M621.24032 453.7344l17.38752-2.43712-0.88064 0.12288-0.86016 0.12288-0.86016 0.12288-0.88064 0.12288-0.86016 0.1024-0.88064 0.12288-0.86016 0.12288-0.88064 0.12288-0.86016 0.12288-0.88064 0.12288-0.86016 0.12288-0.86016 0.12288-0.88064 0.12288-0.86016 0.12288-0.88064 0.12288-0.86016 0.12288-0.88064 0.12288-0.86016 0.12288-0.88064 0.12288-0.86016 0.12288M621.24032 453.7344l17.38752-2.43712-17.38752 2.43712M621.24032 453.7344l17.38752-2.43712-17.38752 2.43712" fill="#FFFFFF" p-id="5259"></path><path d="M621.24032 453.7344l17.38752-2.43712-0.86016 0.12288-0.88064 0.12288-0.86016 0.12288-0.88064 0.12288-0.86016 0.12288-0.88064 0.12288-0.86016 0.12288-0.88064 0.12288-0.86016 0.1024-0.88064 0.12288-0.86016 0.12288-0.86016 0.12288-0.88064 0.12288-0.86016 0.12288-0.88064 0.12288-0.86016 0.12288-0.88064 0.12288-0.86016 0.12288-0.88064 0.12288-0.86016 0.12288M621.24032 453.7344l17.38752-2.43712-17.38752 2.43712" fill="#FFFFFF" p-id="5260"></path><path d="M629.8624 338.6368l-0.1024-0.55296-0.14336-0.53248-0.04096-0.14336-0.22528-0.63488-0.26624-0.6144-0.14336-0.28672-0.32768-0.6144-0.36864-0.59392-0.2048-0.28672-0.43008-0.53248-0.47104-0.512-0.22528-0.22528 5.91872 5.57056-2.94912 0.4096-0.02048-0.24576v-0.2048" fill="#FFFFFF" p-id="5261"></path><path d="M632.89344 332.26752l-0.49152 0.63488-0.45056 0.63488-0.18432 0.28672-0.38912 0.69632-0.34816 0.69632-0.16384 0.36864-0.28672 0.69632-0.24576 0.69632-0.1024 0.32768-0.14336 0.57344-0.12288 0.57344-0.02048 0.16384-0.04096 0.24576-0.02048 0.22528-2.94912 0.4096 5.95968-7.22944M626.95424 339.49696l2.94912-0.4096v0.04096-0.04096l2.94912-0.4096 0.06144 0.06144-6.02112 0.83968 0.06144-0.08192" fill="#FFFFFF" p-id="5262"></path><path d="M626.8928 339.57888l6.02112-0.83968 0.06144 0.04096-0.8192 0.12288-0.65536 0.1024-0.512 0.06144-0.38912 0.06144-0.28672 0.04096-0.18432 0.02048-0.12288 0.02048h-0.08192l-0.02048 0.02048h-0.1024l-0.12288 0.02048-0.18432 0.02048-0.28672 0.04096-0.38912 0.06144-0.512 0.06144-0.65536 0.1024-0.8192 0.12288 0.06144-0.08192" fill="#FFFFFF" p-id="5263"></path><path d="M626.83136 339.6608l6.144-0.88064 0.06144 0.06144-6.26688 0.88064 0.06144-0.06144" fill="#FFFFFF" p-id="5264"></path><path d="M626.76992 339.72224l6.26688-0.88064 0.06144 0.06144-6.38976 0.90112 0.06144-0.08192" fill="#FFFFFF" p-id="5265"></path><path d="M626.70848 339.80416l6.38976-0.90112 0.06144 0.06144-6.51264 0.9216 0.06144-0.08192" fill="#FFFFFF" p-id="5266"></path><path d="M626.64704 339.88608l6.51264-0.9216 0.06144 0.06144-0.83968 0.12288-0.69632 0.1024-0.55296 0.06144-0.4096 0.06144-0.3072 0.04096-0.2048 0.04096-0.14336 0.02048h-0.08192l-0.04096 0.02048h-0.12288l-0.08192 0.02048-0.14336 0.02048-0.2048 0.02048-0.3072 0.04096-0.4096 0.06144-0.55296 0.08192-0.67584 0.1024-0.86016 0.12288 0.06144-0.08192M626.5856 339.968l0.86016-0.12288 0.67584-0.1024 0.55296-0.08192 0.4096-0.06144 0.3072-0.04096 0.2048-0.02048 0.14336-0.02048 0.08192-0.02048h0.12288l0.04096-0.02048h0.08192l0.14336-0.02048 0.2048-0.04096 0.3072-0.04096 0.4096-0.06144 0.55296-0.06144 0.69632-0.1024 0.83968-0.12288 0.08192 0.06144-6.77888 0.94208 0.06144-0.06144M626.52416 340.02944l6.77888-0.94208 0.06144 0.06144-6.90176 0.96256 0.06144-0.08192" fill="#FFFFFF" p-id="5267"></path><path d="M626.46272 340.11136l6.90176-0.96256 0.06144 0.06144-7.04512 0.98304 0.08192-0.08192M626.3808 340.19328l7.04512-0.98304 0.06144 0.06144-0.90112 0.12288-0.7168 0.1024-0.57344 0.08192-0.45056 0.06144-0.32768 0.04096-0.22528 0.04096-0.16384 0.02048h-0.1024l-0.08192 0.02048h-0.04096l-0.04096 0.02048h-0.08192l-0.1024 0.02048-0.16384 0.02048-0.22528 0.04096-0.32768 0.04096-0.45056 0.06144-0.57344 0.08192-0.7168 0.1024-0.90112 0.12288 0.06144-0.08192" fill="#FFFFFF" p-id="5268"></path><path d="M626.31936 340.2752l7.168-1.00352 0.06144 0.06144-7.29088 1.024 0.06144-0.08192" fill="#FFFFFF" p-id="5269"></path><path d="M626.25792 340.35712l7.29088-1.024 0.06144 0.06144-7.41376 1.024 0.06144-0.06144" fill="#FFFFFF" p-id="5270"></path><path d="M626.19648 340.41856l7.41376-1.024 0.06144 0.06144-7.53664 1.04448 0.06144-0.08192M626.13504 340.50048l7.53664-1.04448 0.06144 0.04096-0.9216 0.14336-0.75776 0.1024-0.59392 0.08192-0.47104 0.06144-0.36864 0.06144-0.24576 0.04096-0.18432 0.02048-0.12288 0.02048h-0.1024l-0.06144 0.02048h-0.06144l-0.08192 0.02048-0.14336 0.02048-0.16384 0.02048-0.26624 0.04096-0.34816 0.04096-0.47104 0.06144-0.6144 0.1024-0.75776 0.1024-0.9216 0.12288 0.06144-0.08192" fill="#FFFFFF" p-id="5271"></path><path d="M626.0736 340.5824l7.65952-1.08544 0.08192 0.06144-7.80288 1.10592 0.06144-0.08192" fill="#FFFFFF" p-id="5272"></path><path d="M626.01216 340.66432l0.9216-0.14336 0.77824-0.1024 0.6144-0.08192 0.47104-0.06144 0.36864-0.06144 0.26624-0.04096 0.18432-0.02048 0.12288-0.02048h0.1024l0.06144-0.02048h0.08192l0.08192-0.02048 0.12288-0.02048 0.2048-0.02048 0.26624-0.04096 0.34816-0.04096 0.47104-0.08192 0.6144-0.08192 0.77824-0.1024 0.94208-0.14336 0.06144 0.06144-7.94624 1.1264 0.08192-0.08192M625.93024 340.74624l7.92576-1.10592 1.20832 1.1264-10.3424 1.45408 1.20832-1.47456" fill="#FFFFFF" p-id="5273"></path><path d="M624.55808 438.04672l0.18432-95.8464 14.09024-17.16224-0.22528 126.19776c-0.59392-0.512-6.656-6.22592-14.04928-13.18912" fill="#FFFFFF" p-id="5274"></path><path d="M638.58688 451.25632l0.22528-126.19776h0.02048l-0.24576 126.19776" fill="#FFFFFF" p-id="5275"></path><path d="M638.58688 451.25632l0.24576-126.19776v-0.02048l-0.24576 126.21824" fill="#FFFFFF" p-id="5276"></path><path d="M638.58688 451.25632l0.24576-126.21824-0.22528 126.21824h-0.02048" fill="#FFFFFF" p-id="5277"></path><path d="M638.60736 451.25632l0.22528-126.21824-0.22528 126.23872v-0.02048M638.60736 451.2768l0.22528-126.23872-0.22528 126.23872M638.60736 451.2768l0.22528-126.23872h0.02048l-0.24576 126.23872" fill="#FFFFFF" p-id="5278"></path><path d="M638.60736 451.2768l0.24576-126.23872v-0.02048l-0.24576 126.2592M638.60736 451.2768l0.24576-126.2592-0.24576 126.2592" fill="#FFFFFF" p-id="5279"></path><path d="M638.60736 451.2768l0.24576-126.2592-0.22528 126.2592h-0.02048M638.62784 451.2768l0.22528-126.2592-0.22528 126.2592" fill="#FFFFFF" p-id="5280"></path><path d="M638.62784 451.2768l0.22528-126.2592-0.22528 126.27968v-0.02048M638.62784 451.29728l0.22528-126.27968-0.22528 126.27968M638.62784 451.29728l0.22528-126.27968-0.22528 126.27968M638.62784 451.29728l0.22528-126.27968-0.22528 126.27968M638.62784 451.29728l0.22528-126.27968-0.22528 126.27968M638.62784 451.29728l0.22528-126.27968-0.22528 126.27968" fill="#FFFFFF" p-id="5281"></path><path d="M638.62784 451.29728l0.22528-126.27968h0.02048l-0.24576 126.27968" fill="#FFFFFF" p-id="5282"></path><path d="M634.90048 434.66752l-22.20032 3.11296 7.43424-16.22016 0.73728-0.1024c0.55296 0.55296 6.63552 6.26688 14.0288 13.2096" fill="#FFFFFF" p-id="5283"></path><path d="M620.87168 421.4784l-0.73728 0.1024 0.7168-0.1024h0.02048" fill="#FFFFFF" p-id="5284"></path><path d="M620.8512 421.4784l-0.7168 0.1024v-0.02048l0.7168-0.1024v0.02048M620.8512 421.45792l-0.7168 0.1024 0.7168-0.1024M620.8512 421.45792l-0.7168 0.1024 0.7168-0.1024" fill="#FFFFFF" p-id="5285"></path><path d="M620.8512 421.45792l-0.7168 0.1024h0.02048l0.69632-0.1024" fill="#FFFFFF" p-id="5286"></path><path d="M620.8512 421.45792l-0.69632 0.1024 0.67584-0.1024h0.02048M620.83072 421.45792l-0.67584 0.1024v-0.02048l0.67584-0.08192" fill="#FFFFFF" p-id="5287"></path><path d="M620.83072 421.45792l-0.67584 0.08192 0.67584-0.1024v0.02048M620.83072 421.43744l-0.67584 0.1024 0.67584-0.1024M620.83072 421.43744l-0.67584 0.1024 0.67584-0.1024M620.83072 421.43744l-0.67584 0.1024 0.67584-0.1024M620.83072 421.43744l-0.67584 0.1024 0.67584-0.1024M620.83072 421.43744l-0.67584 0.1024 0.67584-0.1024M620.83072 421.43744l-0.67584 0.1024 0.67584-0.1024M620.83072 421.43744l-0.67584 0.1024 0.67584-0.1024M620.83072 421.43744l-0.67584 0.1024 0.67584-0.1024M620.83072 421.43744l-0.67584 0.1024v-0.02048l0.67584-0.08192" fill="#FFFFFF" p-id="5288"></path><path d="M554.51648 349.184l-0.4096 0.9216-0.36864 0.94208-0.32768 0.94208-0.08192 0.26624-0.22528 0.04096 1.41312-3.11296" fill="#FFFFFF" p-id="5289"></path><path d="M629.90336 339.12832v-0.06144 0.06144M632.89344 332.26752l-0.49152 0.63488-0.45056 0.63488-0.18432 0.28672-0.38912 0.69632-0.34816 0.69632-0.16384 0.36864-0.28672 0.69632-0.24576 0.69632-0.1024 0.32768-0.14336 0.57344-0.12288 0.57344-0.02048 0.16384-0.04096 0.24576-0.02048 0.2048-0.02048-0.24576-0.02048-0.2048-0.1024-0.55296-0.14336-0.53248-0.04096-0.14336-0.22528-0.63488-0.26624-0.6144-0.14336-0.28672-0.32768-0.6144-0.36864-0.59392-0.2048-0.28672-0.43008-0.53248-0.47104-0.512-0.22528-0.22528-5.89824-5.55008 0.88064-0.12288 0.88064-0.12288 0.88064-0.12288 0.88064-0.12288 0.88064-0.12288 0.88064-0.12288 0.88064-0.12288 0.88064-0.12288 0.88064-0.12288 0.88064-0.12288 0.88064-0.12288 0.88064-0.12288 0.88064-0.12288 0.88064-0.12288 0.88064-0.12288 0.88064-0.12288 0.88064-0.12288 0.88064-0.12288 0.88064-0.12288 0.88064-0.12288a100.33152 100.33152 0 0 1-5.71392 7.18848" fill="#FFFFFF" p-id="5290"></path><path d="M638.81216 325.05856l-0.88064 0.12288-0.88064 0.12288-0.90112 0.12288-0.88064 0.12288-0.88064 0.14336-0.90112 0.12288-0.88064 0.12288-0.90112 0.12288-0.88064 0.12288-0.90112 0.12288-0.88064 0.12288-0.90112 0.12288-0.88064 0.12288-0.90112 0.12288-0.88064 0.14336-0.88064 0.12288-0.90112 0.12288-0.88064 0.12288-0.88064 0.12288-0.90112 0.12288 0.88064-0.12288 0.90112-0.12288 0.88064-0.12288 0.90112-0.14336 0.88064-0.12288 0.88064-0.12288 0.90112-0.12288 0.88064-0.12288 0.90112-0.12288 0.88064-0.12288 0.90112-0.12288 0.88064-0.12288 0.90112-0.14336 0.88064-0.12288 0.90112-0.12288 0.88064-0.12288 0.90112-0.12288 0.88064-0.12288 0.88064-0.12288 0.90112-0.12288h-0.02048" fill="#FFFFFF" p-id="5291"></path><path d="M638.83264 325.05856l-17.79712 2.49856 17.79712-2.51904v0.02048" fill="#FFFFFF" p-id="5292"></path><path d="M638.83264 325.03808l-0.90112 0.14336-0.88064 0.12288-0.88064 0.12288-0.90112 0.12288-0.88064 0.12288-0.90112 0.12288-0.88064 0.12288-0.90112 0.12288-0.88064 0.12288-0.90112 0.14336-0.88064 0.12288-0.90112 0.12288-0.88064 0.12288-0.90112 0.12288-0.88064 0.12288-0.90112 0.12288-0.88064 0.12288-0.88064 0.12288-0.90112 0.14336-0.88064 0.12288v-0.02048l17.79712-2.49856M638.83264 325.03808l-17.79712 2.49856h-0.02048l17.8176-2.49856" fill="#FFFFFF" p-id="5293"></path><path d="M638.83264 325.03808l-17.8176 2.49856 0.90112-0.12288 0.88064-0.12288 0.90112-0.12288 0.88064-0.12288 0.90112-0.12288 0.88064-0.14336 0.90112-0.12288 0.88064-0.12288 0.90112-0.12288 0.88064-0.12288 0.90112-0.12288 0.88064-0.12288 0.90112-0.12288 0.88064-0.14336 0.90112-0.12288 0.88064-0.12288 0.90112-0.12288 0.90112-0.12288 0.88064-0.12288 0.88064-0.12288" fill="#FFFFFF" p-id="5294"></path><path d="M638.83264 325.03808l-0.88064 0.12288-0.88064 0.12288-0.90112 0.12288-0.90112 0.12288-0.88064 0.12288-0.90112 0.12288-0.88064 0.14336-0.90112 0.12288-0.88064 0.12288-0.90112 0.12288-0.88064 0.12288-0.90112 0.12288-0.88064 0.12288-0.90112 0.12288-0.88064 0.14336-0.90112 0.12288-0.88064 0.12288-0.90112 0.12288-0.88064 0.12288-0.90112 0.12288 17.83808-2.49856h-0.02048" fill="#FFFFFF" p-id="5295"></path><path d="M638.85312 325.03808l-17.83808 2.49856 17.83808-2.51904v0.02048" fill="#FFFFFF" p-id="5296"></path><path d="M638.85312 325.0176l-0.90112 0.14336-0.88064 0.12288-0.90112 0.12288-0.88064 0.12288-0.90112 0.12288-0.88064 0.12288-0.90112 0.12288-0.90112 0.12288-0.88064 0.12288-0.90112 0.14336-0.88064 0.12288-0.90112 0.12288-0.88064 0.12288-0.90112 0.12288-0.88064 0.12288-0.90112 0.12288-0.90112 0.12288-0.88064 0.14336-0.90112 0.12288-0.88064 0.12288 17.83808-2.51904" fill="#FFFFFF" p-id="5297"></path><path d="M638.85312 325.0176l-17.83808 2.51904 0.88064-0.14336 0.90112-0.12288 0.88064-0.12288 0.90112-0.12288 0.88064-0.12288 0.90112-0.12288 0.90112-0.12288 0.88064-0.12288 0.90112-0.14336 0.88064-0.12288 0.90112-0.12288 0.88064-0.12288 0.90112-0.12288 0.90112-0.12288 0.88064-0.12288 0.90112-0.12288 0.88064-0.14336 0.90112-0.12288 0.88064-0.12288 0.90112-0.12288" fill="#FFFFFF" p-id="5298"></path><path d="M638.85312 325.0176l-17.83808 2.51904-0.02048-0.02048 17.85856-2.49856" fill="#FFFFFF" p-id="5299"></path><path d="M638.85312 325.0176l-0.88064 0.12288-0.90112 0.12288-0.90112 0.12288-0.88064 0.12288-0.90112 0.14336-0.88064 0.12288-0.90112 0.12288-0.90112 0.12288-0.88064 0.12288-0.90112 0.12288-0.88064 0.12288-0.90112 0.12288-0.88064 0.14336-0.90112 0.12288-0.90112 0.12288-0.88064 0.12288-0.90112 0.12288-0.88064 0.12288-0.90112 0.12288-0.90112 0.12288 17.85856-2.49856" fill="#FFFFFF" p-id="5300"></path><path d="M638.85312 325.0176l-17.85856 2.49856 0.90112-0.12288 0.88064-0.12288 0.90112-0.12288 0.90112-0.12288 0.88064-0.12288 0.90112-0.12288 0.88064-0.14336 0.90112-0.12288 0.90112-0.12288 0.88064-0.12288 0.90112-0.12288 0.90112-0.12288 0.88064-0.12288 0.90112-0.14336 0.88064-0.12288 0.90112-0.12288 0.90112-0.12288 0.88064-0.12288 0.90112-0.12288 0.88064-0.12288" fill="#FFFFFF" p-id="5301"></path><path d="M638.85312 325.0176l-0.88064 0.12288-0.90112 0.12288-0.88064 0.12288-0.90112 0.12288-0.90112 0.12288-0.88064 0.12288-0.90112 0.14336-0.88064 0.12288-0.90112 0.12288-0.90112 0.12288-0.88064 0.12288-0.90112 0.12288-0.90112 0.12288-0.88064 0.14336-0.90112 0.12288-0.88064 0.12288-0.90112 0.12288-0.90112 0.12288-0.88064 0.12288-0.90112 0.12288 0.90112-0.12288 0.88064-0.12288 0.90112-0.12288 0.90112-0.12288 0.88064-0.12288 0.90112-0.14336 0.88064-0.12288 0.90112-0.12288 0.90112-0.12288 0.88064-0.12288 0.90112-0.12288 0.90112-0.12288 0.88064-0.12288 0.90112-0.14336 0.88064-0.12288 0.90112-0.12288 0.90112-0.12288 0.88064-0.12288 0.90112-0.12288 0.88064-0.12288M638.85312 325.0176l-17.85856 2.49856 17.85856-2.49856M638.85312 325.0176l-17.85856 2.49856 17.85856-2.49856" fill="#FFFFFF" p-id="5302"></path><path d="M638.85312 325.0176l-0.88064 0.12288-0.90112 0.12288-0.88064 0.12288-0.90112 0.12288-0.90112 0.12288-0.88064 0.12288-0.90112 0.12288-0.88064 0.14336-0.90112 0.12288-0.90112 0.12288-0.88064 0.12288-0.90112 0.12288-0.90112 0.12288-0.88064 0.12288-0.90112 0.12288-0.88064 0.14336-0.90112 0.12288-0.90112 0.12288-0.88064 0.12288-0.90112 0.12288 0.90112-0.12288 0.88064-0.12288 0.90112-0.12288 0.90112-0.12288 0.88064-0.14336 0.90112-0.12288 0.88064-0.12288 0.90112-0.12288 0.90112-0.12288 0.88064-0.12288 0.90112-0.12288 0.90112-0.12288 0.88064-0.14336 0.90112-0.12288 0.88064-0.12288 0.90112-0.12288 0.90112-0.12288 0.88064-0.12288 0.90112-0.12288 0.88064-0.12288" fill="#FFFFFF" p-id="5303"></path><path d="M638.85312 325.0176l-17.85856 2.49856 17.87904-2.49856h-0.02048" fill="#FFFFFF" p-id="5304"></path><path d="M635.06432 340.76672L634.88 434.688l-14.0288-13.2096 0.18432-93.92128 14.0288 13.2096" fill="#FFFFFF" p-id="5305"></path><path d="M621.03552 327.55712l-0.16384 93.92128h-0.02048l0.18432-93.92128M621.03552 327.55712l-0.18432 93.92128v-0.02048l0.18432-93.9008" fill="#FFFFFF" p-id="5306"></path><path d="M621.03552 327.55712l-0.18432 93.9008 0.18432-93.92128v0.02048" fill="#FFFFFF" p-id="5307"></path><path d="M621.03552 327.53664l-0.18432 93.92128 0.16384-93.92128h0.02048M621.01504 327.53664l-0.16384 93.92128 0.16384-93.92128" fill="#FFFFFF" p-id="5308"></path><path d="M621.01504 327.53664l-0.16384 93.92128h-0.02048l0.18432-93.92128M621.01504 327.53664l-0.18432 93.92128 0.18432-93.92128" fill="#FFFFFF" p-id="5309"></path><path d="M621.01504 327.53664l-0.18432 93.92128v-0.02048l0.18432-93.9008" fill="#FFFFFF" p-id="5310"></path><path d="M621.01504 327.53664l-0.18432 93.9008 0.18432-93.9008" fill="#FFFFFF" p-id="5311"></path><path d="M621.01504 327.53664l-0.18432 93.9008 0.16384-93.92128 0.02048 0.02048" fill="#FFFFFF" p-id="5312"></path><path d="M620.99456 327.51616l-0.16384 93.92128 0.16384-93.92128" fill="#FFFFFF" p-id="5313"></path><path d="M620.99456 327.51616l-0.16384 93.92128 0.16384-93.92128" fill="#FFFFFF" p-id="5314"></path><path d="M620.99456 327.51616l-0.16384 93.92128 0.16384-93.92128" fill="#FFFFFF" p-id="5315"></path><path d="M620.99456 327.51616l-0.16384 93.92128 0.16384-93.92128" fill="#FFFFFF" p-id="5316"></path><path d="M620.99456 327.51616l-0.16384 93.92128 0.16384-93.92128" fill="#FFFFFF" p-id="5317"></path><path d="M620.99456 327.51616l-0.16384 93.92128 0.16384-93.92128" fill="#FFFFFF" p-id="5318"></path><path d="M620.99456 327.51616l-0.16384 93.92128 0.16384-93.92128" fill="#FFFFFF" p-id="5319"></path><path d="M624.72192 342.2208l10.3424-1.45408L634.88 434.688l-22.20032 3.11296-59.61728-85.52448 3.50208-0.49152a149521.2032 149521.2032 0 0 1-0.18432 95.8464l-10.38336 1.45408 0.18432-94.98624 22.20032-3.11296 60.27264 86.48704-4.13696 0.57344c0.08192-26.86976 0.16384-68.95616 0.2048-95.82592z" fill="#FFFFFF" p-id="5320"></path><path d="M551.26016 451.23584l0.1024 0.55296 0.14336 0.53248 0.04096 0.14336 0.22528 0.63488 0.26624 0.6144 0.14336 0.28672 0.32768 0.6144 0.36864 0.59392 0.2048 0.28672 0.43008 0.53248 0.47104 0.512 0.22528 0.22528-5.91872-5.57056 0.79872-0.12288 0.63488-0.08192 0.49152-0.06144 0.36864-0.06144 0.26624-0.04096 0.18432-0.02048 0.1024-0.02048h0.08192l0.02048 0.24576 0.02048 0.2048" fill="#FFFFFF" p-id="5321"></path><path d="M548.2496 457.58464l0.49152-0.63488 0.45056-0.63488 0.18432-0.28672 0.38912-0.67584 0.34816-0.69632 0.16384-0.34816 0.28672-0.69632 0.24576-0.69632 0.1024-0.32768 0.14336-0.57344 0.12288-0.57344 0.02048-0.16384 0.04096-0.24576 0.02048-0.24576 2.9696-0.4096c-2.23232 2.64192-4.25984 5.09952-5.98016 7.20896M554.1888 450.33472l-2.9696 0.43008v-0.02048 0.02048h-0.08192l-0.1024 0.02048-0.18432 0.02048-0.28672 0.04096-0.36864 0.06144-0.512 0.06144-0.65536 0.1024-0.75776 0.1024-0.06144-0.06144 6.0416-0.83968-0.06144 0.06144" fill="#FFFFFF" p-id="5322"></path><path d="M554.25024 450.27328l-0.8192 0.1024-0.65536 0.1024-0.49152 0.06144-0.38912 0.06144-0.28672 0.04096-0.18432 0.02048-0.1024 0.02048h-0.1024l-0.02048 0.02048h-0.06144l-0.12288 0.02048-0.18432 0.02048-0.26624 0.04096-0.38912 0.06144-0.512 0.06144-0.65536 0.1024-0.79872 0.1024-0.06144-0.06144 0.8192-0.1024 0.65536-0.1024 0.512-0.08192 0.38912-0.04096 0.28672-0.04096 0.18432-0.02048 0.12288-0.02048 0.06144-0.02048h0.08192l0.08192-0.02048 0.1024-0.02048 0.2048-0.02048 0.28672-0.04096 0.38912-0.04096 0.512-0.08192 0.65536-0.1024 0.8192-0.1024-0.06144 0.08192" fill="#FFFFFF" p-id="5323"></path><path d="M554.31168 450.19136l-6.16448 0.86016-0.08192-0.06144 6.30784-0.88064-0.06144 0.08192" fill="#FFFFFF" p-id="5324"></path><path d="M554.37312 450.10944l-0.8192 0.12288-0.67584 0.08192-0.53248 0.08192-0.38912 0.06144-0.28672 0.04096-0.2048 0.02048-0.12288 0.02048h-0.06144l-0.04096 0.02048h-0.06144l-0.08192 0.02048h-0.12288l-0.18432 0.04096-0.28672 0.04096-0.4096 0.04096-0.512 0.08192-0.67584 0.1024-0.83968 0.1024-0.06144-0.06144 6.43072-0.90112-0.06144 0.08192M554.43456 450.02752l-6.43072 0.90112-0.06144-0.04096 6.5536-0.9216-0.06144 0.06144" fill="#FFFFFF" p-id="5325"></path><path d="M554.496 449.96608l-6.5536 0.9216-0.06144-0.06144 6.67648-0.94208-0.06144 0.08192M554.55744 449.88416l-6.67648 0.94208-0.06144-0.06144 0.86016-0.12288 0.7168-0.1024 0.55296-0.08192 0.4096-0.06144 0.32768-0.04096 0.2048-0.02048 0.16384-0.02048 0.08192-0.02048h0.06144l0.02048-0.02048h0.1024l0.08192-0.02048 0.14336-0.02048 0.22528-0.02048 0.3072-0.06144 0.43008-0.04096 0.55296-0.08192 0.69632-0.1024 0.88064-0.12288-0.08192 0.08192" fill="#FFFFFF" p-id="5326"></path><path d="M554.63936 449.80224l-6.81984 0.96256-0.06144-0.06144 6.94272-0.98304-0.06144 0.08192M554.7008 449.72032l-6.94272 0.98304-0.06144-0.06144 7.0656-1.00352-0.06144 0.08192" fill="#FFFFFF" p-id="5327"></path><path d="M554.76224 449.6384l-7.0656 1.00352-0.06144-0.06144 0.88064-0.12288 0.73728-0.1024 0.57344-0.08192 0.45056-0.06144 0.32768-0.04096 0.22528-0.04096 0.16384-0.02048 0.12288-0.02048h0.06144l0.04096-0.02048h0.06144l0.06144-0.02048h0.1024l0.16384-0.02048 0.24576-0.04096 0.32768-0.04096 0.45056-0.06144 0.57344-0.08192 0.7168-0.1024 0.90112-0.12288-0.06144 0.06144" fill="#FFFFFF" p-id="5328"></path><path d="M554.82368 449.57696l-7.18848 1.00352-0.06144-0.06144 7.31136-1.024-0.06144 0.08192" fill="#FFFFFF" p-id="5329"></path><path d="M554.88512 449.49504l-7.31136 1.024-0.06144-0.06144 7.43424-1.04448-0.06144 0.08192M554.94656 449.41312l-7.43424 1.04448-0.08192-0.06144 7.5776-1.06496-0.06144 0.08192" fill="#FFFFFF" p-id="5330"></path><path d="M555.008 449.3312l-7.5776 1.06496-0.06144-0.06144 0.94208-0.12288 0.75776-0.1024 0.59392-0.1024 0.47104-0.06144 0.36864-0.04096 0.26624-0.04096 0.18432-0.02048 0.12288-0.02048 0.08192-0.02048h0.06144l0.08192-0.02048h0.08192l0.12288-0.02048 0.18432-0.02048 0.26624-0.04096 0.34816-0.06144 0.47104-0.06144 0.6144-0.08192 0.75776-0.1024 0.9216-0.14336-0.06144 0.08192" fill="#FFFFFF" p-id="5331"></path><path d="M555.06944 449.24928l-7.70048 1.08544-0.06144-0.06144 7.84384-1.08544-0.08192 0.06144" fill="#FFFFFF" p-id="5332"></path><path d="M555.15136 449.18784l-0.94208 0.12288-0.77824 0.1024-0.6144 0.08192-0.47104 0.08192-0.36864 0.04096-0.26624 0.04096-0.18432 0.02048-0.12288 0.02048-0.1024 0.02048h-0.08192l-0.06144 0.02048-0.1024 0.02048h-0.12288l-0.18432 0.04096-0.26624 0.04096-0.36864 0.04096-0.49152 0.06144-0.59392 0.1024-0.77824 0.1024-0.94208 0.12288-0.06144-0.06144 7.96672-1.10592-0.06144 0.08192" fill="#FFFFFF" p-id="5333"></path><path d="M555.2128 449.10592l-7.96672 1.1264-1.20832-1.1264 10.38336-1.45408-1.20832 1.45408" fill="#FFFFFF" p-id="5334"></path><path d="M546.03776 449.08544l0.18432-94.98624 14.0288 13.2096-0.18432 94.98624-14.0288-13.2096M560.06656 462.29504l0.18432-94.98624-0.16384 94.98624h-0.02048" fill="#FFFFFF" p-id="5335"></path><path d="M560.08704 462.29504l0.16384-94.98624h0.02048l-0.18432 94.98624" fill="#FFFFFF" p-id="5336"></path><path d="M560.08704 462.29504l0.18432-94.98624v0.02048l-0.18432 94.96576M560.08704 462.29504l0.18432-94.96576-0.18432 94.96576" fill="#FFFFFF" p-id="5337"></path><path d="M560.08704 462.29504l0.18432-94.96576-0.18432 94.98624v-0.02048" fill="#FFFFFF" p-id="5338"></path><path d="M560.08704 462.31552l0.18432-94.98624-0.16384 94.98624h-0.02048" fill="#FFFFFF" p-id="5339"></path><path d="M560.10752 462.31552l0.16384-94.98624-0.16384 94.98624" fill="#FFFFFF" p-id="5340"></path><path d="M560.10752 462.31552l0.16384-94.98624h0.02048l-0.18432 94.98624" fill="#FFFFFF" p-id="5341"></path><path d="M560.10752 462.31552l0.18432-94.98624-0.18432 94.98624M560.10752 462.31552l0.18432-94.98624v0.02048l-0.18432 94.96576M560.10752 462.31552l0.18432-94.96576-0.18432 94.96576M560.10752 462.31552l0.18432-94.96576-0.18432 94.96576M560.10752 462.31552l0.18432-94.96576-0.18432 94.96576M560.10752 462.31552l0.18432-94.96576-0.18432 94.96576M560.10752 462.31552l0.18432-94.96576-0.16384 94.98624-0.02048-0.02048" fill="#FFFFFF" p-id="5342"></path><path d="M560.128 462.336l0.16384-94.98624-0.16384 94.98624M560.128 462.336l0.16384-94.98624-0.16384 94.98624" fill="#FFFFFF" p-id="5343"></path><path d="M546.22208 354.0992l22.20032-3.11296-7.43424 16.22016-0.73728 0.1024-14.0288-13.2096M560.25088 367.3088l0.73728-0.1024-0.73728 0.1024M560.25088 367.3088l0.73728-0.1024-0.7168 0.1024h-0.02048" fill="#FFFFFF" p-id="5344"></path><path d="M560.27136 367.3088l0.7168-0.1024-0.02048 0.02048-0.69632 0.1024v-0.02048M560.27136 367.32928l0.69632-0.1024-0.69632 0.1024M560.27136 367.32928l0.69632-0.1024-0.69632 0.1024M560.27136 367.32928l0.69632-0.1024-0.69632 0.1024M560.27136 367.32928l0.69632-0.1024-0.69632 0.1024" fill="#FFFFFF" p-id="5345"></path><path d="M560.27136 367.32928l0.69632-0.1024v0.02048l-0.67584 0.08192h-0.02048M560.29184 367.32928l0.67584-0.08192-0.67584 0.08192" fill="#FFFFFF" p-id="5346"></path><path d="M560.29184 367.32928l0.67584-0.08192-0.67584 0.1024v-0.02048M560.29184 367.34976l0.67584-0.1024-0.67584 0.1024M560.29184 367.34976l0.67584-0.1024-0.67584 0.1024M560.29184 367.34976l0.67584-0.1024-0.67584 0.1024M560.29184 367.34976l0.67584-0.1024-0.67584 0.1024M560.29184 367.34976l0.67584-0.1024-0.67584 0.1024M560.29184 367.34976l0.67584-0.1024-0.67584 0.1024M560.29184 367.34976l0.67584-0.1024-0.67584 0.1024" fill="#FFFFFF" p-id="5347"></path><path d="M551.58784 349.34784l-0.26624-0.77824-0.3072-0.75776-0.28672-0.59392-0.36864-0.67584-0.4096-0.63488-0.26624-0.4096-0.43008-0.55296-0.47104-0.512-0.24576-0.24576 8.0896 7.59808-4.34176 0.6144-0.14336-0.88064-0.18432-0.86016-0.22528-0.83968-0.14336-0.47104" fill="#FFFFFF" p-id="5348"></path><path d="M554.51648 349.184l-0.4096 0.9216-0.36864 0.94208-0.32768 0.94208-0.08192 0.26624-1.06496 0.14336-0.14336-0.88064-0.18432-0.86016-0.22528-0.83968-0.14336-0.47104-0.26624-0.77824-0.3072-0.75776-0.28672-0.59392-0.36864-0.67584-0.4096-0.63488-0.24576-0.4096-0.43008-0.55296-0.47104-0.512-0.24576-0.24576a628.44928 628.44928 0 0 0-5.95968-5.59104l0.90112-0.12288 0.90112-0.12288 0.90112-0.12288 0.90112-0.12288 0.90112-0.12288 0.90112-0.12288 0.90112-0.12288 0.90112-0.12288 0.90112-0.12288 0.90112-0.12288 0.90112-0.12288 0.90112-0.12288 0.90112-0.12288 0.90112-0.12288 0.90112-0.12288 0.90112-0.12288 0.90112-0.12288 0.90112-0.12288 0.90112-0.12288 0.90112-0.12288a350.208 350.208 0 0 0-6.08256 13.04576M560.51712 336.05632l-0.90112 0.14336-0.90112 0.12288-0.88064 0.12288-0.90112 0.12288-0.90112 0.12288-0.90112 0.12288-0.90112 0.14336-0.90112 0.12288-0.90112 0.12288-0.90112 0.12288-0.90112 0.12288-0.88064 0.12288-0.90112 0.14336-0.90112 0.12288-0.90112 0.12288-0.90112 0.12288-0.90112 0.12288-0.88064 0.12288-0.90112 0.12288-0.90112 0.14336v-0.02048l17.96096-2.51904M560.51712 336.05632l-17.96096 2.51904 17.96096-2.51904" fill="#FFFFFF" p-id="5349"></path><path d="M560.51712 336.05632l-17.96096 2.51904 0.88064-0.12288 0.90112-0.12288 0.90112-0.12288 0.90112-0.14336 0.90112-0.12288 0.90112-0.12288 0.90112-0.12288 0.88064-0.12288 0.90112-0.12288 0.90112-0.14336 0.90112-0.12288 0.90112-0.12288 0.90112-0.12288 0.90112-0.12288 0.90112-0.14336 0.90112-0.12288 0.90112-0.12288 0.90112-0.12288 0.90112-0.12288 0.90112-0.12288h-0.02048" fill="#FFFFFF" p-id="5350"></path><path d="M560.5376 336.05632l-17.98144 2.51904h-0.02048l0.90112-0.12288 0.90112-0.14336 0.90112-0.12288 0.90112-0.12288 0.90112-0.12288 0.90112-0.12288 0.90112-0.12288 0.88064-0.14336 0.90112-0.12288 0.90112-0.12288 0.90112-0.12288 0.90112-0.12288 0.90112-0.12288 0.90112-0.14336 0.90112-0.12288 0.90112-0.12288 0.90112-0.12288 0.90112-0.12288 0.90112-0.12288 0.90112-0.14336v0.02048M560.5376 336.03584l-18.00192 2.53952 18.00192-2.53952" fill="#FFFFFF" p-id="5351"></path><path d="M560.5376 336.03584l-18.00192 2.53952v-0.02048l0.90112-0.12288 0.90112-0.12288 0.90112-0.12288 0.90112-0.12288 0.90112-0.12288 0.88064-0.14336 0.90112-0.12288 0.90112-0.12288 0.90112-0.12288 0.90112-0.12288 0.90112-0.12288 0.90112-0.14336 0.90112-0.12288 0.90112-0.12288 0.90112-0.12288 0.90112-0.12288 0.90112-0.12288 0.90112-0.14336 0.90112-0.12288 0.90112-0.12288M560.5376 336.03584l-18.00192 2.51904 18.00192-2.51904M560.5376 336.03584l-18.00192 2.51904 18.00192-2.51904" fill="#FFFFFF" p-id="5352"></path><path d="M560.5376 336.03584l-18.00192 2.51904 0.90112-0.12288 0.90112-0.12288 0.88064-0.12288 0.90112-0.14336 0.90112-0.12288 0.90112-0.12288 0.90112-0.12288 0.90112-0.12288 0.90112-0.14336 0.90112-0.12288 0.90112-0.12288 0.90112-0.12288 0.90112-0.12288 0.90112-0.12288 0.90112-0.14336 0.90112-0.12288 0.90112-0.12288 0.90112-0.12288 0.90112-0.12288 0.90112-0.14336v0.02048M560.5376 336.01536l-18.00192 2.53952 18.00192-2.53952" fill="#FFFFFF" p-id="5353"></path><path d="M560.5376 336.01536l-0.90112 0.14336-0.90112 0.12288-0.90112 0.12288-0.90112 0.12288-0.90112 0.12288-0.90112 0.12288-0.90112 0.14336-0.90112 0.12288-0.90112 0.12288-0.90112 0.12288-0.90112 0.12288-0.90112 0.14336-0.90112 0.12288-0.90112 0.12288-0.90112 0.12288-0.90112 0.12288-0.90112 0.12288-0.90112 0.14336-0.90112 0.12288-0.88064 0.12288h-0.02048l18.0224-2.53952" fill="#FFFFFF" p-id="5354"></path><path d="M560.5376 336.01536l-18.0224 2.53952 0.90112-0.12288 0.90112-0.14336 0.90112-0.12288 0.90112-0.12288 0.90112-0.12288 0.90112-0.12288 0.90112-0.12288 0.90112-0.14336 0.90112-0.12288 0.90112-0.12288 0.90112-0.12288 0.90112-0.12288 0.90112-0.14336 0.90112-0.12288 0.90112-0.12288 0.90112-0.12288 0.90112-0.12288 0.90112-0.12288 0.90112-0.14336 0.90112-0.12288M560.5376 336.01536l-18.0224 2.53952 18.0224-2.53952M560.5376 336.01536l-18.0224 2.53952 18.0224-2.53952" fill="#FFFFFF" p-id="5355"></path><path d="M560.5376 336.01536l-18.0224 2.53952 0.90112-0.14336 0.90112-0.12288 0.90112-0.12288 0.90112-0.12288 0.90112-0.12288 0.90112-0.12288 0.90112-0.14336 0.90112-0.12288 0.90112-0.12288 0.90112-0.12288 0.90112-0.12288 0.90112-0.14336 0.90112-0.12288 0.90112-0.12288 0.90112-0.12288 0.90112-0.12288 0.90112-0.12288 0.90112-0.14336 0.90112-0.12288 0.90112-0.12288" fill="#FFFFFF" p-id="5356"></path><path d="M560.5376 336.01536l-0.90112 0.12288-0.90112 0.12288-0.90112 0.14336-0.90112 0.12288-0.90112 0.12288-0.90112 0.12288-0.90112 0.12288-0.90112 0.12288-0.90112 0.14336-0.90112 0.12288-0.90112 0.12288-0.90112 0.12288-0.90112 0.12288-0.90112 0.14336-0.90112 0.12288-0.90112 0.12288-0.90112 0.12288-0.90112 0.12288-0.90112 0.12288-0.90112 0.14336 18.0224-2.53952M560.5376 336.01536l-18.0224 2.53952 18.0224-2.53952" fill="#FFFFFF" p-id="5357"></path><path d="M556.58496 351.78496l-0.18432 95.8464-14.09024 17.16224 0.22528-126.19776 14.04928 13.18912" fill="#FFFFFF" p-id="5358"></path><path d="M542.55616 338.59584l-0.22528 126.17728v0.02048l0.22528-126.21824v0.02048" fill="#FFFFFF" p-id="5359"></path><path d="M542.55616 338.57536l-0.22528 126.21824h-0.02048l0.24576-126.21824M542.55616 338.57536l-0.24576 126.21824 0.24576-126.21824" fill="#FFFFFF" p-id="5360"></path><path d="M542.55616 338.57536l-0.24576 126.21824 0.22528-126.21824h0.02048" fill="#FFFFFF" p-id="5361"></path><path d="M542.53568 338.57536l-0.22528 126.21824v0.02048l0.22528-126.23872" fill="#FFFFFF" p-id="5362"></path><path d="M542.53568 338.57536l-0.22528 126.23872 0.22528-126.2592v0.02048" fill="#FFFFFF" p-id="5363"></path><path d="M542.53568 338.55488l-0.22528 126.2592h-0.02048l0.24576-126.2592M542.53568 338.55488l-0.24576 126.2592 0.24576-126.2592M542.53568 338.55488l-0.24576 126.2592 0.24576-126.2592M542.53568 338.55488l-0.24576 126.2592 0.24576-126.2592" fill="#FFFFFF" p-id="5364"></path><path d="M542.53568 338.55488l-0.24576 126.2592v0.0" fill="#FFFFFF" p-id="5365"></path></svg>