<?xml version="1.0" standalone="no"?><!DOCTYPE svg PUBLIC "-//W3C//DTD SVG 1.1//EN" "http://www.w3.org/Graphics/SVG/1.1/DTD/svg11.dtd"><svg t="1655221607367" class="icon" viewBox="0 0 1024 1024" version="1.1" xmlns="http://www.w3.org/2000/svg" p-id="3285" xmlns:xlink="http://www.w3.org/1999/xlink" width="200" height="200"><defs><style type="text/css">@font-face { font-family: feedback-iconfont; src: url("//at.alicdn.com/t/font_1031158_u69w8yhxdu.woff2?t=1630033759944") format("woff2"), url("//at.alicdn.com/t/font_1031158_u69w8yhxdu.woff?t=1630033759944") format("woff"), url("//at.alicdn.com/t/font_1031158_u69w8yhxdu.ttf?t=1630033759944") format("truetype"); }
</style></defs><path d="M886.92736 920.59648l-560.57856 52.69504-189.27616-158.08512 560.57856-52.69504z" fill="#EFF6FE" p-id="3286"></path><path d="M8.45824 653.90592l0.04096-44.66688c0 1.2288 0.69632 2.47808 2.17088 3.70688L10.62912 657.6128c-1.47456-1.2288-2.17088-2.47808-2.17088-3.70688" fill="#EAF4FE" p-id="3287"></path><path d="M987.52512 794.91072l0.04096-44.66688c2.62144-0.24576 5.09952-0.55296 7.41376-0.94208l-0.04096 44.66688a102.83008 102.83008 0 0 1-7.41376 0.94208M994.93888 793.98912l0.04096-44.66688c1.8432-0.3072 3.584-0.63488 5.2224-1.00352l-0.04096 44.66688c-1.6384 0.36864-3.3792 0.69632-5.2224 1.00352" fill="#EAF4FE" p-id="3288"></path><path d="M1000.16128 792.9856l0.04096-44.66688c1.18784-0.26624 2.31424-0.55296 3.39968-0.86016l-0.04096 44.66688a63.22176 63.22176 0 0 1-3.39968 0.86016" fill="#EAF4FE" p-id="3289"></path><path d="M1003.54048 792.12544l0.04096-44.66688c0.86016-0.24576 1.67936-0.49152 2.43712-0.75776l-0.04096 44.66688a43.43808 43.43808 0 0 1-2.43712 0.75776M1005.99808 791.36768l0.04096-44.66688c0.65536-0.22528 1.29024-0.45056 1.88416-0.69632l-0.04096 44.66688c-0.59392 0.24576-1.2288 0.47104-1.88416 0.69632" fill="#EAF4FE" p-id="3290"></path><path d="M1007.88224 790.67136l0.04096-44.66688a26.624 26.624 0 0 0 1.536-0.65536l-0.04096 44.66688a18.2272 18.2272 0 0 1-1.536 0.65536" fill="#EAF4FE" p-id="3291"></path><path d="M1009.41824 790.016l0.04096-44.66688 1.29024-0.63488-0.04096 44.66688c-0.38912 0.22528-0.83968 0.43008-1.29024 0.63488" fill="#EAF4FE" p-id="3292"></path><path d="M1010.70848 789.38112l0.04096-44.66688a14.21312 14.21312 0 0 0 1.10592-0.63488l-0.04096 44.66688a14.21312 14.21312 0 0 1-1.10592 0.63488M1011.8144 788.76672l0.04096-44.66688a15.1552 15.1552 0 0 0 0.94208-0.63488l-0.04096 44.66688-0.94208 0.63488" fill="#EAF4FE" p-id="3293"></path><path d="M1012.75648 788.13184l0.04096-44.66688a6.144 6.144 0 0 0 0.77824-0.63488l-0.04096 44.66688a11.6736 11.6736 0 0 1-0.77824 0.63488" fill="#EAF4FE" p-id="3294"></path><path d="M1013.53472 787.49696l0.04096-44.66688c0.24576-0.2048 0.45056-0.43008 0.65536-0.63488l-0.04096 44.66688a4.83328 4.83328 0 0 1-0.65536 0.63488M1014.19008 786.86208l0.04096-44.66688a7.4752 7.4752 0 0 0 0.53248-0.65536l-0.04096 44.66688c-0.16384 0.22528-0.32768 0.45056-0.53248 0.65536" fill="#EAF4FE" p-id="3295"></path><path d="M1014.72256 786.20672l0.04096-44.66688a5.9392 5.9392 0 0 0 0.4096-0.67584l-0.04096 44.66688c-0.12288 0.22528-0.24576 0.45056-0.4096 0.67584" fill="#EAF4FE" p-id="3296"></path><path d="M1015.13216 785.53088l0.04096-44.66688a3.23584 3.23584 0 0 0 0.26624-0.69632l-0.04096 44.66688a7.00416 7.00416 0 0 1-0.26624 0.69632" fill="#EAF4FE" p-id="3297"></path><path d="M1015.37792 784.83456l0.04096-44.66688a4.87424 4.87424 0 0 0 0.12288-0.75776l-0.04096 44.66688a2.3552 2.3552 0 0 1-0.12288 0.75776" fill="#EAF4FE" p-id="3298"></path><path d="M1015.5008 784.0768l0.04096-44.66688v-0.1024l-0.04096 44.66688v0.1024" fill="#EAF4FE" p-id="3299"></path><path d="M10.62912 657.6128l0.04096-44.66688 233.45152 194.94912-0.04096 44.66688z" fill="#CBE4FE" p-id="3300"></path><path d="M296.20224 859.89376l0.04096-44.66688 691.32288-64.98304-0.04096 44.66688z" fill="#EAF4FE" p-id="3301"></path><path d="M244.08064 852.56192l0.04096-44.66688c1.82272 1.536 4.68992 2.88768 8.27392 4.01408l-0.04096 44.66688a24.4736 24.4736 0 0 1-8.27392-4.01408" fill="#EAF4FE" p-id="3302"></path><path d="M252.33408 856.59648l0.04096-44.66688c0.94208 0.28672 1.90464 0.57344 2.94912 0.83968l-0.04096 44.66688a74.38336 74.38336 0 0 1-2.94912-0.83968M255.2832 857.43616l0.04096-44.66688c0.83968 0.22528 1.69984 0.43008 2.58048 0.6144l-0.04096 44.66688a247.1936 247.1936 0 0 1-2.58048-0.6144M257.86368 858.05056l0.04096-44.66688 2.41664 0.49152-0.04096 44.66688-2.41664-0.49152M260.28032 858.54208l0.04096-44.66688 2.31424 0.4096-0.04096 44.66688-2.31424-0.4096" fill="#EAF4FE" p-id="3303"></path><path d="M262.59456 858.9312l0.04096-44.66688 2.2528 0.34816-0.04096 44.66688a74.1376 74.1376 0 0 1-2.2528-0.34816M264.84736 859.27936l0.04096-44.66688 2.21184 0.28672-0.04096 44.66688a64.8192 64.8192 0 0 1-2.21184-0.28672" fill="#EAF4FE" p-id="3304"></path><path d="M267.0592 859.56608l0.04096-44.66688 2.21184 0.24576-0.04096 44.66688-2.21184-0.24576M269.27104 859.81184l0.04096-44.66688 2.21184 0.2048-0.04096 44.66688a80.65024 80.65024 0 0 1-2.21184-0.2048M271.48288 860.01664l0.04096-44.66688 2.23232 0.16384-0.04096 44.66688a81.77664 81.77664 0 0 1-2.23232-0.16384M273.73568 860.18048l0.04096-44.66688c0.73728 0.04096 1.47456 0.1024 2.23232 0.12288l-0.04096 44.66688a39.64928 39.64928 0 0 1-2.23232-0.12288" fill="#EAF4FE" p-id="3305"></path><path d="M275.94752 860.32384l0.04096-44.66688 2.23232 0.1024-0.04096 44.66688a81.36704 81.36704 0 0 0-2.23232-0.1024" fill="#EAF4FE" p-id="3306"></path><path d="M278.17984 860.40576l0.04096-44.66688 2.23232 0.06144-0.04096 44.66688-2.23232-0.06144M280.41216 860.4672l0.04096-44.66688 2.21184 0.02048-0.04096 44.66688-2.21184-0.02048" fill="#EAF4FE" p-id="3307"></path><path d="M282.624 860.48768l0.04096-44.66688h2.2528l-0.04096 44.66688h-2.2528" fill="#EAF4FE" p-id="3308"></path><path d="M284.8768 860.48768l0.04096-44.66688 2.37568-0.04096-0.04096 44.66688-2.37568 0.04096M287.25248 860.44672l0.04096-44.66688 2.62144-0.1024-0.04096 44.66688-2.62144 0.1024" fill="#EAF4FE" p-id="3309"></path><path d="M289.87392 860.34432l0.04096-44.66688a121.4464 121.4464 0 0 0 3.91168-0.24576l-0.04096 44.66688a125.27616 125.27616 0 0 1-3.91168 0.24576" fill="#EAF4FE" p-id="3310"></path><path d="M293.7856 860.09856l0.04096-44.66688 2.41664-0.2048-0.04096 44.66688-2.41664 0.2048" fill="#EAF4FE" p-id="3311"></path><path d="M987.56608 750.24384l-691.32288 64.98304c-21.52448 2.02752-44.8512-1.24928-52.1216-7.33184L10.67008 612.92544c-7.2704-6.06208 4.28032-12.63616 25.8048-14.6432l691.32288-64.98304c21.504-2.02752 44.87168 1.26976 52.1216 7.33184l233.45152 194.9696c7.2704 6.06208-4.3008 12.63616-25.8048 14.6432z" fill="#DFEEFE" p-id="3312"></path><path d="M784.46592 698.94144L365.79328 738.304l-141.37344-118.0672 418.67264-39.36256z" fill="#7DBEFE" p-id="3313"></path><path d="M753.41824 345.21088l-47.45216-25.82528a140.88192 140.88192 0 0 0-8.64256-5.12l47.45216 25.82528c2.94912 1.61792 5.8368 3.31776 8.64256 5.12" fill="#A2D0FF" p-id="3314"></path><path d="M686.24384 77.14816l-47.45216-25.82528a59.5968 59.5968 0 0 1 23.22432 1.18784l47.45216 25.82528a59.57632 59.57632 0 0 0-23.22432-1.18784M709.48864 78.336l-47.45216-25.82528c3.72736 0.96256 7.31136 2.29376 10.71104 3.95264l47.45216 25.82528a56.81152 56.81152 0 0 0-10.71104-3.95264" fill="#A2D0FF" p-id="3315"></path><path d="M720.19968 82.30912l-47.45216-25.82528 2.06848 1.06496 47.45216 25.82528a65.41312 65.41312 0 0 0-2.06848-1.06496" fill="#A2D0FF" p-id="3316"></path><path d="M326.656 687.39072l-47.45216-25.82528c-18.96448-10.32192-31.58016-31.39584-31.5392-57.30304l47.45216 25.82528c-0.04096 25.9072 12.57472 47.0016 31.5392 57.30304" fill="#A2D0FF" p-id="3317"></path><path d="M363.7248 122.4704l-47.45216-25.8048 322.51904-45.34272 47.45216 25.82528z" fill="#A2D0FF" p-id="3318"></path><path d="M295.1168 630.08768l-47.45216-25.82528 0.77824-425.04192 47.45216 25.82528z" fill="#A2D0FF" p-id="3319"></path><path d="M295.89504 205.04576l-47.45216-25.82528c0.02048-9.85088 1.86368-19.49696 5.18144-28.5696l47.45216 25.82528a83.59936 83.59936 0 0 0-5.18144 28.5696M301.09696 176.47616l-47.45216-25.82528c1.45408-3.93216 3.1744-7.76192 5.14048-11.42784l47.45216 25.82528a88.10496 88.10496 0 0 0-5.14048 11.42784M306.23744 165.04832l-47.45216-25.82528c1.67936-3.11296 3.52256-6.12352 5.55008-8.99072l47.45216 25.82528c-2.00704 2.8672-3.87072 5.87776-5.55008 8.99072" fill="#A2D0FF" p-id="3320"></path><path d="M311.78752 156.0576l-47.45216-25.82528c1.90464-2.72384 3.95264-5.3248 6.144-7.7824l47.45216 25.82528c-2.19136 2.4576-4.23936 5.05856-6.144 7.7824M317.93152 148.25472l-47.45216-25.82528c2.19136-2.47808 4.5056-4.83328 6.9632-7.02464l47.45216 25.82528c-2.4576 2.19136-4.77184 4.54656-6.9632 7.02464" fill="#A2D0FF" p-id="3321"></path><path d="M324.87424 141.23008l-47.45216-25.82528c2.62144-2.3552 5.36576-4.52608 8.23296-6.51264l47.45216 25.82528c-2.8672 1.98656-5.61152 4.15744-8.23296 6.51264M333.1072 134.71744l-47.45216-25.82528c3.50208-2.41664 7.18848-4.54656 10.99776-6.3488l47.45216 25.82528a78.52032 78.52032 0 0 0-10.99776 6.3488" fill="#A2D0FF" p-id="3322"></path><path d="M344.10496 128.38912l-47.45216-25.82528c6.22592-2.92864 12.8-4.95616 19.61984-5.89824l47.45216 25.8048a68.54656 68.54656 0 0 0-19.61984 5.91872" fill="#A2D0FF" p-id="3323"></path><path d="M686.24384 77.14816c37.21216-5.2224 67.62496 23.36768 67.54304 63.54944l-0.38912 204.53376c-27.79136-17.8176-61.89056-25.84576-98.83648-20.66432-93.2864 13.1072-169.08288 105.3696-169.2672 206.06976-0.1024 59.61728 26.3168 108.81024 67.21536 136.31488l-189.89056 26.68544c-37.21216 5.2224-67.62496-23.36768-67.54304-63.54944l0.79872-425.04192c0.08192-40.18176 30.59712-77.33248 67.82976-82.57536l322.53952-45.32224z" fill="#4CA7FF" p-id="3324"></path><path d="M680.1408 374.19008l-48.70144-26.48064a123.51488 123.51488 0 0 1 48.3328 2.47808l48.70144 26.48064a123.51488 123.51488 0 0 0-48.3328-2.47808M728.4736 376.64768l-48.70144-26.48064c7.72096 1.98656 15.09376 4.73088 22.09792 8.17152l48.70144 26.48064a115.56864 115.56864 0 0 0-22.09792-8.17152" fill="#A2D0FF" p-id="3325"></path><path d="M750.57152 384.8192l-48.70144-26.48064c1.4336 0.69632 2.8672 1.4336 4.25984 2.21184l48.70144 26.48064c-1.39264-0.77824-2.82624-1.49504-4.25984-2.21184" fill="#A2D0FF" p-id="3326"></path><path d="M604.85632 663.32672l-48.70144-26.48064c-39.09632-21.25824-64.98304-64.77824-64.88064-118.4768a173.83424 173.83424 0 0 1 10.77248-59.45344l48.70144 26.48064a173.6704 173.6704 0 0 0-10.77248 59.45344c-0.1024 53.69856 25.78432 97.21856 64.88064 118.4768M550.74816 485.39648l-48.70144-26.48064c2.9696-8.11008 6.53312-15.9744 10.58816-23.53152l48.70144 26.48064a182.64064 182.64064 0 0 0-10.58816 23.53152M561.33632 461.84448l-48.70144-26.48064c3.44064-6.38976 7.24992-12.57472 11.38688-18.47296l48.70144 26.48064c-4.11648 5.91872-7.94624 12.0832-11.38688 18.47296M572.74368 443.37152l-48.70144-26.48064c3.91168-5.57056 8.11008-10.91584 12.5952-15.9744l48.70144 26.48064a179.9168 179.9168 0 0 0-12.5952 15.9744" fill="#A2D0FF" p-id="3327"></path><path d="M585.33888 427.39712l-48.70144-26.48064c4.5056-5.09952 9.25696-9.91232 14.27456-14.41792l48.70144 26.48064c-5.0176 4.5056-9.78944 9.3184-14.27456 14.41792M599.61344 412.9792L550.912 386.47808c5.36576-4.83328 11.01824-9.3184 16.91648-13.39392l48.70144 26.48064c-5.89824 4.096-11.55072 8.58112-16.91648 13.4144" fill="#A2D0FF" p-id="3328"></path><path d="M616.52992 399.58528l-48.70144-26.48064a157.98272 157.98272 0 0 1 22.7328-13.1072l48.70144 26.48064a157.98272 157.98272 0 0 0-22.7328 13.1072" fill="#A2D0FF" p-id="3329"></path><path d="M639.24224 386.47808l-48.70144-26.48064a142.37696 142.37696 0 0 1 40.89856-12.288l48.70144 26.48064a142.56128 142.56128 0 0 0-40.89856 12.288" fill="#A2D0FF" p-id="3330"></path><path d="M680.1408 374.19008c77.23008-10.8544 139.73504 47.94368 139.59168 131.33824-0.16384 83.39456-62.91456 159.78496-140.14464 170.63936-77.27104 10.8544-139.776-47.94368-139.61216-131.33824 0.14336-83.37408 62.91456-159.78496 140.16512-170.63936z" fill="#4CA7FF" p-id="3331"></path><path d="M657.63328 173.19936c14.00832-1.86368 25.33376 8.192 25.31328 22.4256-0.02048 14.2336-11.40736 27.27936-25.41568 29.14304L401.8176 258.62144c-14.00832 1.86368-25.33376-8.192-25.31328-22.4256 0.02048-14.2336 11.40736-27.27936 25.41568-29.14304l255.71328-33.85344z" fill="#FFFFFF" p-id="3332"></path><path d="M538.5216 308.40832c13.29152-1.7408 24.02304 7.68 24.00256 21.03296-0.02048 13.35296-10.81344 25.6-24.10496 27.3408l-144.32256 18.90304c-13.29152 1.7408-24.02304-7.68-24.00256-21.03296 0.02048-13.35296 10.81344-25.6 24.10496-27.3408l144.32256-18.90304z" fill="#FFFFFF" p-id="3333"></path><path d="M775.49568 500.10112a21.36064 21.36064 0 0 0-26.09152-15.23712l-48.20992 12.63616v-66.94912a21.36064 21.36064 0 0 0-42.72128 0v94.63808l0.02048 0.45056a13.16864 13.16864 0 0 0 0.16384 2.27328 17.05984 17.05984 0 0 0 0.16384 1.00352l0.26624 1.2288 0.1024 0.45056 0.08192 0.22528c0.28672 1.04448 0.65536 2.06848 1.08544 3.05152l0.2048 0.43008c0.45056 0.96256 0.96256 1.88416 1.536 2.74432l0.12288 0.18432a22.28224 22.28224 0 0 0 4.46464 4.75136l0.49152 0.36864c0.8192 0.6144 1.67936 1.16736 2.60096 1.65888l0.1024 0.04096c0.90112 0.47104 1.8432 0.88064 2.82624 1.2288l0.43008 0.16384c0.94208 0.3072 1.92512 0.55296 2.92864 0.73728l0.67584 0.1024c0.96256 0.14336 1.92512 0.22528 2.92864 0.24576l0.18432 0.02048 0.32768-0.02048c0.7168-0.02048 1.4336-0.06144 2.1504-0.14336l0.69632-0.1024 1.90464-0.36864 0.34816-0.06144 74.99776-19.6608c11.38688-3.01056 18.2272-14.68416 15.21664-26.09152z" fill="#FFFFFF" p-id="3334"></path></svg>