<?xml version="1.0" standalone="no"?><!DOCTYPE svg PUBLIC "-//W3C//DTD SVG 1.1//EN" "http://www.w3.org/Graphics/SVG/1.1/DTD/svg11.dtd"><svg t="1654590254571" class="icon" viewBox="0 0 1045 1024" version="1.1" xmlns="http://www.w3.org/2000/svg" p-id="18324" width="306.15234375" height="300" xmlns:xlink="http://www.w3.org/1999/xlink"><defs><style type="text/css">@font-face { font-family: feedback-iconfont; src: url("//at.alicdn.com/t/font_1031158_u69w8yhxdu.woff2?t=1630033759944") format("woff2"), url("//at.alicdn.com/t/font_1031158_u69w8yhxdu.woff?t=1630033759944") format("woff"), url("//at.alicdn.com/t/font_1031158_u69w8yhxdu.ttf?t=1630033759944") format("truetype"); }
</style></defs><path d="M522.459429 917.065143C489.043592 917.065143 456.484571 914.034939 424.813714 908.789551L159.900735 1024 195.939265 816.169796C76.59102 732.128653 0 603.261388 0 458.522122 0 205.280653 233.921306-0.010449 522.459429-0.010449 810.997551-0.010449 1044.918857 205.280653 1044.918857 458.522122 1044.918857 711.78449 810.997551 917.065143 522.459429 917.065143ZM814.059102 256.282122 783.05698 254.798367 704.292571 238.675592 707.249633 170.819918 673.28 232.333061 503.536327 199.032163 370.782041 510.819265 275.518694 578.048 227.317551 566.460082 223.900735 523.096816 183.118367 512.156735 213.535347 591.725714 275.811265 610.51298 256.700082 769.765878 342.078694 769.734531 331.295347 668.849633 565.101714 642.915265 703.916408 487.768816 706.25698 515.79298 677.762612 554.172082 743.936 556.502204 769.797224 483.401143 714.44898 408.889469 765.993796 394.083265 789.065143 291.139918 836.71249 286.521469 861.821388 188.886204 814.059102 256.282122Z" p-id="18325" fill="#9013AF"></path></svg>